<?xml version="1.0" encoding="UTF-8"?>
<svg version="1.1" xmlns="http://www.w3.org/2000/svg" width="1200" height="719">
<path d="M0 0 C0.95827194 -0.00637985 1.91654388 -0.0127597 2.90385437 -0.01933289 C3.9433876 -0.02044571 4.98292084 -0.02155853 6.05395508 -0.02270508 C7.12212967 -0.02603348 8.19030426 -0.02936188 9.29084778 -0.03279114 C11.55636158 -0.03786222 13.82188287 -0.04019941 16.08740234 -0.04003906 C19.54187503 -0.0422164 22.99602371 -0.06034506 26.45043945 -0.0793457 C28.65161024 -0.08228147 30.85278254 -0.08426504 33.05395508 -0.08520508 C34.5980732 -0.09598335 34.5980732 -0.09598335 36.17338562 -0.10697937 C42.85744058 -0.08586677 48.63856122 -0.02711898 54.07348633 4.27026367 C59.31515742 10.78693585 61.44354612 18.11346969 63.49536133 26.11401367 C63.78820007 27.22844849 64.08103882 28.3428833 64.38275146 29.49108887 C65.39672167 33.37260301 66.39383305 37.25813092 67.38598633 41.14526367 C67.66175003 42.22360474 67.66175003 42.22360474 67.94308472 43.32373047 C70.73055555 54.22739438 73.48367086 65.13964818 76.22912598 76.05395508 C78.66094173 85.72129263 81.10129522 95.38647686 83.54223633 105.05151367 C83.78920006 106.02955963 84.03616379 107.00760559 84.29061127 108.01528931 C89.18780754 127.40518724 94.14906775 146.77827503 99.13598633 166.14526367 C100.67047521 172.10473588 102.2046558 178.064287 103.73754883 184.02416992 C103.92580357 184.75609118 104.1140583 185.48801243 104.30801773 186.24211311 C107.40726434 198.29626383 110.47767479 210.35761428 113.53442383 222.42260742 C113.74536179 223.25514668 113.95629974 224.08768593 114.17362976 224.94545364 C116.2158863 233.00738382 118.25560439 241.0699528 120.29174614 249.13342953 C121.02776381 252.04757147 121.76456902 254.96151398 122.50148392 257.87542915 C123.00629048 259.87310795 123.50981201 261.87110765 124.01327515 263.86912537 C124.31303253 265.0545845 124.61278992 266.24004364 124.92163086 267.46142578 C125.18187042 268.49287216 125.44210999 269.52431854 125.7102356 270.58702087 C126.20444018 272.45797013 126.77404766 274.30944768 127.38598633 276.14526367 C130.90840694 261.27121841 134.43007712 246.39699558 137.95106316 231.52261066 C139.68709745 224.1888106 141.42334556 216.85506126 143.1600647 209.52142334 C145.29851689 200.49124151 147.43636939 191.46091785 149.57348633 182.43041992 C149.8446614 181.28455744 149.8446614 181.28455744 150.12131476 180.11554623 C155.34711386 158.03232887 160.55441014 135.94483075 165.7424984 113.85272408 C166.75120601 109.5576103 167.7606293 105.26266495 168.7702179 100.96775818 C169.26457095 98.8646008 169.75891933 96.76144232 170.25326765 94.65828383 C170.57855916 93.27438091 170.9038613 91.89048049 171.22917426 90.50658262 C173.13005607 82.41977709 175.02803025 74.33230112 176.92139828 66.24373299 C178.24874834 60.57428303 179.58063176 54.90590538 180.91407776 49.23788643 C181.45638026 46.92919654 181.9971268 44.62014048 182.53614807 42.3106823 C190.55473285 7.96238611 190.55473285 7.96238611 196.38598633 3.14526367 C203.06077779 0.3755223 209.51552321 -0.30240777 216.67114258 -0.25317383 C217.61227402 -0.25604401 218.55340546 -0.25891418 219.52305603 -0.26187134 C221.49698494 -0.26389774 223.4709346 -0.25846853 225.44482422 -0.24584961 C228.4445532 -0.22975743 231.44293879 -0.24575659 234.44262695 -0.26489258 C236.37296843 -0.26291025 238.30330908 -0.25906678 240.23364258 -0.25317383 C241.56057884 -0.26228287 241.56057884 -0.26228287 242.9143219 -0.27157593 C248.61663381 -0.20798326 254.37239442 0.2132342 259.38598633 3.14526367 C263.31979365 7.20008326 265.20527619 10.48875642 266.82641602 15.97387695 C267.12976931 16.99873546 267.12976931 16.99873546 267.43925095 18.04429817 C270.46933235 28.55303358 272.85889089 39.2394381 275.33911133 49.88745117 C275.91368142 52.33431081 276.48878924 54.78104423 277.06439209 57.22766113 C278.29021891 62.44295741 279.51258518 67.65904514 280.73168945 72.87591553 C282.48992377 80.39964065 284.25484279 87.92178519 286.02167225 95.44349599 C286.84133119 98.93296049 287.66074975 102.42248142 288.48010254 105.91201782 C288.64333181 106.60719289 288.80656108 107.30236795 288.97473669 108.01860893 C290.13844069 112.97533074 291.30091918 117.93233901 292.46276855 122.88949585 C298.53999093 148.81819569 304.64921444 174.73928177 310.76672363 200.6585083 C312.35465411 207.38677362 313.9412404 214.11535544 315.52758789 220.84399414 C316.26823856 223.98508757 317.00891698 227.12617446 317.7496109 230.26725769 C318.20320034 232.19093881 318.65673065 234.11463387 319.11019135 236.03834534 C319.53106388 237.82370695 319.95209725 239.60903066 320.37330246 241.39431381 C320.77511894 243.09835149 321.1762821 244.80254338 321.57674026 246.50690079 C322.63151281 250.98777944 323.70572698 255.46309334 324.8034668 259.93365479 C325.03601669 260.88817347 325.26856659 261.84269215 325.50816345 262.82613564 C325.9539028 264.65330903 326.40413646 266.47939403 326.8596344 268.30415916 C327.83623245 272.32266398 328.68574333 275.97397932 328.38598633 280.14526367 C329.04598633 280.14526367 329.70598633 280.14526367 330.38598633 280.14526367 C330.51197205 279.15054047 330.63795776 278.15581726 330.76776123 277.13095093 C331.33993197 273.14389799 332.26852197 269.27046278 333.27758789 265.37426758 C333.56441216 264.24845197 333.56441216 264.24845197 333.85703087 263.09989262 C334.49332637 260.60627724 335.13493045 258.11406069 335.77661133 255.62182617 C336.23323555 253.83738113 336.68955754 252.05285874 337.14559937 250.26826477 C338.37982327 245.4427911 339.61886287 240.618566 340.85895538 235.79459763 C341.90285872 231.73155184 342.94407657 227.66781972 343.9853611 223.60410213 C351.79412027 193.13249425 359.65391685 162.67396638 367.57250977 132.23071289 C368.21517054 129.75980288 368.85783008 127.28889255 369.50047302 124.81797791 C369.92866638 123.17163585 370.35689908 121.52530403 370.78517151 119.87898254 C374.03334169 107.38984804 377.25243898 94.89343152 380.45835495 82.39338875 C381.89966839 76.7770879 383.34510312 71.16184613 384.7906208 65.54662609 C386.16553146 60.20372207 387.53391519 54.85920361 388.89735603 49.51336193 C389.74138198 46.21098011 390.59191613 42.91029937 391.44418716 39.61003685 C391.83460963 38.09277085 392.22239281 36.57482256 392.60717392 35.0561161 C399.50903171 7.83409637 399.50903171 7.83409637 406.38598633 3.14526367 C412.93906479 0.23559355 419.05595453 -0.29881699 426.15161133 -0.25317383 C427.1480365 -0.25604401 428.14446167 -0.25891418 429.17108154 -0.26187134 C431.26192804 -0.26390033 433.35279402 -0.25845263 435.44360352 -0.24584961 C438.64097313 -0.22971116 441.83709184 -0.2457733 445.03442383 -0.26489258 C447.07348911 -0.26291127 449.11255361 -0.25906993 451.15161133 -0.25317383 C452.10376526 -0.25924652 453.05591919 -0.26531921 454.03692627 -0.27157593 C462.69313121 -0.1797591 462.69313121 -0.1797591 466.38598633 3.14526367 C470.65227108 11.75870029 466.97775706 21.58022935 464.19458008 30.19995117 C463.86217819 31.26095032 463.52977631 32.32194946 463.18730164 33.4151001 C462.07624394 36.95346161 460.9497179 40.4867055 459.82348633 44.02026367 C459.02072551 46.56791978 458.21895265 49.11586353 457.41870117 51.66430664 C455.9061601 56.4775838 454.38982746 61.28963747 452.86920166 66.10036659 C449.73801372 76.00827623 446.6408241 85.92659209 443.55395508 95.84838867 C443.30786058 96.63925873 443.06176609 97.43012878 442.80821419 98.2449646 C441.80442055 101.4709186 440.80071724 104.69690068 439.79720783 107.92294312 C436.98208004 116.97232977 434.16107682 126.01988233 431.33911133 135.06713867 C430.95984654 136.28314255 430.95984654 136.28314255 430.57291985 137.52371216 C427.11419651 148.61255361 423.65081925 159.69993197 420.18286133 170.78588867 C419.76713514 172.11489853 419.35140943 173.44390854 418.9356842 174.7729187 C418.52401802 176.08892844 418.11235116 177.40493796 417.70068359 178.72094727 C417.08995515 180.67331481 416.47923082 182.62568364 415.86851883 184.57805634 C415.46375079 185.87205039 415.05897328 187.16604149 414.65418625 188.4600296 C408.47436917 208.21608313 402.32858431 227.98250099 396.2066679 247.75657272 C394.56659147 253.05388996 392.92483451 258.35068404 391.28222656 263.6472168 C390.37401084 266.57622412 389.4659045 269.50526535 388.55786133 272.43432617 C388.33660143 273.14798088 388.11534153 273.86163559 387.88737679 274.5969162 C385.21812261 283.20804361 382.56144336 291.82282731 379.92289734 300.44342041 C378.54552846 304.93953781 377.16078429 309.43336179 375.77456665 313.92675781 C375.15056915 315.95638653 374.53014559 317.98711821 373.91366577 320.01904297 C373.07893054 322.76974589 372.23195541 325.51639508 371.38208008 328.26245117 C371.14970642 329.04026947 370.91733276 329.81808777 370.67791748 330.61947632 C368.14204643 338.71899647 365.10745802 345.77333094 357.64379883 350.27026367 C351.90836803 352.49299118 345.62554455 352.30460268 339.55786133 352.31323242 C338.72820862 352.31656082 337.89855591 352.31988922 337.04376221 352.32331848 C335.29570058 352.32835722 333.54762943 352.33072776 331.79956055 352.33056641 C329.15763055 352.33274582 326.51612352 352.35091471 323.87426758 352.36987305 C301.04382681 352.44788001 301.04382681 352.44788001 294.94848633 348.08276367 C289.69056329 342.05538848 287.71642152 334.48578547 285.92944336 326.82592773 C285.713087 325.93043685 285.49673063 325.03494596 285.27381802 324.11231899 C284.55556848 321.13042 283.84972291 318.14572748 283.14379883 315.16088867 C282.62673395 313.0033826 282.10888487 310.84606433 281.59031677 308.68891907 C280.18175216 302.82022455 278.78382464 296.94904173 277.38768387 291.07738113 C275.91420152 284.88877577 274.43080801 278.70254764 272.94824219 272.51611328 C270.58284671 262.64144547 268.22183001 252.76574515 265.86435306 242.88918436 C261.78821094 225.81316838 257.69180765 208.74205233 253.58956337 191.67229033 C252.72810204 188.08759246 251.86680225 184.50285579 251.00549316 180.91812134 C250.66391377 179.4964911 250.32233433 178.07486088 249.98075485 176.65323067 C249.81235391 175.95235337 249.64395297 175.25147606 249.47044897 174.52936006 C249.13184233 173.12010822 248.79322979 171.71085779 248.4546113 170.3016088 C245.05629753 156.15861712 241.66042902 142.01504001 238.26765633 127.870718 C237.69283757 125.47452713 237.11788513 123.07836831 236.54278374 120.68224525 C233.46137052 107.84334991 230.39412068 95.00154498 227.38598633 82.14526367 C220.16218717 110.41040117 213.33220061 138.76612504 206.57348633 167.14526367 C206.35253548 168.07288513 206.13158463 169.00050659 205.90393829 169.95623779 C203.83430115 178.64561171 201.76578333 187.33525183 199.69833374 196.02514648 C195.04950338 215.56487865 190.39177089 235.10247879 185.72476673 254.63787842 C184.54622057 259.57124654 183.36831367 264.50476486 182.19223022 269.4387207 C179.46663959 280.87227187 176.72713401 292.30234247 173.96849823 303.72796631 C173.38832057 306.1355771 172.81113815 308.54388873 172.23468018 310.95239258 C171.33413922 314.71184015 170.42359345 318.46872546 169.50512123 322.22383118 C169.17429407 323.58263088 168.84667457 324.94221659 168.52266502 326.30265808 C164.36749465 343.72278816 164.36749465 343.72278816 158.38598633 348.58276367 C154.25594243 350.7338282 151.00783536 351.27004902 146.37719727 351.32226562 C145.38226257 351.33510086 144.38732788 351.3479361 143.36224365 351.36116028 C142.29242249 351.36854721 141.22260132 351.37593414 140.12036133 351.38354492 C139.01299622 351.39161667 137.9056311 351.39968842 136.76470947 351.40800476 C134.42119912 351.42182978 132.07766877 351.432559 129.73413086 351.44042969 C126.16326429 351.45763226 122.59332616 351.501533 119.02270508 351.5456543 C116.74276395 351.55578269 114.46281497 351.56429834 112.18286133 351.57104492 C111.12113708 351.58855301 110.05941284 351.6060611 108.96551514 351.62409973 C102.65782912 351.60578433 97.56680251 350.97647335 92.38598633 347.14526367 C86.62031873 340.74044969 84.77352216 331.83438101 82.32348633 323.77026367 C81.81220816 322.11760134 81.30013002 320.46518633 80.78735352 318.81298828 C78.96767444 312.92957611 77.1767064 307.0375418 75.38598633 301.14526367 C74.67854052 298.82216179 73.97101823 296.4990832 73.26342773 294.17602539 C68.9094396 279.87226708 64.57833503 265.56163924 60.25454712 251.2487278 C54.92482501 233.60700716 49.56917039 215.97318755 44.21047974 198.34024811 C43.44678972 195.82718066 42.68321371 193.31407861 41.91967773 190.80096436 C35.48168713 169.61091251 29.03671824 148.42299386 22.58587742 127.23685074 C15.20763952 103.00479721 7.83627149 78.77067161 0.48498535 54.53042603 C-0.40774494 51.58675668 -1.30090641 48.64321873 -2.19445801 45.69979858 C-3.23188593 42.28229406 -4.26834792 38.86449812 -5.30403137 35.44646454 C-5.86453286 33.59743963 -6.42596692 31.7486975 -6.98742676 29.89996338 C-7.48756287 28.24816071 -7.48756287 28.24816071 -7.99780273 26.56298828 C-8.28753967 25.60750595 -8.57727661 24.65202362 -8.87579346 23.66758728 C-10.13004911 19.38209281 -10.8198967 15.63439918 -10.92651367 11.14526367 C-10.96389648 10.11401367 -11.0012793 9.08276367 -11.03979492 8.02026367 C-10.51129063 4.45164752 -9.38588387 3.36687393 -6.61401367 1.14526367 C-4.20793778 -0.05777427 -2.68704682 0.01212235 0 0 Z " fill="#242E3D" transform="translate(388.614013671875,13.854736328125)"/>
<path d="M0 0 C7.4910988 2.8571172 14.37066113 7.20533917 21.31079102 11.17700195 C46.35200884 25.49166493 72.12240216 38.57104312 98.43115234 50.39453125 C100.88798223 51.49975175 103.34147188 52.6104363 105.79150391 53.73046875 C188.12475744 91.33932719 275.8517128 118.53536008 502.3125 154.25 C503.39566498 154.33308411 504.47882996 154.41616821 505.59481812 154.50177002 C512.72735266 155.04228129 519.86208217 155.53637551 527 156 C528.21456879 156.08272156 528.21456879 156.08272156 529.45367432 156.16711426 C549.18009539 157.47678229 568.9900842 157.24576974 588.75 157.25 C590.16825891 157.25066278 590.16825891 157.25066278 591.61516953 157.25133896 C621.84874584 157.25873855 651.87155378 156.74123206 682 154 C683.96695022 153.82655334 685.93391008 153.65321595 687.90087891 153.47998047 C783.29010361 144.95324586 877.18481298 124.50230306 1021.67114258 73.32861328 C1048.53208963 62.30878152 1048.53208963 62.30878152 1057 65 C1060.3125 66.8125 1060.3125 66.8125 1063 69 C1063.7425 69.556875 1064.485 70.11375 1065.25 70.6875 C1067.90634784 74.19767394 1068.77553994 77.62302875 1069 82 C1067.7249621 90.07524003 1063.29516123 95.47210475 1056.83984375 100.19140625 C1055.21244665 101.32481093 1053.57792052 102.44802792 1051.9375 103.5625 C1051.06134033 104.16602295 1050.18518066 104.7695459 1049.2824707 105.39135742 C1028.07955606 119.91833428 1006.27839329 133.00726209 983.79931641 145.44921875 C981.54330937 146.69901438 979.29239328 147.95718717 977.04296875 149.21875 C964.37947449 156.17703788 951.15716596 162.04765185 938 168 C936.22181885 168.80727539 936.22181885 168.80727539 934.40771484 169.63085938 C854.10736844 205.8791532 766.96426345 228.33476629 294 199 C293.30966675 198.76839172 292.6193335 198.53678345 291.90808105 198.29815674 C245.04577132 182.53151592 198.93024288 162.737327 155.80273438 138.56542969 C152.85056909 136.91653737 149.88715251 135.28924464 146.921875 133.6640625 C111.96839959 114.42344238 78.73873871 92.15536703 47 68 C46.41202637 67.55382324 45.82405273 67.10764648 45.21826172 66.64794922 C34.8378184 58.76328586 24.76884865 50.5330219 14.84033203 42.08837891 C11.38879554 39.15728781 7.89790701 36.28292489 4.375 33.4375 C0.52816571 30.29009013 -3.26717106 27.09464618 -7 23.8125 C-7.886875 23.03519531 -8.77375 22.25789063 -9.6875 21.45703125 C-12.93745551 18.00395352 -14.75221586 14.69909127 -15.4375 10 C-14.87822043 6.16494007 -13.38419137 4.01530085 -11 1 C-7.36999801 -0.815001 -3.89729512 -0.63125203 0 0 Z " fill="#FF9900" transform="translate(21,470)"/>
<path d="M0 0 C25.77696328 23.17663816 33.76916533 56.97387917 35.62817383 90.35107422 C35.76773086 95.00860579 35.80153751 99.66332044 35.81762695 104.32275391 C35.83035785 106.34771619 35.84308894 108.37267847 35.85582733 110.39764071 C35.86845475 112.54447465 35.87883253 114.6913086 35.88853455 116.83815765 C35.90903897 121.34731967 35.93665032 125.85642236 35.96520996 130.36553955 C36.02490555 139.94402291 36.07690821 149.52254261 36.12817383 159.10107422 C36.18353636 169.43418081 36.24038387 179.76726914 36.30572271 190.10031819 C36.32915455 193.83980679 36.35074749 197.57928602 36.36781311 201.31880951 C36.35383023 242.99157752 36.35383023 242.99157752 49.01879883 282.26904297 C49.4292041 283.1040332 49.83960938 283.93902344 50.26245117 284.79931641 C51.06755944 286.4146025 51.88989677 288.02145798 52.73217773 289.61767578 C55.38317969 294.8832867 56.81277829 299.45257507 55.62817383 305.35107422 C51.93288757 313.10682797 44.1873928 317.08706198 37.19067383 321.60107422 C35.96273188 322.40986524 34.73551181 323.21975335 33.5090332 324.03076172 C17.34895112 334.64076663 17.34895112 334.64076663 8.62817383 333.35107422 C-8.58429898 326.77903915 -17.43649414 303.68904238 -25.37182617 288.35107422 C-29.41104081 291.70090367 -33.22716048 295.14173545 -36.84570312 298.94189453 C-60.44778865 323.6351659 -94.5447572 339.26147392 -128.77709961 340.47143555 C-164.83684371 341.24846665 -196.29607705 336.18690112 -223.62182617 310.53857422 C-243.44646948 289.71226472 -250.96169843 261.66578996 -250.65698242 233.51220703 C-249.91585651 204.17983317 -239.76477179 177.40894363 -218.40307617 157.00732422 C-208.14596429 147.83850007 -196.95963908 140.84711832 -184.37182617 135.35107422 C-183.72632813 135.06893066 -183.08083008 134.78678711 -182.41577148 134.49609375 C-171.72038098 129.93347995 -160.80960388 127.31043657 -149.37182617 125.35107422 C-148.0750293 125.12419922 -146.77823242 124.89732422 -145.44213867 124.66357422 C-107.42984055 119.15676242 -68.4543678 126.02443154 -31.37182617 134.35107422 C-31.29622444 128.87828407 -31.24255919 123.40581445 -31.20703125 117.93261719 C-31.19218122 116.08067516 -31.17189591 114.22876669 -31.14550781 112.37695312 C-30.82517073 89.27499621 -32.09533122 63.14049253 -48.39916992 45.10888672 C-65.18690686 29.01937392 -89.90104091 26.92026131 -111.99682617 27.03857422 C-112.74327393 27.04106171 -113.48972168 27.04354919 -114.25878906 27.04611206 C-145.34397366 27.20581896 -173.69484767 36.25672106 -202.66870117 46.93310547 C-203.89073242 47.38041016 -205.11276367 47.82771484 -206.37182617 48.28857422 C-207.38245117 48.66884766 -208.39307617 49.04912109 -209.43432617 49.44091797 C-213.75642665 50.78007942 -217.74148582 51.74960186 -222.18432617 50.66357422 C-224.79941812 49.09451905 -225.41386414 48.22496031 -226.37182617 45.35107422 C-228.81030453 34.06643713 -229.75198123 16.10873505 -225.37182617 5.35107422 C-211.07388006 -15.18861487 -168.92922821 -21.26174872 -146.37182617 -25.64892578 C-145.49365234 -25.82681641 -144.61547852 -26.00470703 -143.71069336 -26.18798828 C-97.8633935 -35.09243496 -36.86686496 -31.7999603 0 0 Z M-166.37182617 191.35107422 C-177.62604757 204.91447711 -181.63515249 220.95604264 -180.37182617 238.35107422 C-178.5360955 253.51368396 -174.59954963 266.2418627 -162.79370117 276.61669922 C-148.91650997 287.321961 -131.64348792 289.79540397 -114.49682617 287.87060547 C-92.79960697 285.02096584 -71.85665001 279.55525885 -55.37182617 264.35107422 C-54.0009082 263.11744141 -54.0009082 263.11744141 -52.60229492 261.85888672 C-35.60968593 245.81935155 -30.05980962 225.63079852 -29.24731445 202.86181641 C-29.1256089 195.35630518 -29.19785105 187.85520094 -29.37182617 180.35107422 C-39.34937913 177.43837242 -49.33589018 175.62289988 -59.62182617 174.16357422 C-60.79261719 173.99696289 -61.9634082 173.83035156 -63.16967773 173.65869141 C-95.61719146 169.20869445 -141.36651358 164.9861347 -166.37182617 191.35107422 Z " fill="#242E3D" transform="translate(305.371826171875,33.64892578125)"/>
<path d="M0 0 C5.47556352 4.93788294 9.59544473 9.46346758 10.22387695 17.09179688 C10.27368578 24.26054348 10.27368578 24.26054348 10.26489258 27.10498047 C10.26172807 29.25149111 10.28523509 31.39662772 10.31054688 33.54296875 C10.31281981 34.91666494 10.31352339 36.29036481 10.3125 37.6640625 C10.31548096 38.90478516 10.31846191 40.14550781 10.3215332 41.42382812 C9.81062291 45.99890419 8.15875943 48.54827182 4.94921875 51.7578125 C-5.07474066 53.14042759 -14.20718764 48.18318752 -23.26953125 44.421875 C-55.48220275 31.38736617 -99.22888593 26.10386405 -132.4140625 38.6015625 C-144.77471604 44.02193798 -152.99776254 49.94762055 -158.05078125 62.7578125 C-161.77355056 73.94550986 -160.645504 84.99576843 -156.05078125 95.7578125 C-145.10068136 115.12877724 -118.48149983 122.37571959 -98.73022461 128.58935547 C-95.53018866 129.5964632 -92.33591243 130.62029059 -89.14257812 131.6484375 C-84.82479436 133.03749431 -80.50539862 134.42128917 -76.18408203 135.79931641 C-68.20757538 138.34432723 -60.23825297 140.9099824 -52.28488159 143.52645874 C-50.14525664 144.22688509 -48.00175853 144.91422921 -45.85766602 145.60083008 C-26.72422407 151.83102912 -9.52012645 160.52684202 4.94921875 174.7578125 C5.72136719 175.51707031 6.49351562 176.27632812 7.2890625 177.05859375 C23.40740393 193.89330591 30.53770448 217.22334082 30.30273438 240.23706055 C29.39970899 268.37597645 18.73998084 294.53255764 -1.94921875 313.99609375 C-39.22592764 345.24478466 -87.69071595 353.02999562 -135.05078125 349.0703125 C-162.96113007 346.36019931 -204.7098093 341.04547468 -226.05078125 320.7578125 C-230.20690389 315.33238754 -231.21284413 310.09505332 -231.25390625 303.421875 C-231.26245636 302.34732559 -231.26245636 302.34732559 -231.2711792 301.25106812 C-231.28061661 299.73640413 -231.28715818 298.22171973 -231.29101562 296.70703125 C-231.30071714 294.39807047 -231.331749 292.09000181 -231.36328125 289.78125 C-231.3698123 288.30729693 -231.37506237 286.83333752 -231.37890625 285.359375 C-231.39125305 284.67275787 -231.40359985 283.98614075 -231.4163208 283.27871704 C-231.39628108 278.93420013 -230.70802537 276.21481756 -228.05078125 272.7578125 C-223.15469342 270.30976858 -216.9553736 271.19403204 -211.88037109 272.69628906 C-208.46275503 274.01576465 -205.10058063 275.42825713 -201.73828125 276.8828125 C-174.1112744 288.34450167 -145.44116095 293.98381135 -115.55078125 294.0078125 C-114.41677383 294.00882462 -114.41677383 294.00882462 -113.25985718 294.00985718 C-90.91606116 293.97819072 -66.31361325 291.36247577 -49.11328125 275.3828125 C-45.63114931 271.58720396 -43.21820385 267.41022878 -41.05078125 262.7578125 C-40.72980469 262.10554688 -40.40882813 261.45328125 -40.078125 260.78125 C-36.36070924 251.82487157 -36.62808133 239.83841225 -39.67578125 230.6953125 C-45.99497186 216.14135782 -58.85645904 208.51501965 -73.05078125 202.7578125 C-87.66903197 197.32041512 -102.62621329 192.79592079 -117.53125 188.22265625 C-118.51568588 187.91970642 -119.50012177 187.61675659 -120.51438904 187.30462646 C-125.35647093 185.81516586 -130.20121473 184.33637107 -135.0534668 182.88037109 C-168.16275948 172.83844228 -199.45896731 157.85144955 -216.53125 126.2734375 C-227.43973493 105.11220487 -231.23036399 80.07805605 -225.015625 56.765625 C-224.69722656 55.77304688 -224.37882813 54.78046875 -224.05078125 53.7578125 C-223.72207031 52.70335938 -223.39335938 51.64890625 -223.0546875 50.5625 C-217.85679094 35.63428496 -209.22714 23.74221836 -198.05078125 12.7578125 C-197.31214844 12.02046875 -196.57351563 11.283125 -195.8125 10.5234375 C-151.544141 -31.16051636 -48.7511521 -37.94592292 0 0 Z " fill="#242E3D" transform="translate(1115.05078125,26.2421875)"/>
<path d="M0 0 C5.98777245 5.79557234 5.92223713 14.73168816 6.05419922 22.61767578 C6.26268453 84.02273214 -20.16255142 149.2284859 -63.1875 193.0625 C-75.6919702 205.33917244 -75.6919702 205.33917244 -82.75 205.375 C-83.51441406 205.39175781 -84.27882813 205.40851563 -85.06640625 205.42578125 C-87.74976479 204.96620051 -88.47996625 204.1455544 -90.1875 202.0625 C-91.39890848 193.91535144 -88.28393912 187.24590972 -85.20321655 179.88183594 C-83.67328918 176.22011645 -82.19811933 172.53627204 -80.71484375 168.85546875 C-80.41377213 168.1121933 -80.1127005 167.36891785 -79.80250549 166.6031189 C-75.21058956 155.2307266 -71.15774715 143.66465515 -67.1875 132.0625 C-66.82285645 131.0012793 -66.45821289 129.94005859 -66.08251953 128.84667969 C-50.99691461 87.72622164 -50.99691461 87.72622164 -54.6875 45.5625 C-65.67845704 34.57154296 -84.18731481 33.92640479 -98.859375 33.859375 C-100.39437653 33.84898949 -100.39437653 33.84898949 -101.96038818 33.83839417 C-105.28613101 33.8210703 -108.61171402 33.81479385 -111.9375 33.8125 C-113.07598389 33.81116058 -114.21446777 33.80982117 -115.38745117 33.80844116 C-135.46916406 33.81355146 -155.2366786 34.85315597 -175.1875 37.0625 C-176.49219238 37.20655273 -177.79688477 37.35060547 -179.14111328 37.49902344 C-186.30251464 38.29390452 -186.30251464 38.29390452 -193.45703125 39.14770508 C-211.03389551 41.26939425 -211.03389551 41.26939425 -215.46899414 38.78393555 C-217.76830457 36.48070528 -217.66825472 34.45523589 -217.71875 31.29296875 C-216.2724608 25.22068099 -211.8941318 21.6218318 -206.875 18.375 C-205.91134521 17.74597778 -205.91134521 17.74597778 -204.92822266 17.10424805 C-157.9288169 -12.55913185 -48.76281991 -37.82812696 0 0 Z " fill="#FF9900" transform="translate(1188.1875,460.9375)"/>
</svg>
