<?xml version="1.0" encoding="UTF-8"?>
<svg version="1.1" xmlns="http://www.w3.org/2000/svg" width="261" height="261">
<path d="M0 0 C15.21633665 11.91651353 24.81680459 28.31897032 28.24609375 47.3359375 C30.32954004 69.50025976 24.40827954 89.36664672 10.37109375 106.6484375 C-2.32056864 120.44249373 -20.63776315 128.84095899 -39.3359375 129.6484375 C-59.9774449 130.04020988 -79.00641404 123.28758877 -94.12890625 108.96484375 C-108.05117609 94.26650143 -115.15671832 75.84227514 -114.84594727 55.69970703 C-114.01627957 34.95560971 -105.14787071 17.867078 -90.44140625 3.5234375 C-64.87511665 -17.71172081 -26.96608736 -19.98564002 0 0 Z M-64.44140625 -5.4765625 C-64.77140625 -4.8165625 -65.10140625 -4.1565625 -65.44140625 -3.4765625 C-64.36761719 -3.35539062 -63.29382813 -3.23421875 -62.1875 -3.109375 C-60.7512665 -2.94040635 -59.31507053 -2.77111846 -57.87890625 -2.6015625 C-57.17443359 -2.52292969 -56.46996094 -2.44429687 -55.74414062 -2.36328125 C-52.226035 -1.94175707 -49.1489854 -1.38547047 -45.7421875 -0.32421875 C-42.14275709 0.60013202 -40.64192052 0.41226686 -37.19140625 -0.7890625 C-31.6115939 -2.53807442 -26.26278339 -3.1500249 -20.44140625 -3.4765625 C-21.27699802 -5.7210285 -21.27699802 -5.7210285 -23.78515625 -6.328125 C-37.06355837 -9.58199087 -51.39165589 -10.2179718 -64.44140625 -5.4765625 Z M-66.44140625 0.5234375 C-66.44140625 3.4934375 -66.44140625 6.4634375 -66.44140625 9.5234375 C-65.44882813 9.3790625 -64.45625 9.2346875 -63.43359375 9.0859375 C-50.82248985 7.32879348 -38.89637001 6.7951717 -26.28125 9.0859375 C-23.61273546 9.4970429 -21.1354307 9.60252813 -18.44140625 9.5234375 C-18.93640625 5.0684375 -18.93640625 5.0684375 -19.44140625 0.5234375 C-25.32609504 0.21611333 -30.42200262 0.33616081 -36.06640625 2.1484375 C-41.50453411 3.81095088 -45.11933195 3.17026804 -50.44140625 1.5234375 C-54.11358585 0.64283326 -57.48068163 0.41547696 -61.25390625 0.4609375 C-62.22972656 0.46996094 -63.20554688 0.47898437 -64.2109375 0.48828125 C-64.94699219 0.49988281 -65.68304688 0.51148437 -66.44140625 0.5234375 Z M-85.19140625 7.8359375 C-91.73234053 11.43712603 -97.12746272 17.39741241 -99.44140625 24.5234375 C-99.69227349 27.69076171 -99.69227349 27.69076171 -99.44140625 30.5234375 C-98.3673832 31.790133 -98.3673832 31.790133 -95.87890625 31.9609375 C-91.53864168 31.40854019 -89.6599379 29.60979234 -86.31640625 26.9375 C-83.92988874 25.13766805 -82.45060819 24.44627848 -79.44140625 24.5234375 C-77.08158812 25.45922745 -74.74509361 26.45691558 -72.44140625 27.5234375 C-71.45140625 27.5234375 -70.46140625 27.5234375 -69.44140625 27.5234375 C-69.11140625 26.5334375 -68.78140625 25.5434375 -68.44140625 24.5234375 C-69.70832132 23.84935442 -70.98011374 23.18443253 -72.25390625 22.5234375 C-72.96160156 22.1521875 -73.66929688 21.7809375 -74.3984375 21.3984375 C-76.53061354 20.32658392 -76.53061354 20.32658392 -79.44140625 20.5234375 C-79.11140625 19.6571875 -78.78140625 18.7909375 -78.44140625 17.8984375 C-77.45409284 14.56625475 -77.27719651 11.97184212 -77.44140625 8.5234375 C-80.85429137 6.43191277 -81.10040889 6.40408842 -85.19140625 7.8359375 Z M-8.44140625 8.5234375 C-9.30284369 14.43043711 -7.67767567 17.5864598 -4.234375 22.37109375 C-1.1768454 26.04146153 2.25880554 29.37354339 6.55859375 31.5234375 C9.60033269 31.69014023 9.60033269 31.69014023 12.55859375 31.5234375 C13.75739522 30.54819286 13.75739522 30.54819286 13.6484375 28.73828125 C13.13871125 21.11852735 10.09032643 16.81644471 4.59375 11.69140625 C1.35051264 9.03332112 -0.65795004 7.62315011 -4.87890625 7.0859375 C-7.3673832 7.256742 -7.3673832 7.256742 -8.44140625 8.5234375 Z M-11.44140625 22.5234375 C-12.12288855 24.41522953 -12.12288855 24.41522953 -12.44140625 26.5234375 C-11.78140625 27.1834375 -11.12140625 27.8434375 -10.44140625 28.5234375 C-9.12140625 28.5234375 -7.80140625 28.5234375 -6.44140625 28.5234375 C-6.77140625 26.8734375 -7.10140625 25.2234375 -7.44140625 23.5234375 C-8.76140625 23.1934375 -10.08140625 22.8634375 -11.44140625 22.5234375 Z M-16.44140625 28.5234375 C-16.44140625 29.1834375 -16.44140625 29.8434375 -16.44140625 30.5234375 C-15.78140625 30.5234375 -15.12140625 30.5234375 -14.44140625 30.5234375 C-14.44140625 29.8634375 -14.44140625 29.2034375 -14.44140625 28.5234375 C-15.10140625 28.5234375 -15.76140625 28.5234375 -16.44140625 28.5234375 Z M-56.44140625 29.5234375 C-56.09430252 35.40943061 -54.32780927 38.53389978 -50.37890625 42.7109375 C-45.44140625 48.01218238 -45.44140625 48.01218238 -45.44140625 52.5234375 C-46.05886719 51.95496094 -46.67632812 51.38648437 -47.3125 50.80078125 C-52.83396546 45.7667511 -58.46739795 41.01115871 -64.44140625 36.5234375 C-65.43140625 37.0184375 -65.43140625 37.0184375 -66.44140625 37.5234375 C-65.92877125 41.52775334 -65.03706037 43.40375518 -62.09765625 46.15234375 C-61.42863281 46.79494141 -60.75960937 47.43753906 -60.0703125 48.09960938 C-59.36777344 48.75509766 -58.66523437 49.41058594 -57.94140625 50.0859375 C-56.54921254 51.392556 -55.16348792 52.70611059 -53.78515625 54.02734375 C-53.16833984 54.60299072 -52.55152344 55.1786377 -51.91601562 55.77172852 C-50.2967221 57.69530981 -49.84270917 59.06680376 -49.44140625 61.5234375 C-55.50290355 56.25772336 -61.48428896 50.90681603 -67.44140625 45.5234375 C-68.10140625 45.8534375 -68.76140625 46.1834375 -69.44140625 46.5234375 C-68.95745593 51.11686425 -67.2800693 53.22271025 -64.12890625 56.5234375 C-55.85842753 65.27237367 -55.85842753 65.27237367 -54.44140625 69.5234375 C-54.9725 69.05292969 -55.50359375 68.58242187 -56.05078125 68.09765625 C-56.7571875 67.47503906 -57.46359375 66.85242188 -58.19140625 66.2109375 C-59.23554687 65.28861328 -59.23554687 65.28861328 -60.30078125 64.34765625 C-62.29255131 62.65029016 -64.3303954 61.06865941 -66.44140625 59.5234375 C-66.04530907 65.22003512 -64.42051468 68.73541501 -60.87890625 73.0859375 C-60.42926514 73.65094971 -59.97962402 74.21596191 -59.51635742 74.7980957 C-54.29311434 81.18226487 -48.86308232 86.2166257 -40.44140625 87.5234375 C-34.08520412 87.59439988 -29.34250007 86.85463669 -24.44140625 82.5234375 C-14.94315692 72.56384463 -14.17414556 54.61921117 -14.44140625 41.5234375 C-16.84383292 41.67850743 -16.84383292 41.67850743 -19.44140625 42.5234375 C-21.18506919 44.54091119 -21.18506919 44.54091119 -22.50390625 47.0234375 C-24.94957163 51.30504559 -24.94957163 51.30504559 -27.29760742 52.34765625 C-29.44140625 52.5234375 -29.44140625 52.5234375 -31.32910156 51.27929688 C-31.96944336 50.64830078 -32.60978516 50.01730469 -33.26953125 49.3671875 C-33.98753906 48.67367187 -34.70554688 47.98015625 -35.4453125 47.265625 C-36.18652344 46.52570313 -36.92773438 45.78578125 -37.69140625 45.0234375 C-39.15361677 43.59499028 -40.61715253 42.16789834 -42.08203125 40.7421875 C-42.80068359 40.0409375 -43.51933594 39.3396875 -44.25976562 38.6171875 C-49.63361345 32.5565893 -49.63361345 32.5565893 -56.44140625 29.5234375 Z M8.92578125 38.80859375 C2.84045519 46.05682243 2.09926699 52.7364979 2.23828125 62.0703125 C2.79526041 68.07481959 4.90426723 72.33545726 8.49609375 77.0859375 C10.49418672 78.6425568 10.49418672 78.6425568 12.93359375 79.2109375 C17.19380499 78.09516789 19.20585008 75.1129709 21.55859375 71.5234375 C25.11999549 63.42934265 24.80207413 52.61862635 21.609375 44.40234375 C19.77438825 41.12119643 17.73891617 39.53547821 14.55859375 37.5234375 C10.73613982 37.11111382 10.73613982 37.11111382 8.92578125 38.80859375 Z M-108.44140625 43.5234375 C-109.70827506 48.39987696 -109.58901098 53.21152452 -109.56640625 58.2109375 C-109.57027344 59.07783203 -109.57414062 59.94472656 -109.578125 60.83789062 C-109.57683594 61.66611328 -109.57554688 62.49433594 -109.57421875 63.34765625 C-109.57309082 64.10135498 -109.57196289 64.85505371 -109.57080078 65.6315918 C-109.5573153 67.61256827 -109.5573153 67.61256827 -108.44140625 69.5234375 C-105.26653818 69.95618698 -105.26653818 69.95618698 -101.56640625 70.0859375 C-93.8867138 70.47228753 -92.23413474 70.73070901 -86.44140625 76.5234375 C-86.44140625 64.9734375 -86.44140625 53.4234375 -86.44140625 41.5234375 C-100.96567668 40.68016346 -100.96567668 40.68016346 -108.44140625 43.5234375 Z M-99.44140625 79.5234375 C-99.44140625 80.5134375 -99.44140625 81.5034375 -99.44140625 82.5234375 C-98.84972656 82.75417969 -98.25804688 82.98492187 -97.6484375 83.22265625 C-90.18697155 86.30218461 -85.32411798 90.29356048 -81.44140625 97.5234375 C-80.55147292 101.16361677 -79.94339565 104.81135796 -79.44140625 108.5234375 C-78.45140625 108.8534375 -77.46140625 109.1834375 -76.44140625 109.5234375 C-75.75621836 101.0271077 -77.81237484 95.24207884 -83.015625 88.4765625 C-87.10664168 84.01363521 -91.70182387 81.40545942 -97.44140625 79.5234375 C-98.10140625 79.5234375 -98.76140625 79.5234375 -99.44140625 79.5234375 Z M-4.62890625 86.3359375 C-6.62794633 88.48009991 -6.62794633 88.48009991 -7.44140625 91.5234375 C-6.45140625 93.0084375 -6.45140625 93.0084375 -5.44140625 94.5234375 C-4.78140625 94.5234375 -4.12140625 94.5234375 -3.44140625 94.5234375 C-3.46540535 99.81523937 -3.85204849 103.38083433 -7.56640625 107.3359375 C-8.12585938 107.85800781 -8.6853125 108.38007813 -9.26171875 108.91796875 C-10.70859004 110.49334471 -10.70859004 110.49334471 -10.12109375 112.72265625 C-9.78464844 113.61404297 -9.78464844 113.61404297 -9.44140625 114.5234375 C-3.776741 113.20607349 -1.62018802 111.19811657 1.55859375 106.5234375 C1.55859375 105.2034375 1.55859375 103.8834375 1.55859375 102.5234375 C0.56859375 102.1934375 -0.42140625 101.8634375 -1.44140625 101.5234375 C-0.56640625 93.6484375 -0.56640625 93.6484375 0.55859375 92.5234375 C2.07787413 92.45163786 3.60026857 92.43951743 5.12109375 92.4609375 C5.94738281 92.46996094 6.77367187 92.47898437 7.625 92.48828125 C8.26308594 92.49988281 8.90117187 92.51148438 9.55859375 92.5234375 C9.55859375 93.1834375 9.55859375 93.8434375 9.55859375 94.5234375 C10.54859375 94.1934375 11.53859375 93.8634375 12.55859375 93.5234375 C13.77729304 91.01896234 13.77729304 91.01896234 14.55859375 88.5234375 C13.56859375 88.5234375 12.57859375 88.5234375 11.55859375 88.5234375 C8.55859375 88.5234375 5.55859375 88.5234375 2.55859375 88.5234375 C2.22859375 87.2034375 1.89859375 85.8834375 1.55859375 84.5234375 C-2.40153013 84.09809226 -2.40153013 84.09809226 -4.62890625 86.3359375 Z M-98.44140625 87.5234375 C-98.44140625 88.5134375 -98.44140625 89.5034375 -98.44140625 90.5234375 C-96.45540288 91.8775307 -94.45323082 93.20801374 -92.44140625 94.5234375 C-88.77831582 98.28828044 -87.61592577 101.53172955 -86.44140625 106.5234375 C-85.45140625 106.5234375 -84.46140625 106.5234375 -83.44140625 106.5234375 C-83.71123908 100.04744954 -86.02808345 96.22214838 -90.44140625 91.5234375 C-94.00673697 88.49784318 -94.00673697 88.49784318 -98.44140625 87.5234375 Z M-96.44140625 95.5234375 C-95.66660889 98.51496332 -95.66660889 98.51496332 -94.44140625 101.5234375 C-93.45140625 101.8534375 -92.46140625 102.1834375 -91.44140625 102.5234375 C-92.69117381 98.87027079 -93.11239378 97.74277914 -96.44140625 95.5234375 Z M-55.11914062 100.5234375 C-55.55548828 101.1834375 -55.99183594 101.8434375 -56.44140625 102.5234375 C-58.703125 102.9140625 -58.703125 102.9140625 -61.12890625 102.7734375 C-61.93714844 102.73734375 -62.74539062 102.70125 -63.578125 102.6640625 C-64.19300781 102.61765625 -64.80789062 102.57125 -65.44140625 102.5234375 C-65.56226843 108.95599151 -65.26492489 115.14116805 -64.44140625 121.5234375 C-50.55343649 126.18048125 -35.32937601 126.18048125 -21.44140625 121.5234375 C-20.64216376 114.81550944 -20.34489775 108.27903248 -20.44140625 101.5234375 C-23.41140625 102.1834375 -26.38140625 102.8434375 -29.44140625 103.5234375 C-30.10140625 101.8734375 -30.76140625 100.2234375 -31.44140625 98.5234375 C-35.04530289 98.40742746 -38.64872092 98.33625342 -42.25390625 98.2734375 C-43.27806641 98.23992187 -44.30222656 98.20640625 -45.35742188 98.171875 C-46.83178711 98.15253906 -46.83178711 98.15253906 -48.3359375 98.1328125 C-49.24190674 98.11186523 -50.14787598 98.09091797 -51.08129883 98.06933594 C-53.61121852 98.29875677 -53.61121852 98.29875677 -55.11914062 100.5234375 Z " fill="#0B109F" transform="translate(173.44140625,72.4765625)"/>
<path d="M0 0 C2.6875 1.6875 2.6875 1.6875 4.6875 4.6875 C5.0625 7.625 5.0625 7.625 4.6875 10.6875 C2.45543569 13.53530619 1.13757001 14.53747666 -2.3125 15.6875 C-8.08144437 16.2589002 -12.28148206 15.83188622 -17.3125 12.6875 C-18.3125 11.6875 -18.3125 11.6875 -18.6875 8.4375 C-18.3125 4.6875 -18.3125 4.6875 -16 1.8125 C-10.98657072 -2.15160687 -5.88045784 -2.32999273 0 0 Z M-13.3125 5.6875 C-12.96964799 9.3784351 -12.96964799 9.3784351 -10.625 12.0625 C-7.54233524 12.89565264 -5.38089098 12.48794982 -2.3125 11.6875 C-1.6525 11.0275 -0.9925 10.3675 -0.3125 9.6875 C-0.32172702 7.14036596 -0.32172702 7.14036596 -1.3125 4.6875 C-5.93309016 1.45308689 -8.89254989 2.82050533 -13.3125 5.6875 Z " fill="#0B109F" transform="translate(137.3125,180.3125)"/>
<path d="M0 0 C1 1 1 1 1.4375 3.5625 C0.67357875 9.56473837 -3.34858253 13.388861 -7.5625 17.5 C-10.32815317 19.20194041 -11.81001892 19.44305293 -15 19 C-16 18 -16 18 -16.4375 15.4375 C-15.67357875 9.43526163 -11.65141747 5.611139 -7.4375 1.5 C-4.67184683 -0.20194041 -3.18998108 -0.44305293 0 0 Z " fill="#0B109F" transform="translate(92,82)"/>
<path d="M0 0 C5.24236435 0.2438309 8.52677475 2.19506222 12 6 C14.77724014 9.75441722 16.70452911 13.20920204 16 18 C15 19 15 19 11.9375 19.125 C6.33727959 18.30177919 3.2061813 13.26187514 0 9 C-1.36623674 6.26752652 -1.128426 4.01801098 -1 1 C-0.67 0.67 -0.34 0.34 0 0 Z " fill="#0B109F" transform="translate(169,82)"/>
<path d="M0 0 C3.45127516 1.72563758 4.89143118 2.62351235 7.3125 5.375 C7.84488281 5.96023437 8.37726563 6.54546875 8.92578125 7.1484375 C10 9 10 9 9.8828125 10.9609375 C8.79302319 13.47806148 7.38564414 15.20322696 5.5625 17.25 C4.94503906 17.95640625 4.32757813 18.6628125 3.69140625 19.390625 C2 21 2 21 0 21 C0 14.07 0 7.14 0 0 Z " fill="#0B109F" transform="translate(185,120)"/>
</svg>
