<?xml version="1.0" encoding="UTF-8"?>
<svg version="1.1" xmlns="http://www.w3.org/2000/svg" width="400" height="400">
<path d="M0 0 C9.99942693 6.1534935 16.19648793 14.38306898 21.75 24.5625 C22.27207031 25.49707031 22.79414063 26.43164062 23.33203125 27.39453125 C28.09928301 36.38815924 31.36466541 45.98741163 34.75 55.5625 C35.05550781 54.50675781 35.36101562 53.45101562 35.67578125 52.36328125 C41.78375474 32.2214841 50.99971536 10.89079697 69.75 -0.4375 C76.05583681 -2.5394456 84.74094573 -2.78435454 90.9375 -0.125 C106.95725414 9.76754048 114.63163878 27.57103937 120.75 44.5625 C121.39388672 46.34720703 121.39388672 46.34720703 122.05078125 48.16796875 C134.89570235 85.27109998 139.05378227 124.68803913 140.30761719 163.75341797 C140.37631823 165.85278235 140.4537047 167.95172695 140.53125 170.05078125 C140.57604295 171.39321185 140.62033377 172.73565932 140.6640625 174.078125 C140.7252124 175.87685059 140.7252124 175.87685059 140.78759766 177.71191406 C140.75 180.5625 140.75 180.5625 139.75 182.5625 C135.27115561 182.75831346 130.79191574 182.9427636 126.3125 183.125 C125.03310547 183.18107422 123.75371094 183.23714844 122.43554688 183.29492188 C120.61313477 183.36743164 120.61313477 183.36743164 118.75390625 183.44140625 C117.62799072 183.4885376 116.5020752 183.53566895 115.34204102 183.58422852 C112.75 183.5625 112.75 183.5625 111.75 182.5625 C111.58334702 180.86234724 111.48285169 179.15566523 111.40869141 177.44897461 C111.35826187 176.3499733 111.30783234 175.25097198 111.25587463 174.1186676 C111.20495163 172.91290573 111.15402863 171.70714386 111.1015625 170.46484375 C110.98412348 167.89760912 110.86635337 165.33038963 110.74829102 162.76318359 C110.6869347 161.3991535 110.62566685 160.03511942 110.56448364 158.67108154 C110.61555618 84.13860863 110.61555618 84.13860863 85.2421875 16.84765625 C83.4162028 15.27501498 82.12843044 14.87593657 79.75 14.5625 C76.59569108 15.14170507 76.59569108 15.14170507 73.75 16.5625 C72.67132575 18.3533768 72.67132575 18.3533768 71.75 20.5625 C71.32203125 21.38621094 70.8940625 22.20992187 70.453125 23.05859375 C48.94759855 66.58994164 50.84644909 121.1647285 48.75 168.5625 C45.1443534 170.07826659 42.44439398 170.81809523 38.51953125 170.828125 C37.55208984 170.83070313 36.58464844 170.83328125 35.58789062 170.8359375 C34.58951172 170.82820312 33.59113281 170.82046875 32.5625 170.8125 C31.55251953 170.82023438 30.54253906 170.82796875 29.50195312 170.8359375 C28.0565918 170.83207031 28.0565918 170.83207031 26.58203125 170.828125 C25.70264893 170.82586914 24.8232666 170.82361328 23.91723633 170.82128906 C21.75 170.5625 21.75 170.5625 19.75 168.5625 C19.53882019 166.03081332 19.44836533 163.60057371 19.44140625 161.06640625 C19.4184795 159.47655744 19.39518824 157.88671386 19.37158203 156.296875 C19.3624176 155.45447266 19.35325317 154.61207031 19.34381104 153.74414062 C19.10667244 133.90770506 17.80992569 114.28622471 15.75 94.5625 C15.63930176 93.47598145 15.52860352 92.38946289 15.41455078 91.27001953 C11.92505805 50.30107839 11.92505805 50.30107839 -7.25 15.5625 C-10.00049861 14.32951786 -11.37062029 14.58662406 -14.375 15.1875 C-17.9628791 16.90344218 -17.94434963 17.93628075 -19.25 21.5625 C-20.01159937 22.98415216 -20.78292231 24.40062639 -21.5625 25.8125 C-42.42092449 67.59051739 -41.0761137 126.12706071 -41.9597168 171.92749023 C-41.98590088 173.19149658 -42.01208496 174.45550293 -42.0390625 175.7578125 C-42.06540771 177.41321045 -42.06540771 177.41321045 -42.09228516 179.10205078 C-42.25 181.5625 -42.25 181.5625 -43.25 182.5625 C-45.24964982 182.65008003 -47.2523611 182.66946576 -49.25390625 182.66015625 C-50.46884766 182.65693359 -51.68378906 182.65371094 -52.93554688 182.65039062 C-54.21494141 182.64201172 -55.49433594 182.63363281 -56.8125 182.625 C-58.09576172 182.62048828 -59.37902344 182.61597656 -60.70117188 182.61132812 C-63.88416022 182.59949545 -67.06705762 182.58301068 -70.25 182.5625 C-71.78710425 179.48829149 -71.2929408 176.29792275 -71.19921875 172.93359375 C-71.1813028 172.16123886 -71.16338684 171.38888397 -71.14492798 170.59312439 C-71.08310162 168.0618293 -71.01168531 165.53096185 -70.9375 163 C-70.91255463 162.13360901 -70.88760925 161.26721802 -70.86190796 160.37457275 C-69.4456376 112.42758516 -65.40181886 52.26106889 -35.25 12.5625 C-34.73050781 11.86769531 -34.21101563 11.17289063 -33.67578125 10.45703125 C-25.28486879 0.0319582 -13.20194563 -5.74578605 0 0 Z " fill="#FCC427" transform="translate(163.25,112.4375)"/>
<path d="M0 0 C9.86409146 4.38851416 18.11645749 13.80991473 22.6640625 23.4140625 C22.3340625 24.0740625 22.0040625 24.7340625 21.6640625 25.4140625 C19.6640625 24.0390625 19.6640625 24.0390625 17.6640625 22.4140625 C17.6640625 21.7540625 17.6640625 21.0940625 17.6640625 20.4140625 C17.0040625 20.4140625 16.3440625 20.4140625 15.6640625 20.4140625 C15.1690625 19.4240625 15.1690625 19.4240625 14.6640625 18.4140625 C13.3440625 18.4140625 12.0240625 18.4140625 10.6640625 18.4140625 C9.6740625 16.4340625 9.6740625 16.4340625 8.6640625 14.4140625 C6.67914608 14.68082454 6.67914608 14.68082454 4.6640625 15.4140625 C4.1690625 16.8990625 4.1690625 16.8990625 3.6640625 18.4140625 C4.3240625 18.7440625 4.9840625 19.0740625 5.6640625 19.4140625 C5.97647705 22.12853229 6.17742842 24.75315611 6.2890625 27.4765625 C6.32773438 28.23517578 6.36640625 28.99378906 6.40625 29.77539062 C6.50079812 31.65453445 6.58353006 33.53426586 6.6640625 35.4140625 C3.90270474 31.27202586 1.71809334 26.85678255 -0.58203125 22.4453125 C-2.41014496 19.28581086 -3.80122827 17.1020356 -7.1484375 15.6015625 C-10.36560675 15.32580514 -12.43651053 16.02738004 -15.3359375 17.4140625 C-16.42103583 19.76945532 -16.42103583 19.76945532 -17.3359375 22.4140625 C-18.09753687 23.83571466 -18.86885981 25.25218889 -19.6484375 26.6640625 C-40.50686199 68.44207989 -39.1620512 126.97862321 -40.0456543 172.77905273 C-40.07183838 174.04305908 -40.09802246 175.30706543 -40.125 176.609375 C-40.15134521 178.26477295 -40.15134521 178.26477295 -40.17822266 179.95361328 C-40.3359375 182.4140625 -40.3359375 182.4140625 -41.3359375 183.4140625 C-43.33558732 183.50164253 -45.3382986 183.52102826 -47.33984375 183.51171875 C-48.55478516 183.50849609 -49.76972656 183.50527344 -51.02148438 183.50195312 C-52.30087891 183.49357422 -53.58027344 183.48519531 -54.8984375 183.4765625 C-56.18169922 183.47205078 -57.46496094 183.46753906 -58.78710938 183.46289062 C-61.97009772 183.45105795 -65.15299512 183.43457318 -68.3359375 183.4140625 C-69.8730377 180.33986209 -69.37889714 177.14947877 -69.28515625 173.78515625 C-69.25821434 172.62621605 -69.25821434 172.62621605 -69.23072815 171.44386292 C-69.16881432 168.91284887 -69.0973947 166.38225204 -69.0234375 163.8515625 C-68.99882446 162.98716553 -68.97421143 162.12276855 -68.94885254 161.23217773 C-68.22847483 136.53318629 -65.7394156 112.70868026 -61.3359375 88.4140625 C-61.0059375 88.4140625 -60.6759375 88.4140625 -60.3359375 88.4140625 C-60.30863342 89.97646282 -60.28940524 91.5390052 -60.2734375 93.1015625 C-60.26183594 93.97167969 -60.25023438 94.84179688 -60.23828125 95.73828125 C-60.3359375 98.4140625 -60.3359375 98.4140625 -60.82446289 100.71118164 C-61.37515373 103.62130015 -61.52883843 106.37624374 -61.6171875 109.3359375 C-61.65457031 110.44324219 -61.69195312 111.55054688 -61.73046875 112.69140625 C-61.80125536 115.02212107 -61.87156156 117.35285052 -61.94140625 119.68359375 C-61.97878906 120.78574219 -62.01617187 121.88789063 -62.0546875 123.0234375 C-62.10012695 124.5388916 -62.10012695 124.5388916 -62.14648438 126.08496094 C-62.3359375 128.4140625 -62.3359375 128.4140625 -63.3359375 129.4140625 C-63.62766723 132.32200458 -63.86045917 135.21396279 -64.0546875 138.12890625 C-64.11748901 139.01381241 -64.18029053 139.89871857 -64.24499512 140.81044006 C-64.44630729 143.65719625 -64.64139904 146.50433607 -64.8359375 149.3515625 C-65.03154133 152.16656731 -65.22847438 154.98147118 -65.42687988 157.79627991 C-65.55009031 159.54927227 -65.67154305 161.30238942 -65.79089355 163.0556488 C-66.19431785 168.86167315 -66.75617781 174.61646562 -67.3359375 180.4140625 C-59.0859375 180.7440625 -50.8359375 181.0740625 -42.3359375 181.4140625 C-42.34753906 178.92875 -42.35914062 176.4434375 -42.37109375 173.8828125 C-42.37894123 171.41683072 -42.38498541 168.95085044 -42.39086914 166.48486328 C-42.3958304 164.79963537 -42.40260153 163.11441159 -42.41137695 161.42919922 C-42.46071111 151.69586013 -42.27458216 142.06895061 -41.58764648 132.35693359 C-41.32223176 128.19937031 -41.1666332 124.05062562 -41.0546875 119.88671875 C-41.03566879 119.19093719 -41.01665009 118.49515564 -40.99705505 117.77828979 C-40.92189279 114.94644263 -40.85112847 112.11451218 -40.78369141 109.2824707 C-40.7323076 107.17125639 -40.67511329 105.06026214 -40.6171875 102.94921875 C-40.58689453 101.7156665 -40.55660156 100.48211426 -40.52539062 99.21118164 C-40.3359375 96.4140625 -40.3359375 96.4140625 -39.3359375 95.4140625 C-39.1709375 94.2590625 -39.0059375 93.1040625 -38.8359375 91.9140625 C-38.3359375 88.4140625 -38.3359375 88.4140625 -37.3359375 87.4140625 C-37.03891736 85.78501982 -36.79780804 84.14568619 -36.58203125 82.50390625 C-36.44990234 81.51455078 -36.31777344 80.52519531 -36.18164062 79.50585938 C-36.04693359 78.46494141 -35.91222656 77.42402344 -35.7734375 76.3515625 C-35.56557617 74.78438477 -35.56557617 74.78438477 -35.35351562 73.18554688 C-35.01054483 70.59552606 -34.67153119 68.00504781 -34.3359375 65.4140625 C-33.6759375 65.4140625 -33.0159375 65.4140625 -32.3359375 65.4140625 C-32.34753906 64.77597656 -32.35914063 64.13789063 -32.37109375 63.48046875 C-32.38011719 62.65417969 -32.38914063 61.82789063 -32.3984375 60.9765625 C-32.41003906 60.15285156 -32.42164063 59.32914063 -32.43359375 58.48046875 C-32.3359375 56.4140625 -32.3359375 56.4140625 -31.3359375 55.4140625 C-31.12697433 53.60595066 -30.96813389 51.79190218 -30.8359375 49.9765625 C-30.44586116 44.63390983 -30.44586116 44.63390983 -29.3359375 42.4140625 C-29.38472609 39.16296851 -29.53217998 35.92325656 -29.69140625 32.67578125 C-29.2608108 28.72471312 -28.18278265 27.13824287 -25.3359375 24.4140625 C-24.3459375 24.4140625 -23.3559375 24.4140625 -22.3359375 24.4140625 C-22.16578125 23.70378906 -21.995625 22.99351562 -21.8203125 22.26171875 C-21.57796875 21.34261719 -21.335625 20.42351562 -21.0859375 19.4765625 C-20.85390625 18.56003906 -20.621875 17.64351562 -20.3828125 16.69921875 C-19.3359375 14.4140625 -19.3359375 14.4140625 -17.2265625 13.59765625 C-16.60265625 13.53707031 -15.97875 13.47648437 -15.3359375 13.4140625 C-15.0059375 11.7640625 -14.6759375 10.1140625 -14.3359375 8.4140625 C-14.9959375 8.0840625 -15.6559375 7.7540625 -16.3359375 7.4140625 C-16.6659375 8.0740625 -16.9959375 8.7340625 -17.3359375 9.4140625 C-17.3359375 8.7540625 -17.3359375 8.0940625 -17.3359375 7.4140625 C-20.45884385 7.89984793 -23.33174109 8.4126637 -26.3359375 9.4140625 C-26.3359375 10.4040625 -26.3359375 11.3940625 -26.3359375 12.4140625 C-27.6559375 12.4140625 -28.9759375 12.4140625 -30.3359375 12.4140625 C-30.3359375 13.0740625 -30.3359375 13.7340625 -30.3359375 14.4140625 C-30.9959375 14.4140625 -31.6559375 14.4140625 -32.3359375 14.4140625 C-32.3359375 15.0740625 -32.3359375 15.7340625 -32.3359375 16.4140625 C-32.9959375 16.4140625 -33.6559375 16.4140625 -34.3359375 16.4140625 C-34.42875 18.05375 -34.42875 18.05375 -34.5234375 19.7265625 C-35.3359375 23.4140625 -35.3359375 23.4140625 -37.8984375 25.3515625 C-38.7028125 25.7021875 -39.5071875 26.0528125 -40.3359375 26.4140625 C-37.18845644 15.58863523 -29.16670533 6.44611295 -19.5234375 0.75390625 C-13.46880956 -1.79111505 -6.34298189 -1.59104897 0 0 Z " fill="#F8C22C" transform="translate(161.3359375,111.5859375)"/>
<path d="M0 0 C26.92205156 30.41194713 26.33716126 98.16551871 27.55761719 136.19091797 C27.62631823 138.29028235 27.7037047 140.38922695 27.78125 142.48828125 C27.82604295 143.83071185 27.87033377 145.17315932 27.9140625 146.515625 C27.9548291 147.71477539 27.9955957 148.91392578 28.03759766 150.14941406 C28 153 28 153 27 155 C22.52115561 155.19581346 18.04191574 155.3802636 13.5625 155.5625 C12.28310547 155.61857422 11.00371094 155.67464844 9.68554688 155.73242188 C7.86313477 155.80493164 7.86313477 155.80493164 6.00390625 155.87890625 C4.87799072 155.9260376 3.7520752 155.97316895 2.59204102 156.02172852 C0 156 0 156 -1 155 C-1.16665298 153.29984724 -1.26714831 151.59316523 -1.34130859 149.88647461 C-1.39173813 148.7874733 -1.44216766 147.68847198 -1.49412537 146.5561676 C-1.54504837 145.35040573 -1.59597137 144.14464386 -1.6484375 142.90234375 C-1.76587652 140.33510912 -1.88364663 137.76788963 -2.00170898 135.20068359 C-2.0630653 133.8366535 -2.12433315 132.47261942 -2.18551636 131.10858154 C-3.87258507 93.72828105 -5.58347476 56.27310133 -15.1574707 19.91625977 C-15.53778442 18.44564087 -15.53778442 18.44564087 -15.92578125 16.9453125 C-16.15692627 16.08437988 -16.38807129 15.22344727 -16.6262207 14.33642578 C-17 12 -17 12 -16 8 C-15.34 10.97 -14.68 13.94 -14 17 C-13.34 17 -12.68 17 -12 17 C-11.89042969 17.65484375 -11.78085937 18.3096875 -11.66796875 18.984375 C-10.78975589 24.03945392 -9.77286653 28.98224284 -8.4375 33.9375 C-7.37108835 38.03867514 -6.76527657 41.8968163 -6.5 46.125 C-6.26015075 49.91363914 -5.77137419 53.15344892 -4.5625 56.75 C-1.17929854 67.13178486 -0.73714616 78.19719102 -0.9855957 89.03564453 C-1.02139717 90.69004933 -1.01490743 92.34527503 -1 94 C-0.505 94.495 -0.505 94.495 0 95 C0.15990797 96.8032904 0.25171035 98.61266488 0.31640625 100.421875 C0.35838135 101.57985596 0.40035645 102.73783691 0.44360352 103.9309082 C0.48283936 105.1912085 0.5220752 106.45150879 0.5625 107.75 C0.6049585 109.03285889 0.64741699 110.31571777 0.69116211 111.63745117 C1.12123564 125.42484172 1.0910758 139.20707562 1 153 C8.92 153 16.84 153 25 153 C24.23274424 103.8189056 17.77316033 54.52531193 1.60253906 7.91235352 C0.78322544 5.31199549 0.34615472 2.70000679 0 0 Z " fill="#E7C251" transform="translate(276,140)"/>
<path d="M0 0 C1.39381461 4.18144382 -0.01161448 7.34627031 -1.1875 11.4375 C-12.560661 53.14172393 -14.87904925 97.30840705 -15.7097168 140.36499023 C-15.73590088 141.62899658 -15.76208496 142.89300293 -15.7890625 144.1953125 C-15.81540771 145.85071045 -15.81540771 145.85071045 -15.84228516 147.53955078 C-16 150 -16 150 -17 151 C-18.99964982 151.08758003 -21.0023611 151.10696576 -23.00390625 151.09765625 C-24.21884766 151.09443359 -25.43378906 151.09121094 -26.68554688 151.08789062 C-27.96494141 151.07951172 -29.24433594 151.07113281 -30.5625 151.0625 C-31.84576172 151.05798828 -33.12902344 151.05347656 -34.45117188 151.04882812 C-37.63416022 151.03699545 -40.81705762 151.02051068 -44 151 C-45.5371002 147.92579959 -45.04295964 144.73541627 -44.94921875 141.37109375 C-44.92227684 140.21215355 -44.92227684 140.21215355 -44.89479065 139.02980042 C-44.83287682 136.49878637 -44.7614572 133.96818954 -44.6875 131.4375 C-44.66288696 130.57310303 -44.63827393 129.70870605 -44.61291504 128.81811523 C-43.89253733 104.11912379 -41.4034781 80.29461776 -37 56 C-36.67 56 -36.34 56 -36 56 C-35.97269592 57.56240032 -35.95346774 59.1249427 -35.9375 60.6875 C-35.92589844 61.55761719 -35.91429688 62.42773438 -35.90234375 63.32421875 C-36 66 -36 66 -36.48852539 68.29711914 C-37.03921623 71.20723765 -37.19290093 73.96218124 -37.28125 76.921875 C-37.31863281 78.02917969 -37.35601562 79.13648438 -37.39453125 80.27734375 C-37.46531786 82.60805857 -37.53562406 84.93878802 -37.60546875 87.26953125 C-37.64285156 88.37167969 -37.68023437 89.47382813 -37.71875 90.609375 C-37.76418945 92.1248291 -37.76418945 92.1248291 -37.81054688 93.67089844 C-38 96 -38 96 -39 97 C-39.29172973 99.90794208 -39.52452167 102.79990029 -39.71875 105.71484375 C-39.78155151 106.59974991 -39.84435303 107.48465607 -39.90905762 108.39637756 C-40.11036979 111.24313375 -40.30546154 114.09027357 -40.5 116.9375 C-40.69560383 119.75250481 -40.89253688 122.56740868 -41.09094238 125.38221741 C-41.21415281 127.13520977 -41.33560555 128.88832692 -41.45495605 130.6415863 C-41.85838035 136.44761065 -42.42024031 142.20240312 -43 148 C-34.75 148.33 -26.5 148.66 -18 149 C-18.01160156 146.5146875 -18.02320312 144.029375 -18.03515625 141.46875 C-18.04300373 139.00276822 -18.04904791 136.53678794 -18.05493164 134.07080078 C-18.0598929 132.38557287 -18.06666403 130.70034909 -18.07543945 129.01513672 C-18.12477361 119.28179763 -17.93864466 109.65488811 -17.25170898 99.94287109 C-16.98629426 95.78530781 -16.8306957 91.63656312 -16.71875 87.47265625 C-16.69973129 86.77687469 -16.68071259 86.08109314 -16.66111755 85.36422729 C-16.58595529 82.53238013 -16.51519097 79.70044968 -16.44775391 76.8684082 C-16.3963701 74.75719389 -16.33917579 72.64619964 -16.28125 70.53515625 C-16.25095703 69.301604 -16.22066406 68.06805176 -16.18945312 66.79711914 C-16 64 -16 64 -15 63 C-14.835 61.845 -14.67 60.69 -14.5 59.5 C-14 56 -14 56 -13 55 C-12.70297986 53.37095732 -12.46187054 51.73162369 -12.24609375 50.08984375 C-12.11396484 49.10048828 -11.98183594 48.11113281 -11.84570312 47.09179688 C-11.71099609 46.05087891 -11.57628906 45.00996094 -11.4375 43.9375 C-11.22963867 42.37032227 -11.22963867 42.37032227 -11.01757812 40.77148438 C-10.67460733 38.18146356 -10.33559369 35.59098531 -10 33 C-9.34 33 -8.68 33 -8 33 C-8.01160156 32.36191406 -8.02320313 31.72382813 -8.03515625 31.06640625 C-8.04417969 30.24011719 -8.05320313 29.41382813 -8.0625 28.5625 C-8.07410156 27.73878906 -8.08570313 26.91507813 -8.09765625 26.06640625 C-8 24 -8 24 -7 23 C-6.71437237 20.25706804 -6.55160727 17.51391162 -6.37890625 14.76171875 C-6.00943111 12.06874012 -5.36432437 10.32542737 -4 8 C-3.34 8 -2.68 8 -2 8 C-1.855625 7.05125 -1.71125 6.1025 -1.5625 5.125 C-1 2 -1 2 0 0 Z " fill="#E3C35F" transform="translate(137,144)"/>
<path d="M0 0 C0.66 0 1.32 0 2 0 C7.76595745 19.34042553 7.76595745 19.34042553 8 29 C8.66 29 9.32 29 10 29 C11.062077 31.12415399 11.34019249 32.72840324 11.68359375 35.0703125 C11.80669922 35.885 11.92980469 36.6996875 12.05664062 37.5390625 C12.30708534 39.23951789 12.55709782 40.94003702 12.80664062 42.640625 C13.40113332 46.5710534 14.05969231 50.39872917 15.09765625 54.23828125 C15.9375628 57.73970987 16.15383207 60.49071151 16 64.0625 C15.85729294 67.38489868 15.89877376 69.71243323 17.00927734 72.8671875 C18.66763493 78.50244706 18.13109813 84.34135457 17.9765625 90.15234375 C17.95153656 91.40761368 17.92651062 92.66288361 17.90072632 93.95619202 C17.83271393 97.27229261 17.7555157 100.58791467 17.67376709 103.90368652 C17.59243401 107.29565276 17.52331205 110.68786619 17.453125 114.08007812 C17.3132721 120.72034647 17.16016318 127.36019175 17 134 C24.92 134 32.84 134 41 134 C41 133.34 41 132.68 41 132 C41.66 132 42.32 132 43 132 C42.99777939 131.35520187 42.99555878 130.71040375 42.99327087 130.04606628 C42.97118052 123.34671583 42.95607766 116.64737569 42.94506836 109.94799805 C42.94003359 107.44636617 42.93320539 104.94473724 42.92456055 102.44311523 C42.91245762 98.85139234 42.90676318 95.25970828 42.90234375 91.66796875 C42.89460182 89.98503975 42.89460182 89.98503975 42.88670349 88.26811218 C42.88662796 87.22725967 42.88655243 86.18640717 42.88647461 85.11401367 C42.884254 84.19690109 42.88203339 83.27978851 42.87974548 82.33488464 C43 80 43 80 44 77 C44.11125776 75.6277061 44.1773295 74.25138634 44.2109375 72.875 C44.25347656 71.69164062 44.25347656 71.69164062 44.296875 70.484375 C44.34895119 68.82835204 44.39322498 67.1720653 44.4296875 65.515625 C44.47609375 64.33226562 44.47609375 64.33226562 44.5234375 63.125 C44.54325684 62.40570313 44.56307617 61.68640625 44.58349609 60.9453125 C45.10705656 58.49998435 46.20629756 57.67742503 48 56 C48.06328719 62.32991278 47.83634311 68.5669856 47.37890625 74.87890625 C47.24710226 76.77904931 47.11534957 78.67919592 46.98364258 80.5793457 C46.91464752 81.55843903 46.84565247 82.53753235 46.77456665 83.54629517 C45.59256631 100.35777937 44.52030176 117.15298782 44 134 C40.44750418 135.60762309 37.66188387 136.25567831 33.76953125 136.265625 C32.80208984 136.26820313 31.83464844 136.27078125 30.83789062 136.2734375 C29.83951172 136.26570312 28.84113281 136.25796875 27.8125 136.25 C26.80251953 136.25773438 25.79253906 136.26546875 24.75195312 136.2734375 C23.78837891 136.27085937 22.82480469 136.26828125 21.83203125 136.265625 C20.95264893 136.26336914 20.0732666 136.26111328 19.16723633 136.25878906 C17 136 17 136 15 134 C14.78882019 131.46831332 14.69836533 129.03807371 14.69140625 126.50390625 C14.6684795 124.91405744 14.64518824 123.32421386 14.62158203 121.734375 C14.60783539 120.47077148 14.60783539 120.47077148 14.59381104 119.18164062 C14.35667244 99.34520506 13.05992569 79.72372471 11 60 C10.83395264 58.37022217 10.83395264 58.37022217 10.66455078 56.70751953 C8.9672288 40.55288491 5.58696473 24.82802986 2 9 C1.60448327 7.22678202 1.20982777 5.45337151 0.81640625 3.6796875 C0.54699219 2.46539062 0.27757812 1.25109375 0 0 Z " fill="#ECC243" transform="translate(168,147)"/>
<path d="M0 0 C0.33 0 0.66 0 1 0 C1.06328719 6.32991278 0.83634311 12.5669856 0.37890625 18.87890625 C0.24710226 20.77904931 0.11534957 22.67919592 -0.01635742 24.5793457 C-0.08535248 25.55843903 -0.15434753 26.53753235 -0.22543335 27.54629517 C-1.40743369 44.35777937 -2.47969824 61.15298782 -3 78 C-6.55249582 79.60762309 -9.33811613 80.25567831 -13.23046875 80.265625 C-14.68163086 80.26949219 -14.68163086 80.26949219 -16.16210938 80.2734375 C-17.16048828 80.26570313 -18.15886719 80.25796875 -19.1875 80.25 C-20.7024707 80.26160156 -20.7024707 80.26160156 -22.24804688 80.2734375 C-23.21162109 80.27085937 -24.17519531 80.26828125 -25.16796875 80.265625 C-26.04735107 80.26336914 -26.9267334 80.26111328 -27.83276367 80.25878906 C-30 80 -30 80 -32 78 C-32.17532289 75.13111419 -32.23137614 72.36007355 -32.1953125 69.4921875 C-32.1924826 68.65156769 -32.18965271 67.81094788 -32.18673706 66.94485474 C-32.1755243 64.25475954 -32.15041803 61.5649949 -32.125 58.875 C-32.1149716 57.05339022 -32.10584551 55.23177523 -32.09765625 53.41015625 C-32.07558142 48.93997642 -32.04104434 44.47004429 -32 40 C-30 42 -30 42 -29.77294922 45.53173828 C-29.77326637 47.04463331 -29.78459367 48.55755088 -29.8046875 50.0703125 C-29.8075174 50.86654022 -29.81034729 51.66276794 -29.81326294 52.48312378 C-29.8244736 55.03056763 -29.84957938 57.57766211 -29.875 60.125 C-29.88502867 61.85025535 -29.89415472 63.57551619 -29.90234375 65.30078125 C-29.92271582 69.53409762 -29.96186177 73.76665695 -30 78 C-22.08 78 -14.16 78 -6 78 C-6 77.34 -6 76.68 -6 76 C-5.34 76 -4.68 76 -4 76 C-4.00222061 75.35520187 -4.00444122 74.71040375 -4.00672913 74.04606628 C-4.02881948 67.34671583 -4.04392234 60.64737569 -4.05493164 53.94799805 C-4.05996641 51.44636617 -4.06679461 48.94473724 -4.07543945 46.44311523 C-4.08754238 42.85139234 -4.09323682 39.25970828 -4.09765625 35.66796875 C-4.10539818 33.98503975 -4.10539818 33.98503975 -4.11329651 32.26811218 C-4.11337204 31.22725967 -4.11344757 30.18640717 -4.11352539 29.11401367 C-4.115746 28.19690109 -4.11796661 27.27978851 -4.12025452 26.33488464 C-4 24 -4 24 -3 21 C-2.87757438 19.62800653 -2.79970317 18.25168325 -2.75390625 16.875 C-2.72103516 16.08609375 -2.68816406 15.2971875 -2.65429688 14.484375 C-2.59310411 12.82826454 -2.53581149 11.17200537 -2.48242188 9.515625 C-2.44826172 8.72671875 -2.41410156 7.9378125 -2.37890625 7.125 C-2.3538501 6.40570313 -2.32879395 5.68640625 -2.30297852 4.9453125 C-2 3 -2 3 0 0 Z " fill="#E3C86B" transform="translate(215,203)"/>
<path d="M0 0 C1.39381461 4.18144382 -0.01161448 7.34627031 -1.1875 11.4375 C-5.42760316 26.98552678 -8.19614692 42.51526821 -10.1875 58.5 C-10.27226593 59.18041351 -10.35703186 59.86082703 -10.44436646 60.56185913 C-11.39946642 68.30615631 -12.22255568 76.03627961 -12.74731445 83.82226562 C-13 86 -13 86 -14 87 C-14.30341948 90.02486179 -14.54832061 93.03443322 -14.75390625 96.06640625 C-14.85166603 97.42934059 -14.85166603 97.42934059 -14.95140076 98.81980896 C-15.15941105 101.73375203 -15.36101941 104.64809885 -15.5625 107.5625 C-15.70205383 109.53323292 -15.84202229 111.50393653 -15.98242188 113.47460938 C-16.32643408 118.31607868 -16.66470383 123.15791957 -17 128 C-17.33 128 -17.66 128 -18 128 C-18.10776862 118.99533344 -17.92776874 110.10861772 -17.28515625 101.12109375 C-17.00922944 96.72029503 -16.87169035 92.31732036 -16.74609375 87.91015625 C-16.72535294 87.18831146 -16.70461212 86.46646667 -16.6832428 85.7227478 C-16.57904126 82.0334172 -16.48240394 78.34400992 -16.39282227 74.65429688 C-16.3557446 73.28124694 -16.31855854 71.90819993 -16.28125 70.53515625 C-16.25095703 69.301604 -16.22066406 68.06805176 -16.18945312 66.79711914 C-16 64 -16 64 -15 63 C-14.835 61.845 -14.67 60.69 -14.5 59.5 C-14 56 -14 56 -13 55 C-12.70297986 53.37095732 -12.46187054 51.73162369 -12.24609375 50.08984375 C-12.11396484 49.10048828 -11.98183594 48.11113281 -11.84570312 47.09179688 C-11.71099609 46.05087891 -11.57628906 45.00996094 -11.4375 43.9375 C-11.29892578 42.89271484 -11.16035156 41.84792969 -11.01757812 40.77148438 C-10.67460733 38.18146356 -10.33559369 35.59098531 -10 33 C-9.34 33 -8.68 33 -8 33 C-8.01160156 32.36191406 -8.02320313 31.72382813 -8.03515625 31.06640625 C-8.04417969 30.24011719 -8.05320313 29.41382813 -8.0625 28.5625 C-8.07410156 27.73878906 -8.08570313 26.91507813 -8.09765625 26.06640625 C-8 24 -8 24 -7 23 C-6.71437237 20.25706804 -6.55160727 17.51391162 -6.37890625 14.76171875 C-6.00943111 12.06874012 -5.36432437 10.32542737 -4 8 C-3.34 8 -2.68 8 -2 8 C-1.7834375 6.576875 -1.7834375 6.576875 -1.5625 5.125 C-1 2 -1 2 0 0 Z " fill="#E9C043" transform="translate(137,144)"/>
<path d="M0 0 C0 3.86695678 -1.41909971 6.5088452 -3 10 C-3.66 10 -4.32 10 -5 10 C-4.87625 11.485 -4.87625 11.485 -4.75 13 C-4.72560313 17.01735183 -6.14086165 19.67758667 -8.046875 23.140625 C-9.1955794 25.38154015 -9.63516365 27.51911281 -10 30 C-10.33 30.66 -10.66 31.32 -11 32 C-11.66 32 -12.32 32 -13 32 C-13.103125 32.680625 -13.20625 33.36125 -13.3125 34.0625 C-14.1537532 37.65694548 -15.29769664 40.72148982 -17 44 C-19.0625 45.0625 -19.0625 45.0625 -21 45 C-23.57146057 42.42853943 -23.80117997 40.3949583 -24.625 36.875 C-24.88539063 35.77929688 -25.14578125 34.68359375 -25.4140625 33.5546875 C-25.60742188 32.71164063 -25.80078125 31.86859375 -26 31 C-26.33 31.66 -26.66 32.32 -27 33 C-27.66 33 -28.32 33 -29 33 C-29.12117187 31.87980469 -29.24234375 30.75960937 -29.3671875 29.60546875 C-29.53603267 28.13276364 -29.70532697 26.66010996 -29.875 25.1875 C-29.95363281 24.44951172 -30.03226563 23.71152344 -30.11328125 22.95117188 C-30.54460286 19.28493819 -30.9196783 17.12048255 -33 14 C-32.625 11.8125 -32.625 11.8125 -32 10 C-26.57369218 19.95816929 -22.77179063 30.33185846 -19 41 C-18.69449219 39.94425781 -18.38898438 38.88851562 -18.07421875 37.80078125 C-14.31159762 25.42090901 -9.32528132 9.32528132 0 0 Z " fill="#EAC44F" transform="translate(217,127)"/>
<path d="M0 0 C9.76602198 5.97278168 17.00477488 15.46493088 21.8125 25.6875 C21.8125 26.3475 21.8125 27.0075 21.8125 27.6875 C21.1525 27.6875 20.4925 27.6875 19.8125 27.6875 C18.2265625 25.640625 18.2265625 25.640625 16.4375 22.9375 C14.14007525 19.47618165 11.83118014 16.54468697 8.8125 13.6875 C8.1525 13.0275 7.4925 12.3675 6.8125 11.6875 C6.8125 11.0275 6.8125 10.3675 6.8125 9.6875 C1.50168608 5.50782048 -5.34058805 1.18317975 -12.25 1.8125 C-15.93319714 2.45491811 -18.91978974 3.86366172 -22.1875 5.6875 C-23.1775 6.0175 -24.1675 6.3475 -25.1875 6.6875 C-25.5175 7.6775 -25.8475 8.6675 -26.1875 9.6875 C-27.2703125 9.81125 -27.2703125 9.81125 -28.375 9.9375 C-31.74063254 10.83500201 -33.60362816 12.3989278 -36.1875 14.6875 C-33.27278809 8.09259627 -27.18666593 2.2345616 -20.5859375 -0.6875 C-14.10924535 -2.37523737 -6.26134462 -2.62072775 0 0 Z " fill="#EEC54F" transform="translate(254.1875,112.3125)"/>
<path d="M0 0 C3.8425303 0.72047443 5.45767292 1.57152696 8 4.5625 C8.71730941 7.3854596 8.71730941 9.7395404 8 12.5625 C5.45767292 15.55347304 3.8425303 16.40452557 0 17.125 C-4.10389613 16.35551948 -5.53959272 14.89128632 -8 11.5625 C-8.625 8.5625 -8.625 8.5625 -8 5.5625 C-5.53959272 2.23371368 -4.10389613 0.76948052 0 0 Z " fill="#D8CC75" transform="translate(313,278.4375)"/>
<path d="M0 0 C1.8871875 0.0309375 1.8871875 0.0309375 3.8125 0.0625 C3.8125 1.0525 3.8125 2.0425 3.8125 3.0625 C2.1728125 3.2790625 2.1728125 3.2790625 0.5 3.5 C-3.11872987 3.94538104 -3.11872987 3.94538104 -6.1875 5.0625 C-7.28088945 6.8354199 -7.28088945 6.8354199 -8.1875 9.0625 C-8.61546875 9.88621094 -9.0434375 10.70992187 -9.484375 11.55859375 C-19.77081302 32.38033522 -23.51639944 56.18241497 -26.1875 79.0625 C-26.5175 79.0625 -26.8475 79.0625 -27.1875 79.0625 C-27.5481193 58.70754392 -27.5481193 58.70754392 -25.2109375 54.1640625 C-23.73900826 51.14155132 -23.56762564 48.20449333 -23.1875 44.875 C-22.08464371 35.85912271 -20.2115242 27.61790515 -17.1875 19.0625 C-16.96191406 18.34707031 -16.73632812 17.63164062 -16.50390625 16.89453125 C-14.94565477 12.20216945 -13.11193446 9.28254879 -9.1875 6.0625 C-8.5275 6.0625 -7.8675 6.0625 -7.1875 6.0625 C-7.1875 4.4125 -7.1875 2.7625 -7.1875 1.0625 C-4.43671116 0.14557039 -2.82801087 -0.04636083 0 0 Z " fill="#E4C458" transform="translate(243.1875,123.9375)"/>
<path d="M0 0 C0.33 0 0.66 0 1 0 C1.02730408 1.56240032 1.04653226 3.1249427 1.0625 4.6875 C1.07410156 5.55761719 1.08570312 6.42773438 1.09765625 7.32421875 C1 10 1 10 0.51147461 12.29711914 C-0.03921623 15.20723765 -0.19290093 17.96218124 -0.28125 20.921875 C-0.31863281 22.02917969 -0.35601562 23.13648438 -0.39453125 24.27734375 C-0.46531786 26.60805857 -0.53562406 28.93878802 -0.60546875 31.26953125 C-0.64285156 32.37167969 -0.68023437 33.47382813 -0.71875 34.609375 C-0.76418945 36.1248291 -0.76418945 36.1248291 -0.81054688 37.67089844 C-1 40 -1 40 -2 41 C-2.30341948 44.02486179 -2.54832061 47.03443322 -2.75390625 50.06640625 C-2.85166603 51.42934059 -2.85166603 51.42934059 -2.95140076 52.81980896 C-3.15941105 55.73375203 -3.36101941 58.64809885 -3.5625 61.5625 C-3.70205383 63.53323292 -3.84202229 65.50393653 -3.98242188 67.47460938 C-4.32643408 72.31607868 -4.66470383 77.15791957 -5 82 C-5.33 82 -5.66 82 -6 82 C-6.05039966 76.79371465 -6.0861781 71.58757906 -6.10986328 66.38110352 C-6.11976341 64.61935953 -6.13328696 62.85763123 -6.15087891 61.09594727 C-6.31639162 44.06274142 -4.83800024 27.59186062 -1.875 10.8125 C-1.69324219 9.75353516 -1.51148437 8.69457031 -1.32421875 7.60351562 C-0.88825001 5.06801324 -0.44693163 2.53358838 0 0 Z " fill="#F0C341" transform="translate(100,200)"/>
<path d="M0 0 C0.66 -0.33 1.32 -0.66 2 -1 C1.8125 1.375 1.8125 1.375 1 4 C-1.5625 5.3125 -1.5625 5.3125 -4 6 C-2.8553125 7.5159375 -2.8553125 7.5159375 -1.6875 9.0625 C0.7924019 12.53436265 2.43566184 16.01804831 4 20 C4.556875 21.19625 5.11375 22.3925 5.6875 23.625 C6.90793937 26.76327266 7.30066346 28.69270192 7 32 C4.57648317 29.57648317 3.90815126 27.44675445 2.6875 24.25 C1.20119704 20.55193669 -0.12662602 17.46056564 -2.8125 14.5 C-5 12 -5 12 -5 8 C-6.65 8 -8.3 8 -10 8 C-10.625 5.6875 -10.625 5.6875 -11 3 C-10.34 2.01 -9.68 1.02 -9 0 C-11.31 0.33 -13.62 0.66 -16 1 C-16 0.34 -16 -0.32 -16 -1 C-9.75973798 -3.52582034 -5.88178598 -2.94089299 0 0 Z " fill="#FAC329" transform="translate(252,116)"/>
<path d="M0 0 C0.61328125 1.77734375 0.61328125 1.77734375 1 4 C0.0342125 5.89827198 -0.93837507 7.79362897 -1.95703125 9.6640625 C-3.1228658 12.27518257 -3.56904235 14.61452971 -4 17.4375 C-4.81970954 22.77306389 -6.5620319 27.20690737 -9 32 C-9.66 32 -10.32 32 -11 32 C-11.12632813 32.95519531 -11.25265625 33.91039062 -11.3828125 34.89453125 C-12.04733712 39.52638441 -12.94176429 44.10324673 -13.875 48.6875 C-14.03613281 49.52861328 -14.19726562 50.36972656 -14.36328125 51.23632812 C-14.52957031 52.04908203 -14.69585937 52.86183594 -14.8671875 53.69921875 C-15.01269043 54.42971436 -15.15819336 55.16020996 -15.30810547 55.9128418 C-16.12208024 58.36826533 -17.36218316 60.01609852 -19 62 C-18.56457635 53.92822201 -17.06983928 46.56149427 -14.8125 38.8125 C-14.50006348 37.72187256 -14.18762695 36.63124512 -13.86572266 35.50756836 C-10.28008241 23.20862241 -6.1349012 11.29256151 0 0 Z " fill="#ECD274" transform="translate(120,138)"/>
<path d="M0 0 C0.66 0 1.32 0 2 0 C7.76595745 19.34042553 7.76595745 19.34042553 8 29 C8.66 29 9.32 29 10 29 C11.85535222 32.71070444 11.6973329 37.09749296 12.0625 41.1875 C12.15192871 42.17314941 12.24135742 43.15879883 12.33349609 44.17431641 C13.01410113 52.1432291 13.22412621 60.0061652 13 68 C12.67 68 12.34 68 12 68 C11.91024902 67.20754883 11.82049805 66.41509766 11.72802734 65.59863281 C9.51472363 46.43136756 6.35022419 27.81680185 2 9 C1.32741853 6.00127605 0.66333198 3.00078753 0 0 Z " fill="#E6C55E" transform="translate(168,147)"/>
<path d="M0 0 C1.39369345 4.18108034 -0.01094769 7.34662352 -1.1875 11.4375 C-5.93501702 28.75187653 -8.78366911 46.19785833 -11 64 C-11.33 64 -11.66 64 -12 64 C-12.24965165 53.445283 -11.67901457 43.43387625 -10 33 C-9.34 33 -8.68 33 -8 33 C-8.01160156 32.36191406 -8.02320313 31.72382813 -8.03515625 31.06640625 C-8.04869141 29.82697266 -8.04869141 29.82697266 -8.0625 28.5625 C-8.07410156 27.73878906 -8.08570313 26.91507813 -8.09765625 26.06640625 C-8 24 -8 24 -7 23 C-6.71437237 20.25706804 -6.55160727 17.51391162 -6.37890625 14.76171875 C-6.00943111 12.06874012 -5.36432437 10.32542737 -4 8 C-3.34 8 -2.68 8 -2 8 C-1.7834375 6.576875 -1.7834375 6.576875 -1.5625 5.125 C-1 2 -1 2 0 0 Z " fill="#E6C45F" transform="translate(137,144)"/>
<path d="M0 0 C2.12508244 3.18762365 2.5020163 5.26512223 3 9 C3.66 9 4.32 9 5 9 C5.10957031 9.65484375 5.21914063 10.3096875 5.33203125 10.984375 C6.21024411 16.03945392 7.22713347 20.98224284 8.5625 25.9375 C9.92181811 31.16301938 10.49229879 36.21742093 10.7890625 41.6015625 C10.85319119 44.01232697 10.85319119 44.01232697 12 46 C13.43409356 55.91472088 13.09989107 66.01089342 13 76 C12.67 76 12.34 76 12 76 C11.85304688 74.17855469 11.85304688 74.17855469 11.703125 72.3203125 C9.960907 51.87558684 7.01488933 31.81347635 1.93066406 11.91894531 C1.68026367 10.93764648 1.42986328 9.95634766 1.171875 8.9453125 C0.9459668 8.08437988 0.72005859 7.22344727 0.48730469 6.33642578 C0 4 0 4 0 0 Z " fill="#E6CB65" transform="translate(259,148)"/>
<path d="M0 0 C0.33 0 0.66 0 1 0 C1.33 10.23 1.66 20.46 2 31 C8.93 31 15.86 31 23 31 C22.95875 28.669375 22.9175 26.33875 22.875 23.9375 C22.77774395 18.4425333 23.2958322 14.15946865 25 9 C25.33 9 25.66 9 26 9 C26 16.26 26 23.52 26 31 C25.34 31 24.68 31 24 31 C24 31.66 24 32.32 24 33 C16.08 33 8.16 33 0 33 C0 22.11 0 11.22 0 0 Z " fill="#EEBF38" transform="translate(185,248)"/>
<path d="M0 0 C0.33 0 0.66 0 1 0 C1.12044407 7.52373955 0.65220419 14.93863753 0.0625 22.4375 C-0.06801758 24.21157227 -0.06801758 24.21157227 -0.20117188 26.02148438 C-0.28818359 27.14748047 -0.37519531 28.27347656 -0.46484375 29.43359375 C-0.543396 30.45509521 -0.62194824 31.47659668 -0.70288086 32.52905273 C-1 35 -1 35 -2 37 C-2.2322646 39.71262116 -2.41936235 42.40773126 -2.5625 45.125 C-2.60568359 45.87910156 -2.64886719 46.63320312 -2.69335938 47.41015625 C-2.7994832 49.27321888 -2.90025001 51.13658524 -3 53 C-3.33 53 -3.66 53 -4 53 C-4.0247345 48.92489562 -4.04287637 44.84982036 -4.05493164 40.7746582 C-4.05995777 39.38858275 -4.06677966 38.00251259 -4.07543945 36.61645508 C-4.08758018 34.62323285 -4.09271021 32.62997181 -4.09765625 30.63671875 C-4.10289307 29.43748779 -4.10812988 28.23825684 -4.11352539 27.00268555 C-4 24 -4 24 -3 21 C-2.87757438 19.62800653 -2.79970317 18.25168325 -2.75390625 16.875 C-2.72103516 16.08609375 -2.68816406 15.2971875 -2.65429688 14.484375 C-2.59310411 12.82826454 -2.53581149 11.17200537 -2.48242188 9.515625 C-2.44826172 8.72671875 -2.41410156 7.9378125 -2.37890625 7.125 C-2.3538501 6.40570313 -2.32879395 5.68640625 -2.30297852 4.9453125 C-2 3 -2 3 0 0 Z " fill="#EAC050" transform="translate(215,203)"/>
<path d="M0 0 C0.99 0.66 1.98 1.32 3 2 C1.87851563 1.96519531 1.87851563 1.96519531 0.734375 1.9296875 C-0.25046875 1.91164063 -1.2353125 1.89359375 -2.25 1.875 C-3.22453125 1.85179688 -4.1990625 1.82859375 -5.203125 1.8046875 C-8.07523781 2.00525404 -9.55775952 2.54715332 -12 4 C-14.99398428 5.527543 -17.80925743 6.93641914 -21 8 C-21.33 8.99 -21.66 9.98 -22 11 C-23.0828125 11.12375 -23.0828125 11.12375 -24.1875 11.25 C-27.55313254 12.14750201 -29.41612816 13.7114278 -32 16 C-29.07989923 9.39290332 -23.00332404 3.58782681 -16.41796875 0.6171875 C-11.08711264 -0.74351567 -5.43999677 -0.59445962 0 0 Z " fill="#ECC961" transform="translate(250,111)"/>
<path d="M0 0 C0.33 0 0.66 0 1 0 C1.17540732 6.92800896 0.69882722 13.53268471 -0.3125 20.3828125 C-0.44567627 21.32309296 -0.57885254 22.26337341 -0.71606445 23.23214722 C-1.1375515 26.19740245 -1.56859952 29.16117255 -2 32.125 C-2.28969929 34.15095071 -2.57876763 36.17699175 -2.8671875 38.203125 C-3.5708424 43.13648991 -4.28306766 48.06854786 -5 53 C-5.33 53 -5.66 53 -6 53 C-6.58419421 35.18207668 -3.0818317 17.47044188 0 0 Z " fill="#EAD075" transform="translate(100,200)"/>
<path d="M0 0 C4.57539815 0.37503264 6.27022827 1.4349853 9.8125 4.3125 C11.74609375 7.625 11.74609375 7.625 13.25 11.3125 C13.51748047 11.92867187 13.78496094 12.54484375 14.06054688 13.1796875 C15.50594921 16.69695898 15.94203554 18.71366745 14.8125 22.3125 C14.26980469 21.19230469 13.72710937 20.07210937 13.16796875 18.91796875 C12.44563338 17.44515508 11.72295938 15.97250746 11 14.5 C10.64357422 13.76201172 10.28714844 13.02402344 9.91992188 12.26367188 C9.56865234 11.55146484 9.21738281 10.83925781 8.85546875 10.10546875 C8.37630005 9.12356567 8.37630005 9.12356567 7.88745117 8.12182617 C6.35173812 5.53695917 4.75824164 3.73645315 2 2.5 C-1.21716925 2.22424264 -3.28807303 2.92581754 -6.1875 4.3125 C-7.62673199 6.82245496 -7.62673199 6.82245496 -8.1875 9.3125 C-8.5175 8.3225 -8.8475 7.3325 -9.1875 6.3125 C-3.1875 0.3125 -3.1875 0.3125 0 0 Z " fill="#ECD170" transform="translate(152.1875,124.6875)"/>
<path d="M0 0 C0 0.66 0 1.32 0 2 C-1.86328125 3.33203125 -1.86328125 3.33203125 -4.3125 4.8125 C-7.99700535 7.16296031 -10.01532946 9.03065892 -12 13 C-12.66 13 -13.32 13 -14 13 C-14 13.66 -14 14.32 -14 15 C-14.66 15 -15.32 15 -16 15 C-16.061875 16.093125 -16.12375 17.18625 -16.1875 18.3125 C-17 22 -17 22 -19.5625 23.9375 C-20.366875 24.288125 -21.17125 24.63875 -22 25 C-19.11329546 15.07148591 -12.20121571 7.12203426 -4 1 C-2 0 -2 0 0 0 Z " fill="#EDD675" transform="translate(143,113)"/>
<path d="M0 0 C10.63519421 0.2057726 15.48082851 4.12244797 23.2734375 11.05859375 C25.4276298 13.43301017 26.40247461 15.34520936 27.375 18.375 C26.715 18.375 26.055 18.375 25.375 18.375 C24.900625 17.735625 24.42625 17.09625 23.9375 16.4375 C22.4658635 14.09127037 22.4658635 14.09127037 19.375 13.375 C19.148125 12.6325 18.92125 11.89 18.6875 11.125 C16.72858645 7.02060971 13.33309914 5.41283322 9.375 3.375 C5.75632441 2.1687748 2.44993749 2.26683082 -1.3125 2.3125 C-2.01439453 2.31701172 -2.71628906 2.32152344 -3.43945312 2.32617188 C-5.16800538 2.33793073 -6.89651365 2.35586546 -8.625 2.375 C-5.81406338 -0.43593662 -3.9236708 0.04200932 0 0 Z " fill="#ECC875" transform="translate(151.625,110.625)"/>
<path d="M0 0 C3.56234868 4.41294512 5.25291035 9.24337474 7.25 14.5 C7.81460937 15.92505859 7.81460937 15.92505859 8.390625 17.37890625 C8.74125 18.29542969 9.091875 19.21195313 9.453125 20.15625 C9.77442383 20.98962891 10.09572266 21.82300781 10.42675781 22.68164062 C11.05291871 25.21401877 10.85529695 26.56709313 10 29 C9.67 27.68 9.34 26.36 9 25 C8.34 25 7.68 25 7 25 C6.81824219 24.38253906 6.63648438 23.76507813 6.44921875 23.12890625 C5.16628712 18.80641351 3.84876459 14.51157544 2.375 10.25 C1.22389428 6.85695015 0.45705842 3.56505567 0 0 Z " fill="#E4C65E" transform="translate(276,140)"/>
<path d="M0 0 C0.61328125 1.77734375 0.61328125 1.77734375 1 4 C0.0342125 5.89827198 -0.93837507 7.79362897 -1.95703125 9.6640625 C-3.1228658 12.27518257 -3.56904235 14.61452971 -4 17.4375 C-4.81970954 22.77306389 -6.5620319 27.20690737 -9 32 C-9.33 32 -9.66 32 -10 32 C-9.24861878 25.61325967 -9.24861878 25.61325967 -8.0625 22.6875 C-7.05785053 20.14632782 -6.63036886 17.99478123 -6.1875 15.3125 C-5.14239144 9.66211634 -2.78039704 4.98773514 0 0 Z " fill="#EFC23E" transform="translate(120,138)"/>
<path d="M0 0 C1.8557596 3.13159433 2.4393451 5.36695396 2 9 C0.7578125 11.23828125 0.7578125 11.23828125 -0.875 13.3125 C-1.40867187 14.00988281 -1.94234375 14.70726562 -2.4921875 15.42578125 C-3.23855469 16.20501953 -3.23855469 16.20501953 -4 17 C-4.66 17 -5.32 17 -6 17 C-5.49487476 10.77012202 -2.67395877 5.54525767 0 0 Z " fill="#F6C234" transform="translate(122,137)"/>
<path d="M0 0 C0.721875 0.268125 1.44375 0.53625 2.1875 0.8125 C2.5175 2.1325 2.8475 3.4525 3.1875 4.8125 C0.85416667 4.8125 -1.47916667 4.8125 -3.8125 4.8125 C-2.8225 5.4725 -1.8325 6.1325 -0.8125 6.8125 C-1.1425 7.4725 -1.4725 8.1325 -1.8125 8.8125 C-2.4725 8.4825 -3.1325 8.1525 -3.8125 7.8125 C-3.4825 8.8025 -3.1525 9.7925 -2.8125 10.8125 C-3.8025 10.4825 -4.7925 10.1525 -5.8125 9.8125 C-7 7.25 -7 7.25 -7.8125 4.8125 C-3.50480769 -0.23365385 -3.50480769 -0.23365385 0 0 Z " fill="#F5DE85" transform="translate(314.8125,281.1875)"/>
<path d="M0 0 C-1.1446875 0.9590625 -1.1446875 0.9590625 -2.3125 1.9375 C-5.28674408 4.86985332 -6.15935469 7.96600178 -7.30859375 11.90625 C-8.11534758 14.34930116 -9.26833864 16.10341851 -11 18 C-10.40692016 13.15651461 -9.40945399 8.66881636 -8 4 C-7.65864073 2.66869885 -7.32074044 1.33641852 -7 0 C-3.98968256 -0.93423645 -3.13349732 -1.04449911 0 0 Z " fill="#F1C237" transform="translate(149,126)"/>
<path d="M0 0 C1.8871875 0.0309375 1.8871875 0.0309375 3.8125 0.0625 C3.8125 1.0525 3.8125 2.0425 3.8125 3.0625 C2.1728125 3.2790625 2.1728125 3.2790625 0.5 3.5 C-3.11872987 3.94538104 -3.11872987 3.94538104 -6.1875 5.0625 C-7.23771103 6.91221696 -7.23771103 6.91221696 -8.1875 9.0625 C-9.16331759 10.41363205 -10.15779741 11.75196944 -11.1875 13.0625 C-10.8575 11.0825 -10.5275 9.1025 -10.1875 7.0625 C-9.1975 6.7325 -8.2075 6.4025 -7.1875 6.0625 C-7.1875 4.4125 -7.1875 2.7625 -7.1875 1.0625 C-4.43671116 0.14557039 -2.82801087 -0.04636083 0 0 Z " fill="#EEC454" transform="translate(243.1875,123.9375)"/>
<path d="M0 0 C0.66 0 1.32 0 2 0 C1.74337755 1.44010481 1.46909179 2.8770687 1.1875 4.3125 C1.03667969 5.11300781 0.88585937 5.91351563 0.73046875 6.73828125 C-0.09044438 9.28003902 -1.10404104 10.18303933 -3 12 C-3.74386068 14.30988315 -4.42190703 16.64315944 -5 19 C-5.33 19 -5.66 19 -6 19 C-5.36979363 11.94168865 -3.96715211 5.95072817 0 0 Z " fill="#EBBF4A" transform="translate(231,132)"/>
<path d="M0 0 C0.99 0 1.98 0 3 0 C3.66 1.32 4.32 2.64 5 4 C3.3125 6.0625 3.3125 6.0625 1 8 C-1.75 7.75 -1.75 7.75 -4 7 C-4 5 -4 5 -3 4 C-3.33 3.34 -3.66 2.68 -4 2 C-2.68 2 -1.36 2 0 2 C0 1.34 0 0.68 0 0 Z " fill="#E0C65E" transform="translate(315,284)"/>
<path d="M0 0 C1.9375 0.8125 1.9375 0.8125 4 2 C4.33 2.99 4.66 3.98 5 5 C5.99 4.67 6.98 4.34 8 4 C11.22265625 9.2734375 11.22265625 9.2734375 12 11 C11.67 11.66 11.34 12.32 11 13 C9 11.625 9 11.625 7 10 C7 9.34 7 8.68 7 8 C6.34 8 5.68 8 5 8 C4.67 7.34 4.34 6.68 4 6 C2.68 6 1.36 6 0 6 C0 4.02 0 2.04 0 0 Z " fill="#EDC545" transform="translate(172,124)"/>
<path d="M0 0 C1.31872319 3.95616957 0.39499917 6.01739418 -0.75 10 C-1.09546875 11.2375 -1.4409375 12.475 -1.796875 13.75 C-2.89112794 16.70590404 -3.56638822 18.09786665 -6 20 C-6.28571429 11.42857143 -6.28571429 11.42857143 -4 8 C-3.34 8 -2.68 8 -2 8 C-1.7834375 6.576875 -1.7834375 6.576875 -1.5625 5.125 C-1 2 -1 2 0 0 Z " fill="#EAC452" transform="translate(137,144)"/>
<path d="M0 0 C5.78693752 2.4550644 8.94659409 7.55801357 11.375 13.1875 C11.97761416 15.89926373 12.1627568 18.2331344 12 21 C9.58976311 18.58976311 8.91087749 16.48849954 7.6875 13.3125 C5.64431297 8.25926066 3.38394073 4.25409691 0 0 Z " fill="#E9D069" transform="translate(247,127)"/>
<path d="M0 0 C-0.86625 0.61875 -0.86625 0.61875 -1.75 1.25 C-6.52495525 4.85692516 -6.52495525 4.85692516 -8.75 10.25 C-8.8325 11.1575 -8.915 12.065 -9 13 C-11 11 -11 11 -11.4375 8.1875 C-11 5 -11 5 -8.875 2.125 C-5.56501812 -0.32150834 -4.01686987 -0.46707789 0 0 Z " fill="#DECD81" transform="translate(316,279)"/>
<path d="M0 0 C4.07706447 2.91520672 6.35753051 5.77130683 8.8125 10.125 C9.41707031 11.17945313 10.02164062 12.23390625 10.64453125 13.3203125 C12 16 12 16 12 18 C11.34 18 10.68 18 10 18 C6.4303652 13.51507423 4.10257977 9.30651086 2 4 C1.34711373 2.65986503 0.68774405 1.32258472 0 0 Z " fill="#E7C76A" transform="translate(264,122)"/>
<path d="M0 0 C0.66 0 1.32 0 2 0 C2 2.97 2 5.94 2 9 C0.02 9.99 0.02 9.99 -2 11 C-1 3.57142857 -1 3.57142857 0 0 Z " fill="#F3C235" transform="translate(109,170)"/>
<path d="M0 0 C0.99 0 1.98 0 3 0 C3.66 4.29 4.32 8.58 5 13 C4.34 13 3.68 13 3 13 C2.49242138 11.58603098 1.99425075 10.16868271 1.5 8.75 C1.08234375 7.56664062 1.08234375 7.56664062 0.65625 6.359375 C0 4 0 4 0 0 Z " fill="#EDC339" transform="translate(259,144)"/>
<path d="M0 0 C0.68359375 1.640625 0.68359375 1.640625 1 4 C-0.21484375 6.796875 -0.21484375 6.796875 -1.9375 9.75 C-2.50339844 10.73484375 -3.06929688 11.7196875 -3.65234375 12.734375 C-4.09707031 13.48203125 -4.54179688 14.2296875 -5 15 C-6 12 -6 12 -4.78515625 9.08203125 C-4.21667969 8.00308594 -3.64820312 6.92414063 -3.0625 5.8125 C-2.49660156 4.72582031 -1.93070312 3.63914063 -1.34765625 2.51953125 C-0.90292969 1.68808594 -0.45820312 0.85664063 0 0 Z " fill="#E7D073" transform="translate(120,138)"/>
<path d="M0 0 C9.41002278 -0.18451025 9.41002278 -0.18451025 14 1 C13.34 2.32 12.68 3.64 12 5 C11.13375 4.525625 10.2675 4.05125 9.375 3.5625 C6.14612626 2.06765105 3.50966174 1.41781687 0 1 C0 0.67 0 0.34 0 0 Z " fill="#F1C03F" transform="translate(240,112)"/>
<path d="M0 0 C3.79379058 1.49041773 5.68343758 3.69062512 8 7 C8 7.66 8 8.32 8 9 C7.34 9 6.68 9 6 9 C5.525625 8.360625 5.05125 7.72125 4.5625 7.0625 C3.0908635 4.71627037 3.0908635 4.71627037 0 4 C0 2.68 0 1.36 0 0 Z " fill="#EACC61" transform="translate(171,120)"/>
<path d="M0 0 C0.33 0 0.66 0 1 0 C1 2.64 1 5.28 1 8 C-0.9375 8.5625 -0.9375 8.5625 -3 9 C-4 8 -4 8 -4.0625 5.4375 C-4.041875 4.633125 -4.02125 3.82875 -4 3 C-3.01 4.485 -3.01 4.485 -2 6 C-1.34 4.02 -0.68 2.04 0 0 Z " fill="#ECC55F" transform="translate(200,162)"/>
<path d="M0 0 C0.66 0.33 1.32 0.66 2 1 C2 1.99 2 2.98 2 4 C0.68212715 5.02028865 -0.65210653 6.01971384 -2 7 C-2.33 7.99 -2.66 8.98 -3 10 C-3.66 9.67 -4.32 9.34 -5 9 C-4.67 7.35 -4.34 5.7 -4 4 C-3.34 4 -2.68 4 -2 4 C-2 3.34 -2 2.68 -2 2 C-1.34 2 -0.68 2 0 2 C0 1.34 0 0.68 0 0 Z " fill="#F4C338" transform="translate(131,124)"/>
<path d="M0 0 C0.33 0 0.66 0 1 0 C1 4.62 1 9.24 1 14 C0.67 14 0.34 14 0 14 C-0.144375 13.2575 -0.28875 12.515 -0.4375 11.75 C-0.91855534 9.09708653 -0.91855534 9.09708653 -1.6875 7 C-2.12029274 4.23012648 -1.17531853 2.48890983 0 0 Z " fill="#F5BF30" transform="translate(212,210)"/>
<path d="M0 0 C3.77545388 1.09068668 6.47043472 1.9083091 9 5 C8.67 5.66 8.34 6.32 8 7 C7.484375 6.525625 6.96875 6.05125 6.4375 5.5625 C3.33217325 3.57190593 0.63367496 3.34939182 -3 3 C-2.01 2.01 -1.02 1.02 0 0 Z " fill="#F5C53A" transform="translate(152,122)"/>
<path d="M0 0 C0.99 0.495 0.99 0.495 2 1 C3.28571429 7.42857143 3.28571429 7.42857143 2 10 C1.34 10 0.68 10 0 10 C0 6.7 0 3.4 0 0 Z " fill="#F2C134" transform="translate(269,182)"/>
<path d="M0 0 C0.33 0.99 0.66 1.98 1 3 C-0.65 4.65 -2.3 6.3 -4 8 C-4.33 7.34 -4.66 6.68 -5 6 C-4.0625 3.875 -4.0625 3.875 -3 2 C-2.01 2 -1.02 2 0 2 C0 1.34 0 0.68 0 0 Z " fill="#E8CA59" transform="translate(126,130)"/>
<path d="M0 0 C0 0.66 0 1.32 0 2 C-1.6396875 2.2165625 -1.6396875 2.2165625 -3.3125 2.4375 C-6.93122987 2.88288104 -6.93122987 2.88288104 -10 4 C-10 3.01 -10 2.02 -10 1 C-6.52674819 -0.1577506 -3.63932552 -0.06866652 0 0 Z " fill="#F1D56C" transform="translate(247,125)"/>
<path d="M0 0 C0.66 0 1.32 0 2 0 C1.67 1.65 1.34 3.3 1 5 C0.34 5 -0.32 5 -1 5 C-1.33 5.99 -1.66 6.98 -2 8 C-2.6875 6.25 -2.6875 6.25 -3 4 C-1.6875 1.75 -1.6875 1.75 0 0 Z " fill="#F7BE3C" transform="translate(231,132)"/>
<path d="M0 0 C0.66 0 1.32 0 2 0 C0.84414715 3.91211733 -0.35534962 6.8745041 -3 10 C-2.25 3.375 -2.25 3.375 0 0 Z " fill="#E9CB62" transform="translate(141,134)"/>
<path d="M0 0 C0.66 0 1.32 0 2 0 C2 2.64 2 5.28 2 8 C1.01 7.67 0.02 7.34 -1 7 C-0.67 4.69 -0.34 2.38 0 0 Z " fill="#F8C233" transform="translate(299,264)"/>
<path d="M0 0 C0 0.66 0 1.32 0 2 C-1.75 3.2890625 -1.75 3.2890625 -4 4.625 C-4.7425 5.07101563 -5.485 5.51703125 -6.25 5.9765625 C-6.8275 6.31429687 -7.405 6.65203125 -8 7 C-8 6.01 -8 5.02 -8 4 C-2.74285714 0 -2.74285714 0 0 0 Z " fill="#ECCB67" transform="translate(143,113)"/>
<path d="M0 0 C0.99 0 1.98 0 3 0 C2.67 2.97 2.34 5.94 2 9 C1.67 9 1.34 9 1 9 C0.67 6.03 0.34 3.06 0 0 Z " fill="#F6BF34" transform="translate(266,168)"/>
</svg>
