<?xml version="1.0" encoding="UTF-8"?>
<svg version="1.1" xmlns="http://www.w3.org/2000/svg" width="240" height="210">
<path d="M0 0 C79.2 0 158.4 0 240 0 C240 69.3 240 138.6 240 210 C160.8 210 81.6 210 0 210 C0 140.7 0 71.4 0 0 Z " fill="#FFFEFD" transform="translate(0,0)"/>
<path d="M0 0 C19.85628018 12.54555884 28.3619845 35.97278943 36 57 C36.41378906 58.13179687 36.82757813 59.26359375 37.25390625 60.4296875 C38 63 38 63 38 67 C38.66 67 39.32 67 40 67 C40.15275391 65.80503906 40.15275391 65.80503906 40.30859375 64.5859375 C44.51921104 42.74782071 56.98241739 14.62218455 75.5625 1.5625 C81.87515432 -2.33300122 88.61403282 -4.2805392 96 -3 C113.25049945 3.19015284 121.84987162 18.00789804 129.5 33.6875 C148.2509742 73.94622495 154.26552928 120.09945093 157 164 C157.05784668 164.92103516 157.11569336 165.84207031 157.17529297 166.79101562 C157.94529437 179.54059377 158.0918845 192.22805402 158 205 C148.1 205 138.2 205 128 205 C127.87882813 200.6584375 127.75765625 196.316875 127.6328125 191.84375 C127.53034526 188.30621809 127.42656226 184.76873003 127.32191467 181.23126221 C127.21303898 177.53902556 127.10629453 173.84676017 127.00537109 170.15429688 C126.34454823 146.07656676 124.93588514 122.20473006 121.75 98.3125 C121.64461914 97.51414734 121.53923828 96.71579468 121.43066406 95.89324951 C118.64253795 74.96834236 115.19368732 53.91721592 108 34 C107.49339844 32.54980469 107.49339844 32.54980469 106.9765625 31.0703125 C104.98483416 25.70061289 102.42925989 21.57234652 99 17 C99 16.34 99 15.68 99 15 C95.83907394 12.89271596 92.8391996 12.70270853 89.09765625 12.5390625 C84.65148336 13.51606138 82.34921727 16.46757594 79.9375 20.14453125 C79.27567302 21.35860458 78.63053875 22.58188638 78 23.8125 C77.65533691 24.47991211 77.31067383 25.14732422 76.95556641 25.83496094 C66.77633002 46.1170775 63.44201991 69.54279227 60.25 91.8125 C60.14913086 92.509198 60.04826172 93.205896 59.94433594 93.92370605 C56.80697719 115.84509431 55.59124523 137.73570084 54.93554688 159.86077881 C54.83293068 163.27452578 54.72280039 166.68803118 54.61328125 170.1015625 C54.40100564 176.73417405 54.20074145 183.36698989 54 190 C44.1 190 34.2 190 24 190 C23.96261719 187.63714844 23.92523438 185.27429688 23.88671875 182.83984375 C25.61900011 93.83666669 25.61900011 93.83666669 -5.8125 15.875 C-6.8953125 14.946875 -6.8953125 14.946875 -8 14 C-8.33 13.67 -8.66 13.34 -9 13 C-14.24552926 12.171289 -14.24552926 12.171289 -18.875 14.328125 C-46.82052768 44.02024816 -45.49275886 108.48095889 -48 147 C-48.06670898 147.98887207 -48.13341797 148.97774414 -48.20214844 149.99658203 C-48.78614313 158.86880913 -49.03704498 167.75348459 -49.27734375 176.640625 C-49.30094467 177.50089294 -49.32454559 178.36116089 -49.34886169 179.24749756 C-49.58232261 187.83127544 -49.7928803 196.41554943 -50 205 C-59.9 205 -69.8 205 -80 205 C-80.64028694 169.46407481 -77.55614622 133.02885696 -70.63525391 98.20605469 C-70.04084751 95.20615274 -69.47762468 92.20184826 -68.91796875 89.1953125 C-63.20535257 59.71183709 -53.01014383 19.22541768 -27 1 C-18.0777677 -4.34722826 -9.3955097 -4.22797936 0 0 Z " fill="#FFCC02" transform="translate(81,4)"/>
</svg>
