<?xml version="1.0" encoding="UTF-8"?>
<svg version="1.1" xmlns="http://www.w3.org/2000/svg" width="500" height="500">
<path d="M0 0 C26.4 0 52.8 0 80 0 C79.67 1.32 79.34 2.64 79 4 C78.34 4 77.68 4 77 4 C77 4.66 77 5.32 77 6 C76.34 6 75.68 6 75 6 C75 6.66 75 7.32 75 8 C74.34 8 73.68 8 73 8 C72.7421875 8.58265625 72.484375 9.1653125 72.21875 9.765625 C70.90165983 12.1802903 69.44911616 13.81740177 67.5 15.75 C66.8915625 16.36359375 66.283125 16.9771875 65.65625 17.609375 C64 19 64 19 62 19 C62 19.66 62 20.32 62 21 C61.34 21 60.68 21 60 21 C60 21.66 60 22.32 60 23 C59.34 23 58.68 23 58 23 C57.6596875 23.8353125 57.6596875 23.8353125 57.3125 24.6875 C55.62449964 27.66159588 53.53323483 29.72008865 51 32 C50.34 32 49.68 32 49 32 C49 32.66 49 33.32 49 34 C48.34 34 47.68 34 47 34 C47 34.66 47 35.32 47 36 C46.34 36 45.68 36 45 36 C44.773125 36.556875 44.54625 37.11375 44.3125 37.6875 C42.62449964 40.66159588 40.53323483 42.72008865 38 45 C37.34 45 36.68 45 36 45 C36 45.66 36 46.32 36 47 C35.34 47 34.68 47 34 47 C34 47.66 34 48.32 34 49 C33.34 49 32.68 49 32 49 C31.61328125 49.87398437 31.61328125 49.87398437 31.21875 50.765625 C29.90165983 53.1802903 28.44911616 54.81740177 26.5 56.75 C25.8915625 57.36359375 25.283125 57.9771875 24.65625 58.609375 C23 60 23 60 21 60 C21 60.66 21 61.32 21 62 C20.34 62 19.68 62 19 62 C19 62.66 19 63.32 19 64 C18.34 64 17.68 64 17 64 C16.6596875 64.8353125 16.6596875 64.8353125 16.3125 65.6875 C14.62449964 68.66159588 12.53323483 70.72008865 10 73 C9.34 73 8.68 73 8 73 C8 73.66 8 74.32 8 75 C7.34 75 6.68 75 6 75 C6 75.66 6 76.32 6 77 C5.34 77 4.68 77 4 77 C3.61328125 77.87398437 3.61328125 77.87398437 3.21875 78.765625 C1.90165983 81.1802903 0.44911616 82.81740177 -1.5 84.75 C-2.1084375 85.36359375 -2.716875 85.9771875 -3.34375 86.609375 C-5 88 -5 88 -7 88 C-7 88.66 -7 89.32 -7 90 C-7.66 90 -8.32 90 -9 90 C-9 90.66 -9 91.32 -9 92 C-9.66 92 -10.32 92 -11 92 C-11.226875 92.556875 -11.45375 93.11375 -11.6875 93.6875 C-13.37550036 96.66159588 -15.46676517 98.72008865 -18 101 C-18.66 101 -19.32 101 -20 101 C-20 101.66 -20 102.32 -20 103 C-20.66 103 -21.32 103 -22 103 C-22 103.66 -22 104.32 -22 105 C-22.66 105 -23.32 105 -24 105 C-24.38671875 105.87398437 -24.38671875 105.87398437 -24.78125 106.765625 C-26.09834017 109.1802903 -27.55088384 110.81740177 -29.5 112.75 C-30.1084375 113.36359375 -30.716875 113.9771875 -31.34375 114.609375 C-33 116 -33 116 -35 116 C-35 116.66 -35 117.32 -35 118 C-35.66 118 -36.32 118 -37 118 C-37 118.66 -37 119.32 -37 120 C-37.66 120 -38.32 120 -39 120 C-39.226875 120.556875 -39.45375 121.11375 -39.6875 121.6875 C-41.37550036 124.66159588 -43.46676517 126.72008865 -46 129 C-46.66 129 -47.32 129 -48 129 C-48 129.66 -48 130.32 -48 131 C-48.66 131 -49.32 131 -50 131 C-50 131.66 -50 132.32 -50 133 C-50.66 133 -51.32 133 -52 133 C-52 133.66 -52 134.32 -52 135 C-52.66 135 -53.32 135 -54 135 C-54.268125 135.598125 -54.53625 136.19625 -54.8125 136.8125 C-55.99917406 138.99847854 -57.09599113 140.41332594 -59 142 C-59.66 142 -60.32 142 -61 142 C-61 142.66 -61 143.32 -61 144 C-61.66 144 -62.32 144 -63 144 C-63 144.66 -63 145.32 -63 146 C-63.66 146 -64.32 146 -65 146 C-65 146.66 -65 147.32 -65 148 C-65.66 148 -66.32 148 -67 148 C-67.268125 148.598125 -67.53625 149.19625 -67.8125 149.8125 C-68.99917406 151.99847854 -70.09599113 153.41332594 -72 155 C-72.66 155 -73.32 155 -74 155 C-74 155.66 -74 156.32 -74 157 C-74.66 157 -75.32 157 -76 157 C-76 157.66 -76 158.32 -76 159 C-76.66 159 -77.32 159 -78 159 C-78 159.66 -78 160.32 -78 161 C-78.66 161 -79.32 161 -80 161 C-80 161.66 -80 162.32 -80 163 C-80.66 163 -81.32 163 -82 163 C-82.2475 163.639375 -82.495 164.27875 -82.75 164.9375 C-84 167 -84 167 -85.8125 168.0625 C-88 168 -88 168 -90.75 165.6875 C-93 163 -93 163 -93 161 C-93.66 161 -94.32 161 -95 161 C-95 160.34 -95 159.68 -95 159 C-95.66 159 -96.32 159 -97 159 C-97 158.34 -97 157.68 -97 157 C-97.66 157 -98.32 157 -99 157 C-99 156.34 -99 155.68 -99 155 C-99.8353125 154.6596875 -99.8353125 154.6596875 -100.6875 154.3125 C-103.66159588 152.62449964 -105.72008865 150.53323483 -108 148 C-108 147.34 -108 146.68 -108 146 C-108.66 146 -109.32 146 -110 146 C-110 145.34 -110 144.68 -110 144 C-110.87398437 143.61328125 -110.87398437 143.61328125 -111.765625 143.21875 C-114.1802903 141.90165983 -115.81740177 140.44911616 -117.75 138.5 C-118.36359375 137.8915625 -118.9771875 137.283125 -119.609375 136.65625 C-121 135 -121 135 -121 133 C-121.66 133 -122.32 133 -123 133 C-123 132.34 -123 131.68 -123 131 C-123.66 131 -124.32 131 -125 131 C-125 130.34 -125 129.68 -125 129 C-125.66 129 -126.32 129 -127 129 C-127 128.34 -127 127.68 -127 127 C-126.34 127 -125.68 127 -125 127 C-125 126.34 -125 125.68 -125 125 C-124.34 125 -123.68 125 -123 125 C-122.61328125 124.12601563 -122.61328125 124.12601563 -122.21875 123.234375 C-120.90165983 120.8197097 -119.44911616 119.18259823 -117.5 117.25 C-116.8915625 116.63640625 -116.283125 116.0228125 -115.65625 115.390625 C-114 114 -114 114 -112 114 C-112 113.34 -112 112.68 -112 112 C-111.34 112 -110.68 112 -110 112 C-110 111.34 -110 110.68 -110 110 C-109.34 110 -108.68 110 -108 110 C-107.773125 109.443125 -107.54625 108.88625 -107.3125 108.3125 C-105.62449964 105.33840412 -103.53323483 103.27991135 -101 101 C-100.34 101 -99.68 101 -99 101 C-99 100.34 -99 99.68 -99 99 C-98.34 99 -97.68 99 -97 99 C-97 98.34 -97 97.68 -97 97 C-96.34 97 -95.68 97 -95 97 C-94.61328125 96.12601563 -94.61328125 96.12601563 -94.21875 95.234375 C-92.90165983 92.8197097 -91.44911616 91.18259823 -89.5 89.25 C-88.8915625 88.63640625 -88.283125 88.0228125 -87.65625 87.390625 C-86 86 -86 86 -84 86 C-84 85.34 -84 84.68 -84 84 C-83.34 84 -82.68 84 -82 84 C-82 83.34 -82 82.68 -82 82 C-81.34 82 -80.68 82 -80 82 C-79.773125 81.443125 -79.54625 80.88625 -79.3125 80.3125 C-77.62449964 77.33840412 -75.53323483 75.27991135 -73 73 C-72.34 73 -71.68 73 -71 73 C-71 72.34 -71 71.68 -71 71 C-70.34 71 -69.68 71 -69 71 C-69 70.34 -69 69.68 -69 69 C-68.34 69 -67.68 69 -67 69 C-66.773125 68.443125 -66.54625 67.88625 -66.3125 67.3125 C-64.62449964 64.33840412 -62.53323483 62.27991135 -60 60 C-59.34 60 -58.68 60 -58 60 C-58 59.34 -58 58.68 -58 58 C-57.34 58 -56.68 58 -56 58 C-56 57.34 -56 56.68 -56 56 C-55.34 56 -54.68 56 -54 56 C-54 55.34 -54 54.68 -54 54 C-53.34 54 -52.68 54 -52 54 C-51.773125 53.443125 -51.54625 52.88625 -51.3125 52.3125 C-49.62449964 49.33840412 -47.53323483 47.27991135 -45 45 C-44.34 45 -43.68 45 -43 45 C-43 44.34 -43 43.68 -43 43 C-42.34 43 -41.68 43 -41 43 C-41 42.34 -41 41.68 -41 41 C-40.34 41 -39.68 41 -39 41 C-38.773125 40.443125 -38.54625 39.88625 -38.3125 39.3125 C-36.62449964 36.33840412 -34.53323483 34.27991135 -32 32 C-31.34 32 -30.68 32 -30 32 C-30 31.34 -30 30.68 -30 30 C-29.34 30 -28.68 30 -28 30 C-28 29.34 -28 28.68 -28 28 C-27.34 28 -26.68 28 -26 28 C-26 27.34 -26 26.68 -26 26 C-25.34 26 -24.68 26 -24 26 C-23.731875 25.401875 -23.46375 24.80375 -23.1875 24.1875 C-22.00082594 22.00152146 -20.90400887 20.58667406 -19 19 C-18.34 19 -17.68 19 -17 19 C-17 18.34 -17 17.68 -17 17 C-16.34 17 -15.68 17 -15 17 C-15 16.34 -15 15.68 -15 15 C-14.34 15 -13.68 15 -13 15 C-13 14.34 -13 13.68 -13 13 C-12.34 13 -11.68 13 -11 13 C-10.773125 12.443125 -10.54625 11.88625 -10.3125 11.3125 C-8.62449964 8.33840412 -6.53323483 6.27991135 -4 4 C-3.34 4 -2.68 4 -2 4 C-2 3.34 -2 2.68 -2 2 C-1.34 2 -0.68 2 0 2 C0 1.34 0 0.68 0 0 Z " fill="#56C7F7" transform="translate(261,121)"/>
<path d="M0 0 C1.15645523 -0.00043808 1.15645523 -0.00043808 2.33627319 -0.00088501 C4.88485973 0.00050845 7.43315398 0.01607029 9.98168945 0.03173828 C11.74859965 0.03546836 13.51551192 0.03831535 15.28242493 0.04031372 C19.93329579 0.04795061 24.58404177 0.06759959 29.23486328 0.08972168 C33.98053294 0.1101789 38.72622278 0.11931517 43.47192383 0.12939453 C52.78382766 0.15084542 62.0956388 0.18498205 71.4074707 0.22705078 C71.4074707 4.10159704 69.84863668 5.13961742 67.21902466 7.78875732 C66.60187592 8.39512024 65.98472717 9.00148315 65.34887695 9.6262207 C64.7051413 10.27039444 64.06140564 10.91456818 63.39816284 11.57826233 C61.26246419 13.71186613 59.11632542 15.83464015 56.9699707 17.95751953 C55.4895826 19.43231418 54.0098542 20.90777131 52.53076172 22.38386536 C48.63121269 26.27194599 44.72273913 30.15093491 40.81237793 34.02813721 C36.82565553 37.98420185 32.8473853 41.94874562 28.8684082 45.91259766 C21.05637331 53.69243319 13.23488989 61.46269598 5.4074707 69.22705078 C5.9024707 69.84580078 6.3974707 70.46455078 6.9074707 71.10205078 C8.4074707 73.22705078 8.4074707 73.22705078 8.4074707 75.22705078 C9.0674707 75.22705078 9.7274707 75.22705078 10.4074707 75.22705078 C10.4074707 75.88705078 10.4074707 76.54705078 10.4074707 77.22705078 C11.0674707 77.22705078 11.7274707 77.22705078 12.4074707 77.22705078 C12.4074707 77.88705078 12.4074707 78.54705078 12.4074707 79.22705078 C13.0674707 79.22705078 13.7274707 79.22705078 14.4074707 79.22705078 C14.4074707 79.88705078 14.4074707 80.54705078 14.4074707 81.22705078 C15.3046582 81.62923828 15.3046582 81.62923828 16.2199707 82.03955078 C18.40594924 83.22622484 19.82079664 84.32304191 21.4074707 86.22705078 C21.4074707 86.88705078 21.4074707 87.54705078 21.4074707 88.22705078 C22.0674707 88.22705078 22.7274707 88.22705078 23.4074707 88.22705078 C23.4074707 88.88705078 23.4074707 89.54705078 23.4074707 90.22705078 C24.0674707 90.22705078 24.7274707 90.22705078 25.4074707 90.22705078 C25.4074707 90.88705078 25.4074707 91.54705078 25.4074707 92.22705078 C26.0674707 92.22705078 26.7274707 92.22705078 27.4074707 92.22705078 C27.4074707 92.88705078 27.4074707 93.54705078 27.4074707 94.22705078 C28.0674707 94.22705078 28.7274707 94.22705078 29.4074707 94.22705078 C29.4074707 94.88705078 29.4074707 95.54705078 29.4074707 96.22705078 C30.3046582 96.62923828 30.3046582 96.62923828 31.2199707 97.03955078 C33.40594924 98.22622484 34.82079664 99.32304191 36.4074707 101.22705078 C36.4074707 101.88705078 36.4074707 102.54705078 36.4074707 103.22705078 C37.0674707 103.22705078 37.7274707 103.22705078 38.4074707 103.22705078 C38.4074707 103.88705078 38.4074707 104.54705078 38.4074707 105.22705078 C39.0674707 105.22705078 39.7274707 105.22705078 40.4074707 105.22705078 C40.4074707 105.88705078 40.4074707 106.54705078 40.4074707 107.22705078 C41.0674707 107.22705078 41.7274707 107.22705078 42.4074707 107.22705078 C42.4074707 107.88705078 42.4074707 108.54705078 42.4074707 109.22705078 C43.3046582 109.62923828 43.3046582 109.62923828 44.2199707 110.03955078 C46.40594924 111.22622484 47.82079664 112.32304191 49.4074707 114.22705078 C49.4074707 114.88705078 49.4074707 115.54705078 49.4074707 116.22705078 C50.0674707 116.22705078 50.7274707 116.22705078 51.4074707 116.22705078 C51.4074707 116.88705078 51.4074707 117.54705078 51.4074707 118.22705078 C52.0674707 118.22705078 52.7274707 118.22705078 53.4074707 118.22705078 C53.4074707 118.88705078 53.4074707 119.54705078 53.4074707 120.22705078 C54.0674707 120.22705078 54.7274707 120.22705078 55.4074707 120.22705078 C55.4074707 120.88705078 55.4074707 121.54705078 55.4074707 122.22705078 C55.9643457 122.45392578 56.5212207 122.68080078 57.0949707 122.91455078 C60.06906658 124.60255114 62.12755935 126.69381595 64.4074707 129.22705078 C64.4074707 129.88705078 64.4074707 130.54705078 64.4074707 131.22705078 C65.0674707 131.22705078 65.7274707 131.22705078 66.4074707 131.22705078 C66.4074707 131.88705078 66.4074707 132.54705078 66.4074707 133.22705078 C67.0674707 133.22705078 67.7274707 133.22705078 68.4074707 133.22705078 C68.4074707 133.88705078 68.4074707 134.54705078 68.4074707 135.22705078 C69.0674707 135.22705078 69.7274707 135.22705078 70.4074707 135.22705078 C70.7374707 136.54705078 71.0674707 137.86705078 71.4074707 139.22705078 C61.1589814 139.27335111 50.9105169 139.30890826 40.66194439 139.33067513 C35.90333556 139.34112108 31.14479818 139.35529509 26.38623047 139.37792969 C21.79564014 139.39962912 17.20511862 139.41161329 12.61448097 139.41680527 C10.86135588 139.42050624 9.10823464 139.42773314 7.35513878 139.43851089 C4.90334246 139.45298733 2.45183204 139.45503035 0 139.45410156 C-0.72792252 139.46129211 -1.45584503 139.46848267 -2.20582581 139.47589111 C-5.8983315 139.46071278 -7.43263855 139.33364461 -10.5925293 137.22705078 C-10.5925293 136.56705078 -10.5925293 135.90705078 -10.5925293 135.22705078 C-11.4897168 134.82486328 -11.4897168 134.82486328 -12.4050293 134.41455078 C-14.59100783 133.22787672 -16.00585524 132.13105965 -17.5925293 130.22705078 C-17.5925293 129.56705078 -17.5925293 128.90705078 -17.5925293 128.22705078 C-18.2525293 128.22705078 -18.9125293 128.22705078 -19.5925293 128.22705078 C-21.7175293 126.35205078 -21.7175293 126.35205078 -23.5925293 124.22705078 C-23.5925293 123.56705078 -23.5925293 122.90705078 -23.5925293 122.22705078 C-24.1494043 122.00017578 -24.7062793 121.77330078 -25.2800293 121.53955078 C-28.25412517 119.85155042 -30.31261795 117.76028561 -32.5925293 115.22705078 C-32.5925293 114.56705078 -32.5925293 113.90705078 -32.5925293 113.22705078 C-33.2525293 113.22705078 -33.9125293 113.22705078 -34.5925293 113.22705078 C-36.7175293 111.35205078 -36.7175293 111.35205078 -38.5925293 109.22705078 C-38.5925293 108.56705078 -38.5925293 107.90705078 -38.5925293 107.22705078 C-39.1906543 106.95892578 -39.7887793 106.69080078 -40.4050293 106.41455078 C-42.59100783 105.22787672 -44.00585524 104.13105965 -45.5925293 102.22705078 C-45.5925293 101.56705078 -45.5925293 100.90705078 -45.5925293 100.22705078 C-46.2525293 100.22705078 -46.9125293 100.22705078 -47.5925293 100.22705078 C-47.5925293 99.56705078 -47.5925293 98.90705078 -47.5925293 98.22705078 C-48.2525293 98.22705078 -48.9125293 98.22705078 -49.5925293 98.22705078 C-49.5925293 97.56705078 -49.5925293 96.90705078 -49.5925293 96.22705078 C-50.2525293 96.22705078 -50.9125293 96.22705078 -51.5925293 96.22705078 C-51.5925293 95.56705078 -51.5925293 94.90705078 -51.5925293 94.22705078 C-52.1494043 94.00017578 -52.7062793 93.77330078 -53.2800293 93.53955078 C-56.25412517 91.85155042 -58.31261795 89.76028561 -60.5925293 87.22705078 C-60.5925293 86.56705078 -60.5925293 85.90705078 -60.5925293 85.22705078 C-61.2525293 85.22705078 -61.9125293 85.22705078 -62.5925293 85.22705078 C-62.5925293 84.56705078 -62.5925293 83.90705078 -62.5925293 83.22705078 C-63.2525293 83.22705078 -63.9125293 83.22705078 -64.5925293 83.22705078 C-64.5925293 82.56705078 -64.5925293 81.90705078 -64.5925293 81.22705078 C-65.2525293 81.22705078 -65.9125293 81.22705078 -66.5925293 81.22705078 C-66.5925293 80.56705078 -66.5925293 79.90705078 -66.5925293 79.22705078 C-67.1906543 78.95892578 -67.7887793 78.69080078 -68.4050293 78.41455078 C-70.59100783 77.22787672 -72.00585524 76.13105965 -73.5925293 74.22705078 C-73.5925293 73.56705078 -73.5925293 72.90705078 -73.5925293 72.22705078 C-74.2525293 72.22705078 -74.9125293 72.22705078 -75.5925293 72.22705078 C-75.04529246 68.85242363 -74.5376293 67.14470079 -72.5925293 64.22705078 C-71.9325293 64.22705078 -71.2725293 64.22705078 -70.5925293 64.22705078 C-70.5925293 63.56705078 -70.5925293 62.90705078 -70.5925293 62.22705078 C-69.9325293 62.22705078 -69.2725293 62.22705078 -68.5925293 62.22705078 C-68.5925293 61.56705078 -68.5925293 60.90705078 -68.5925293 60.22705078 C-67.9325293 60.22705078 -67.2725293 60.22705078 -66.5925293 60.22705078 C-66.5925293 59.56705078 -66.5925293 58.90705078 -66.5925293 58.22705078 C-65.9325293 58.22705078 -65.2725293 58.22705078 -64.5925293 58.22705078 C-64.5925293 57.56705078 -64.5925293 56.90705078 -64.5925293 56.22705078 C-62.60992504 54.53972801 -60.60929509 52.87339021 -58.5925293 51.22705078 C-58.2625293 50.56705078 -57.9325293 49.90705078 -57.5925293 49.22705078 C-56.9325293 49.22705078 -56.2725293 49.22705078 -55.5925293 49.22705078 C-55.5925293 48.56705078 -55.5925293 47.90705078 -55.5925293 47.22705078 C-54.9325293 47.22705078 -54.2725293 47.22705078 -53.5925293 47.22705078 C-53.5925293 46.56705078 -53.5925293 45.90705078 -53.5925293 45.22705078 C-52.9325293 45.22705078 -52.2725293 45.22705078 -51.5925293 45.22705078 C-51.5925293 44.56705078 -51.5925293 43.90705078 -51.5925293 43.22705078 C-49.60992504 41.53972801 -47.60929509 39.87339021 -45.5925293 38.22705078 C-45.2625293 37.56705078 -44.9325293 36.90705078 -44.5925293 36.22705078 C-43.9325293 36.22705078 -43.2725293 36.22705078 -42.5925293 36.22705078 C-42.5925293 35.56705078 -42.5925293 34.90705078 -42.5925293 34.22705078 C-41.9325293 34.22705078 -41.2725293 34.22705078 -40.5925293 34.22705078 C-40.5925293 33.56705078 -40.5925293 32.90705078 -40.5925293 32.22705078 C-39.9325293 32.22705078 -39.2725293 32.22705078 -38.5925293 32.22705078 C-38.5925293 31.56705078 -38.5925293 30.90705078 -38.5925293 30.22705078 C-36.87768555 28.57080078 -36.87768555 28.57080078 -34.6550293 26.72705078 C-31.67207751 24.33778079 -31.67207751 24.33778079 -29.5925293 21.22705078 C-28.9325293 21.22705078 -28.2725293 21.22705078 -27.5925293 21.22705078 C-27.5925293 20.56705078 -27.5925293 19.90705078 -27.5925293 19.22705078 C-26.9325293 19.22705078 -26.2725293 19.22705078 -25.5925293 19.22705078 C-25.5925293 18.56705078 -25.5925293 17.90705078 -25.5925293 17.22705078 C-24.9325293 17.22705078 -24.2725293 17.22705078 -23.5925293 17.22705078 C-23.5925293 16.56705078 -23.5925293 15.90705078 -23.5925293 15.22705078 C-22.15810638 14.02613857 -20.71923959 12.82991236 -19.25268555 11.66845703 C-17.56136799 10.19999543 -16.23118891 8.66799262 -14.8425293 6.91455078 C-14.1000293 6.02767578 -13.3575293 5.14080078 -12.5925293 4.22705078 C-11.9325293 4.22705078 -11.2725293 4.22705078 -10.5925293 4.22705078 C-10.5925293 3.56705078 -10.5925293 2.90705078 -10.5925293 2.22705078 C-6.93208262 -0.213247 -4.2286838 -0.04177171 0 0 Z " fill="#59C8F7" transform="translate(269.592529296875,237.77294921875)"/>
<path d="M0 0 C3.09872847 1.53612181 6.11770776 3.07847184 9 5 C9 5.66 9 6.32 9 7 C9.66 7 10.32 7 11 7 C11 7.66 11 8.32 11 9 C11.66 9 12.32 9 13 9 C13 9.66 13 10.32 13 11 C13.598125 11.268125 14.19625 11.53625 14.8125 11.8125 C16.99847854 12.99917406 18.41332594 14.09599113 20 16 C20 16.66 20 17.32 20 18 C20.66 18 21.32 18 22 18 C22 18.66 22 19.32 22 20 C22.66 20 23.32 20 24 20 C24 20.66 24 21.32 24 22 C24.66 22 25.32 22 26 22 C26 22.66 26 23.32 26 24 C26.66 24 27.32 24 28 24 C28 24.66 28 25.32 28 26 C28.598125 26.268125 29.19625 26.53625 29.8125 26.8125 C31.99847854 27.99917406 33.41332594 29.09599113 35 31 C35 31.66 35 32.32 35 33 C35.66 33 36.32 33 37 33 C37 33.66 37 34.32 37 35 C37.66 35 38.32 35 39 35 C39 35.66 39 36.32 39 37 C39.66 37 40.32 37 41 37 C41 37.66 41 38.32 41 39 C41.598125 39.268125 42.19625 39.53625 42.8125 39.8125 C44.99847854 40.99917406 46.41332594 42.09599113 48 44 C48 44.66 48 45.32 48 46 C48.66 46 49.32 46 50 46 C50 46.66 50 47.32 50 48 C50.66 48 51.32 48 52 48 C52 48.66 52 49.32 52 50 C52.66 50 53.32 50 54 50 C54 50.66 54 51.32 54 52 C54.556875 52.226875 55.11375 52.45375 55.6875 52.6875 C58.66159588 54.37550036 60.72008865 56.46676517 63 59 C63 59.66 63 60.32 63 61 C63.66 61 64.32 61 65 61 C65 61.66 65 62.32 65 63 C65.66 63 66.32 63 67 63 C67 63.66 67 64.32 67 65 C67.66 65 68.32 65 69 65 C69.33 66.32 69.66 67.64 70 69 C59.7515107 69.04630033 49.5030462 69.08185748 39.25447369 69.10362434 C34.49586485 69.1140703 29.73732747 69.12824431 24.97875977 69.15087891 C20.38816944 69.17257834 15.79764792 69.18456251 11.20701027 69.18975449 C9.45388518 69.19345546 7.70076394 69.20068236 5.94766808 69.21146011 C3.49587176 69.22593655 1.04436134 69.22797957 -1.4074707 69.22705078 C-2.13539322 69.23424133 -2.86331573 69.24143188 -3.61329651 69.24884033 C-7.3058022 69.233662 -8.84010925 69.10659383 -12 67 C-12 66.34 -12 65.68 -12 65 C-12.598125 64.731875 -13.19625 64.46375 -13.8125 64.1875 C-15.99847854 63.00082594 -17.41332594 61.90400887 -19 60 C-19 59.34 -19 58.68 -19 58 C-19.66 58 -20.32 58 -21 58 C-24.06350116 55.33178931 -25.97727815 52.49379229 -28 49 C-28.66 48.34 -29.32 47.68 -30 47 C-30 45.68 -30 44.36 -30 43 C-30.66 43 -31.32 43 -32 43 C-32 41.68 -32 40.36 -32 39 C-33.32 38.67 -34.64 38.34 -36 38 C-34.6238464 34.90820864 -33.04841555 32.80361247 -30.65185547 30.42480469 C-29.97130096 29.74440125 -29.29074646 29.0639978 -28.58956909 28.36297607 C-27.85618317 27.63991272 -27.12279724 26.91684937 -26.3671875 26.171875 C-25.61535187 25.42286926 -24.86351624 24.67386353 -24.08889771 23.90216064 C-21.68892099 21.5133698 -19.28207991 19.13163103 -16.875 16.75 C-15.24563648 15.13066831 -13.61672466 13.51088198 -11.98828125 11.890625 C-7.99741194 7.92179495 -4.00088585 3.95873101 0 0 Z " fill="#0A5A9A" transform="translate(271,308)"/>
<path d="M0 0 C2.9690134 -0.43448977 5.14350506 -0.5345908 7.74609375 1.08984375 C11.89380177 4.57244046 15.87692828 8.56134862 19 13 C19 13.66 19 14.32 19 15 C19.5775 15.061875 20.155 15.12375 20.75 15.1875 C23.91964348 16.33209348 24.99420228 18.32560305 27 21 C29.22737122 23.28169735 31.47892287 25.51485923 33.8125 27.6875 C35 29 35 29 35 31 C35.5775 31.226875 36.155 31.45375 36.75 31.6875 C39.5623279 33.32802461 41.02970461 35.43778814 43 38 C42.3268148 38.66985428 42.3268148 38.66985428 41.64002991 39.35324097 C36.98170954 43.98948748 32.32687358 48.62921098 27.67407227 53.27099609 C25.93571199 55.00431858 24.19645649 56.73674371 22.45629883 58.46826172 C19.95940655 60.95306423 17.46572086 63.44104536 14.97265625 65.9296875 C14.19036148 66.70682098 13.40806671 67.48395447 12.60206604 68.28463745 C11.8813945 69.00523346 11.16072296 69.72582947 10.41821289 70.46826172 C9.78089737 71.10335663 9.14358185 71.73845154 8.48695374 72.39279175 C6.91010952 73.94715889 6.91010952 73.94715889 6 76 C7.65 76.33 9.3 76.66 11 77 C10.505 78.98 10.505 78.98 10 81 C10.66 81 11.32 81 12 81 C12.268125 81.7425 12.53625 82.485 12.8125 83.25 C13.94229421 85.86636554 15.20893202 87.80187111 17 90 C13.18063472 88.44396229 10.73955562 86.04395069 8 83 C8 82.34 8 81.68 8 81 C7.34 81 6.68 81 6 81 C3.875 79.125 3.875 79.125 2 77 C2 76.34 2 75.68 2 75 C1.401875 74.731875 0.80375 74.46375 0.1875 74.1875 C-1.99847854 73.00082594 -3.41332594 71.90400887 -5 70 C-5 69.34 -5 68.68 -5 68 C-5.66 68 -6.32 68 -7 68 C-7 67.34 -7 66.68 -7 66 C-7.66 66 -8.32 66 -9 66 C-9 65.34 -9 64.68 -9 64 C-9.66 64 -10.32 64 -11 64 C-11 63.34 -11 62.68 -11 62 C-11.556875 61.773125 -12.11375 61.54625 -12.6875 61.3125 C-15.66159588 59.62449964 -17.72008865 57.53323483 -20 55 C-20 54.34 -20 53.68 -20 53 C-20.66 53 -21.32 53 -22 53 C-22 52.34 -22 51.68 -22 51 C-22.66 51 -23.32 51 -24 51 C-24 50.34 -24 49.68 -24 49 C-24.66 49 -25.32 49 -26 49 C-26 48.34 -26 47.68 -26 47 C-26.598125 46.731875 -27.19625 46.46375 -27.8125 46.1875 C-29.99847854 45.00082594 -31.41332594 43.90400887 -33 42 C-33 41.34 -33 40.68 -33 40 C-33.66 40 -34.32 40 -35 40 C-34.45276317 36.62537285 -33.9451 34.91765 -32 32 C-31.34 32 -30.68 32 -30 32 C-30 31.34 -30 30.68 -30 30 C-29.34 30 -28.68 30 -28 30 C-28 29.34 -28 28.68 -28 28 C-27.34 28 -26.68 28 -26 28 C-26 27.34 -26 26.68 -26 26 C-25.34 26 -24.68 26 -24 26 C-24 25.34 -24 24.68 -24 24 C-22.01739574 22.31267723 -20.0167658 20.64633943 -18 19 C-17.67 18.34 -17.34 17.68 -17 17 C-16.34 17 -15.68 17 -15 17 C-15 16.34 -15 15.68 -15 15 C-14.34 15 -13.68 15 -13 15 C-13 14.34 -13 13.68 -13 13 C-12.34 13 -11.68 13 -11 13 C-11 12.34 -11 11.68 -11 11 C-9.01739574 9.31267723 -7.0167658 7.64633943 -5 6 C-4.67 5.34 -4.34 4.68 -4 4 C-3.34 4 -2.68 4 -2 4 C-2 3.34 -2 2.68 -2 2 C-1.34 2 -0.68 2 0 2 C0 1.34 0 0.68 0 0 Z " fill="#2EB5F4" transform="translate(229,270)"/>
<path d="M0 0 C26.4 0 52.8 0 80 0 C79.67 1.32 79.34 2.64 79 4 C77.68 4.33 76.36 4.66 75 5 C75 4.34 75 3.68 75 3 C65.5511311 2.90732901 56.10241858 2.83625 46.65319443 2.79275131 C42.26554058 2.77187429 37.87819759 2.7435549 33.49072266 2.69824219 C29.25671584 2.65478799 25.02300806 2.63086376 20.78879547 2.62049103 C19.17322329 2.61309883 17.55766751 2.5986635 15.9422226 2.57707977 C13.67954617 2.54805018 11.41810605 2.54404362 9.15527344 2.54589844 C7.86731873 2.53701599 6.57936401 2.52813354 5.25238037 2.51898193 C1.42021542 3.08574854 0.41704459 4.07349514 -2 7 C-3.64821244 8.03013277 -5.31503702 9.03114628 -7 10 C-8.34631825 10.98244845 -9.68441297 11.97676564 -11 13 C-9.44396229 9.18063472 -7.04395069 6.73955562 -4 4 C-3.34 4 -2.68 4 -2 4 C-2 3.34 -2 2.68 -2 2 C-1.34 2 -0.68 2 0 2 C0 1.34 0 0.68 0 0 Z " fill="#B6E4F3" transform="translate(261,121)"/>
<path d="M0 0 C0 0.66 0 1.32 0 2 C0.66 2.33 1.32 2.66 2 3 C0.75 4.5 0.75 4.5 -1 6 C-2.32 6 -3.64 6 -5 6 C-5 6.66 -5 7.32 -5 8 C-5.99 8.495 -5.99 8.495 -7 9 C-6.67 10.32 -6.34 11.64 -6 13 C-7.98 13.99 -7.98 13.99 -10 15 C-10 15.66 -10 16.32 -10 17 C-8.68 17.33 -7.36 17.66 -6 18 C-8.43407005 18.86524753 -10.87143184 19.71742865 -13.3125 20.5625 C-14.00279297 20.80935547 -14.69308594 21.05621094 -15.40429688 21.31054688 C-20.66015625 23.11328125 -20.66015625 23.11328125 -24 22 C-21.39667234 16.92105509 -17.57509637 13.27893035 -13.5625 9.3125 C-12.55993164 8.29833008 -12.55993164 8.29833008 -11.53710938 7.26367188 C-10.88677734 6.61591797 -10.23644531 5.96816406 -9.56640625 5.30078125 C-8.97802979 4.71466064 -8.38965332 4.12854004 -7.78344727 3.5246582 C-5.36198438 1.45456434 -3.23767942 0 0 0 Z " fill="#023763" transform="translate(261,322)"/>
<path d="M0 0 C0.66 0.33 1.32 0.66 2 1 C-0.3967892 5.50128703 -3.46937869 8.77101636 -7.0625 12.3125 C-7.60455078 12.86228516 -8.14660156 13.41207031 -8.70507812 13.97851562 C-12.74654503 18 -12.74654503 18 -15 18 C-15.24492187 18.57234375 -15.48984375 19.1446875 -15.7421875 19.734375 C-17.21110099 22.38024402 -18.95348244 24.14853139 -21.125 26.25 C-21.84945312 26.95640625 -22.57390625 27.6628125 -23.3203125 28.390625 C-23.87460938 28.92171875 -24.42890625 29.4528125 -25 30 C-25.70703125 28.234375 -25.70703125 28.234375 -26 26 C-24.63671875 24.078125 -24.63671875 24.078125 -22.6875 22.25 C-21.73423828 21.32960937 -21.73423828 21.32960937 -20.76171875 20.390625 C-19 19 -19 19 -17 19 C-17 18.34 -17 17.68 -17 17 C-16.34 17 -15.68 17 -15 17 C-15 16.34 -15 15.68 -15 15 C-14.34 15 -13.68 15 -13 15 C-12.773125 14.443125 -12.54625 13.88625 -12.3125 13.3125 C-10.62449964 10.33840412 -8.53323483 8.27991135 -6 6 C-5.34 6 -4.68 6 -4 6 C-4 5.34 -4 4.68 -4 4 C-3.34 4 -2.68 4 -2 4 C-2 3.34 -2 2.68 -2 2 C-1.34 2 -0.68 2 0 2 C0 1.34 0 0.68 0 0 Z " fill="#A2DCF1" transform="translate(207,175)"/>
<path d="M0 0 C1.15645523 -0.00043808 1.15645523 -0.00043808 2.33627319 -0.00088501 C4.88485973 0.00050845 7.43315398 0.01607029 9.98168945 0.03173828 C11.74859965 0.03546836 13.51551192 0.03831535 15.28242493 0.04031372 C19.93329579 0.04795061 24.58404177 0.06759959 29.23486328 0.08972168 C33.98053294 0.1101789 38.72622278 0.11931517 43.47192383 0.12939453 C52.78382766 0.15084542 62.0956388 0.18498205 71.4074707 0.22705078 C71.4074707 1.21705078 71.4074707 2.20705078 71.4074707 3.22705078 C70.9124707 2.23705078 70.9124707 2.23705078 70.4074707 1.22705078 C60.41950542 1.26505957 50.43191639 1.32435056 40.44424725 1.41095352 C35.80672968 1.4504936 31.16940384 1.48264985 26.53173828 1.49804688 C22.05761083 1.51317071 17.58401027 1.54753935 13.11011696 1.5953598 C11.40170682 1.61021792 9.69322147 1.61809433 7.98474693 1.61893463 C5.59472596 1.62129286 3.20617479 1.64827693 0.81640625 1.68115234 C0.10718521 1.67612198 -0.60203583 1.67109161 -1.33274841 1.66590881 C-3.53720737 1.66847567 -3.53720737 1.66847567 -6.5925293 2.22705078 C-8.38401308 4.1699956 -8.38401308 4.1699956 -9.5925293 6.22705078 C-10.5825293 6.22705078 -11.5725293 6.22705078 -12.5925293 6.22705078 C-12.5925293 5.56705078 -12.5925293 4.90705078 -12.5925293 4.22705078 C-11.9325293 4.22705078 -11.2725293 4.22705078 -10.5925293 4.22705078 C-10.5925293 3.56705078 -10.5925293 2.90705078 -10.5925293 2.22705078 C-6.93208262 -0.213247 -4.2286838 -0.04177171 0 0 Z " fill="#DCFAFC" transform="translate(269.592529296875,237.77294921875)"/>
<path d="M0 0 C0 3 0 3 -1.6796875 5.04296875 C-2.76636719 6.10451172 -2.76636719 6.10451172 -3.875 7.1875 C-4.59429687 7.90292969 -5.31359375 8.61835938 -6.0546875 9.35546875 C-8 11 -8 11 -10 11 C-10 11.66 -10 12.32 -10 13 C-10.66 13 -11.32 13 -12 13 C-12 13.66 -12 14.32 -12 15 C-12.66 15 -13.32 15 -14 15 C-14.226875 15.556875 -14.45375 16.11375 -14.6875 16.6875 C-16.37550036 19.66159588 -18.46676517 21.72008865 -21 24 C-21.66 24 -22.32 24 -23 24 C-23 24.66 -23 25.32 -23 26 C-23.66 26 -24.32 26 -25 26 C-25 26.66 -25 27.32 -25 28 C-25.66 27.67 -26.32 27.34 -27 27 C-26.25 22.25 -26.25 22.25 -24 20 C-21.375 19.875 -21.375 19.875 -19 20 C-18.896875 19.443125 -18.79375 18.88625 -18.6875 18.3125 C-17.81762258 15.38654869 -16.87270504 13.43451655 -15 11 C-13.33834167 10.31578774 -11.67340641 9.63697455 -9.984375 9.0234375 C-5.95472673 6.94515434 -3.02829962 3.31146529 0 0 Z " fill="#A0DDF5" transform="translate(333,129)"/>
<path d="M0 0 C25.41 0 50.82 0 77 0 C75.02 2.31 73.04 4.62 71 7 C70.505 6.01 70.505 6.01 70 5 C70.33 4.01 70.66 3.02 71 2 C47.57 1.67 24.14 1.34 0 1 C0 0.67 0 0.34 0 0 Z " fill="#61C1EA" transform="translate(262,240)"/>
<path d="M0 0 C0 3 0 3 -1.2421875 4.60546875 C-1.78101563 5.12753906 -2.31984375 5.64960938 -2.875 6.1875 C-3.40867187 6.71730469 -3.94234375 7.24710938 -4.4921875 7.79296875 C-6 9 -6 9 -8 9 C-8 9.66 -8 10.32 -8 11 C-8.66 11 -9.32 11 -10 11 C-10 11.66 -10 12.32 -10 13 C-10.66 13 -11.32 13 -12 13 C-12.25523437 13.58265625 -12.51046875 14.1653125 -12.7734375 14.765625 C-14.11741087 17.21388223 -15.61810296 18.81743248 -17.625 20.75 C-18.57246094 21.67039063 -18.57246094 21.67039063 -19.5390625 22.609375 C-20.02117187 23.06828125 -20.50328125 23.5271875 -21 24 C-21.66 23.67 -22.32 23.34 -23 23 C-22.37351562 22.45472656 -21.74703125 21.90945312 -21.1015625 21.34765625 C-15.41236558 16.09816067 -12.85982237 12.73840129 -12 5 C-10.35 5.33 -8.7 5.66 -7 6 C-6.95875 5.38125 -6.9175 4.7625 -6.875 4.125 C-6.441875 3.073125 -6.441875 3.073125 -6 2 C-2.9375 0.75 -2.9375 0.75 0 0 Z " fill="#A0DFF6" transform="translate(305,157)"/>
<path d="M0 0 C0 0.66 0 1.32 0 2 C0.66 2 1.32 2 2 2 C2 2.66 2 3.32 2 4 C2.66 4 3.32 4 4 4 C4 4.66 4 5.32 4 6 C4.598125 6.268125 5.19625 6.53625 5.8125 6.8125 C7.99847854 7.99917406 9.41332594 9.09599113 11 11 C11 11.66 11 12.32 11 13 C11.66 13 12.32 13 13 13 C13 13.66 13 14.32 13 15 C13.66 15 14.32 15 15 15 C15 15.66 15 16.32 15 17 C15.66 17 16.32 17 17 17 C17 17.66 17 18.32 17 19 C17.66 19 18.32 19 19 19 C18.67 19.66 18.34 20.32 18 21 C15.4375 21.625 15.4375 21.625 13 22 C10.38719931 19.12591924 9.06290374 17.2561081 8.125 13.4375 C6.7037395 9.09475958 4.83210464 8.28295596 1 6 C0.67 5.01 0.34 4.02 0 3 C-0.99 3.33 -1.98 3.66 -3 4 C-3.66 3.34 -4.32 2.68 -5 2 C-2 0 -2 0 0 0 Z " fill="#3B7BAD" transform="translate(280,313)"/>
<path d="M0 0 C0 0.66 0 1.32 0 2 C0.66 2.33 1.32 2.66 2 3 C0.75 4.5 0.75 4.5 -1 6 C-2.32 6 -3.64 6 -5 6 C-5.33 6.66 -5.66 7.32 -6 8 C-6.639375 8.12375 -7.27875 8.2475 -7.9375 8.375 C-10.19851273 8.80939427 -10.19851273 8.80939427 -11.25 11.0625 C-11.4975 11.701875 -11.745 12.34125 -12 13 C-12.66 13 -13.32 13 -14 13 C-14 13.66 -14 14.32 -14 15 C-14.61875 15.268125 -15.2375 15.53625 -15.875 15.8125 C-18.2995233 16.95556848 -18.2995233 16.95556848 -20 20 C-20.99 19.67 -21.98 19.34 -23 19 C-20.25825163 16.20012585 -17.50523657 13.41159698 -14.75 10.625 C-13.97269531 9.8309375 -13.19539062 9.036875 -12.39453125 8.21875 C-11.64042969 7.45820313 -10.88632813 6.69765625 -10.109375 5.9140625 C-9.07248535 4.8614624 -9.07248535 4.8614624 -8.01464844 3.78759766 C-5.51247338 1.56741761 -3.4078344 0 0 0 Z " fill="#03487B" transform="translate(261,322)"/>
<path d="M0 0 C0.63615234 0.56267578 0.63615234 0.56267578 1.28515625 1.13671875 C8.31701375 7.63917911 8.31701375 7.63917911 16.75 11.75 C19.63759712 13.35422062 19.78168174 14.54692872 20.8125 17.625 C21.22732811 19.07804431 21.62925084 20.53508867 22 22 C18.23309364 20.26142784 15.78767463 18.09741625 13 15 C13 14.34 13 13.68 13 13 C12.34 13 11.68 13 11 13 C11 12.34 11 11.68 11 11 C10.12601563 10.61328125 10.12601563 10.61328125 9.234375 10.21875 C6.8197097 8.90165983 5.18259823 7.44911616 3.25 5.5 C2.63640625 4.8915625 2.0228125 4.283125 1.390625 3.65625 C0 2 0 2 0 0 Z " fill="#ABE2F6" transform="translate(140,254)"/>
<path d="M0 0 C0.66 0 1.32 0 2 0 C2 0.99 2 1.98 2 3 C1.34 3 0.68 3 0 3 C-0.33 3.99 -0.66 4.98 -1 6 C-1.66 6 -2.32 6 -3 6 C-3.33 6.99 -3.66 7.98 -4 9 C-4.99 9 -5.98 9 -7 9 C-7.33448259 11.832168 -7.33448259 11.832168 -7 15 C-5.10413616 17.14589423 -5.10413616 17.14589423 -3 19 C-2.25 21.25 -2.25 21.25 -2 23 C-4.86697492 21.71480435 -6.97607712 20.42870746 -9 18 C-9 17.34 -9 16.68 -9 16 C-9.66 16 -10.32 16 -11 16 C-10.45276317 12.62537285 -9.9451 10.91765 -8 8 C-7.34 8 -6.68 8 -6 8 C-6 7.34 -6 6.68 -6 6 C-5.34 6 -4.68 6 -4 6 C-4 5.34 -4 4.68 -4 4 C-3.34 4 -2.68 4 -2 4 C-2 3.34 -2 2.68 -2 2 C-1.34 2 -0.68 2 0 2 C0 1.34 0 0.68 0 0 Z " fill="#8ED3ED" transform="translate(205,294)"/>
<path d="M0 0 C0.33 0.66 0.66 1.32 1 2 C0.34 2 -0.32 2 -1 2 C-1 2.66 -1 3.32 -1 4 C-1.66 4 -2.32 4 -3 4 C-3 4.66 -3 5.32 -3 6 C-3.66 6 -4.32 6 -5 6 C-5.268125 6.598125 -5.53625 7.19625 -5.8125 7.8125 C-6.99917406 9.99847854 -8.09599113 11.41332594 -10 13 C-10.66 13 -11.32 13 -12 13 C-12 13.66 -12 14.32 -12 15 C-12.66 15 -13.32 15 -14 15 C-14 15.66 -14 16.32 -14 17 C-14.66 16.67 -15.32 16.34 -16 16 C-15.67 14.35 -15.34 12.7 -15 11 C-13.35 10.67 -11.7 10.34 -10 10 C-9.67 8.35 -9.34 6.7 -9 5 C-8.34 5 -7.68 5 -7 5 C-7 4.34 -7 3.68 -7 3 C-4.64046906 0.64046906 -3.22104383 0.50858587 0 0 Z " fill="#89D3EE" transform="translate(212,250)"/>
<path d="M0 0 C1.16337891 0.00322266 2.32675781 0.00644531 3.52539062 0.00976562 C4.74033203 0.01814453 5.95527344 0.02652344 7.20703125 0.03515625 C8.43357422 0.03966797 9.66011719 0.04417969 10.92382812 0.04882812 C13.95577793 0.0606256 16.98763031 0.07708704 20.01953125 0.09765625 C20.01953125 0.42765625 20.01953125 0.75765625 20.01953125 1.09765625 C18.91496582 1.1116748 18.91496582 1.1116748 17.78808594 1.12597656 C14.44788907 1.1796978 11.10909006 1.26334247 7.76953125 1.34765625 C6.61066406 1.36183594 5.45179688 1.37601562 4.2578125 1.390625 C2.58525391 1.43896484 2.58525391 1.43896484 0.87890625 1.48828125 C-0.14750977 1.50922852 -1.17392578 1.53017578 -2.23144531 1.55175781 C-5.64110096 2.22884396 -6.73624019 3.51550784 -8.98046875 6.09765625 C-10.62868119 7.12778902 -12.29550577 8.12880253 -13.98046875 9.09765625 C-15.326787 10.0801047 -16.66488172 11.07442189 -17.98046875 12.09765625 C-16.42443104 8.27829097 -14.02441944 5.83721187 -10.98046875 3.09765625 C-10.32046875 3.09765625 -9.66046875 3.09765625 -8.98046875 3.09765625 C-8.98046875 2.43765625 -8.98046875 1.77765625 -8.98046875 1.09765625 C-5.74295197 0.01848399 -3.40295104 -0.01659976 0 0 Z " fill="#98D5EC" transform="translate(267.98046875,121.90234375)"/>
<path d="M0 0 C3.24271506 0.5590888 4.93057424 1.4132178 7 4 C7 4.66 7 5.32 7 6 C10.4019487 8.09350689 13.05272412 8.17942163 17 8 C16.05830937 10.43270079 15.47018066 11.72437686 13.1875 13.0625 C11 13 11 13 8.25 10.6875 C6 8 6 8 6 6 C5.34 6 4.68 6 4 6 C4 5.34 4 4.68 4 4 C3.34 4 2.68 4 2 4 C2 3.34 2 2.68 2 2 C1.34 2 0.68 2 0 2 C0 1.34 0 0.68 0 0 Z " fill="#B7E6F5" transform="translate(162,276)"/>
<path d="M0 0 C0.66 0.33 1.32 0.66 2 1 C1.67 1.99 1.34 2.98 1 4 C0.34 4 -0.32 4 -1 4 C-1 4.66 -1 5.32 -1 6 C-1.66 6 -2.32 6 -3 6 C-3.144375 6.763125 -3.28875 7.52625 -3.4375 8.3125 C-4 11 -4 11 -5 14 C-7.64 14.33 -10.28 14.66 -13 15 C-13 14.34 -13 13.68 -13 13 C-12.34 13 -11.68 13 -11 13 C-11 12.34 -11 11.68 -11 11 C-9.01739574 9.31267723 -7.0167658 7.64633943 -5 6 C-4.67 5.34 -4.34 4.68 -4 4 C-3.34 4 -2.68 4 -2 4 C-2 3.34 -2 2.68 -2 2 C-1.34 2 -0.68 2 0 2 C0 1.34 0 0.68 0 0 Z " fill="#7CD0EF" transform="translate(229,270)"/>
<path d="M0 0 C0.66 0.33 1.32 0.66 2 1 C1.236875 1.721875 0.47375 2.44375 -0.3125 3.1875 C-2.72978071 5.71721237 -4.26351212 8.00061185 -6 11 C-7.65273302 12.95322994 -9.10064224 14.05984133 -11.3125 15.375 C-14.51633626 17.31220332 -17.16344621 19.55924441 -20 22 C-18.44396229 18.18063472 -16.04395069 15.73955562 -13 13 C-12.34 13 -11.68 13 -11 13 C-11 12.34 -11 11.68 -11 11 C-10.34 11 -9.68 11 -9 11 C-9 10.34 -9 9.68 -9 9 C-8.34 9 -7.68 9 -7 9 C-7 8.34 -7 7.68 -7 7 C-6.34 7 -5.68 7 -5 7 C-4.731875 6.401875 -4.46375 5.80375 -4.1875 5.1875 C-3.01506533 3.02775192 -1.80630718 1.64209744 0 0 Z " fill="#C6EDF9" transform="translate(242,140)"/>
<path d="M0 0 C1.98 0.66 3.96 1.32 6 2 C5.67 3.32 5.34 4.64 5 6 C5.66 6 6.32 6 7 6 C7.268125 6.7425 7.53625 7.485 7.8125 8.25 C8.94229421 10.86636554 10.20893202 12.80187111 12 15 C8.18063472 13.44396229 5.73955562 11.04395069 3 8 C3 7.34 3 6.68 3 6 C2.34 6 1.68 6 1 6 C0.34 4.35 -0.32 2.7 -1 1 C-0.67 0.67 -0.34 0.34 0 0 Z " fill="#6B9BBF" transform="translate(234,345)"/>
<path d="M0 0 C0.33 0 0.66 0 1 0 C1.125 2.375 1.125 2.375 1 5 C-1.1385485 7.1385485 -2.13275314 7.42655063 -5 8 C-5 8.99 -5 9.98 -5 11 C-6.32 11 -7.64 11 -9 11 C-9.33 11.99 -9.66 12.98 -10 14 C-12.0625 14.6875 -12.0625 14.6875 -14 15 C-14 14.34 -14 13.68 -14 13 C-13.34 13 -12.68 13 -12 13 C-12 12.34 -12 11.68 -12 11 C-11.34 11 -10.68 11 -10 11 C-10 10.34 -10 9.68 -10 9 C-8.55063815 7.7482784 -7.09548243 6.50189735 -5.59765625 5.30859375 C-3.82171199 3.89800446 -3.82171199 3.89800446 -1.6875 1.6875 C-1.130625 1.130625 -0.57375 0.57375 0 0 Z " fill="#9BDCF3" transform="translate(256,244)"/>
<path d="M0 0 C2.31 0 4.62 0 7 0 C7.33 1.32 7.66 2.64 8 4 C7.34 4 6.68 4 6 4 C6 4.66 6 5.32 6 6 C4.02 6.99 2.04 7.98 0 9 C-1.125 2.25 -1.125 2.25 0 0 Z " fill="#6AC9F4" transform="translate(330,123)"/>
<path d="M0 0 C0.99 0.33 1.98 0.66 3 1 C2.67 2.65 2.34 4.3 2 6 C-1.3 6.66 -4.6 7.32 -8 8 C-7.67 7.01 -7.34 6.02 -7 5 C-6.01 4.67 -5.02 4.34 -4 4 C-2.62804426 2.70644173 -1.28817344 1.37701298 0 0 Z " fill="#012F54" transform="translate(245,337)"/>
<path d="M0 0 C0 3 0 3 -1.6796875 5.04296875 C-2.76636719 6.10451172 -2.76636719 6.10451172 -3.875 7.1875 C-4.59429687 7.90292969 -5.31359375 8.61835938 -6.0546875 9.35546875 C-8 11 -8 11 -10 11 C-10 11.66 -10 12.32 -10 13 C-10.66 13 -11.32 13 -12 13 C-12 13.66 -12 14.32 -12 15 C-12.66 14.67 -13.32 14.34 -14 14 C-13.67 13.01 -13.34 12.02 -13 11 C-13.66 11 -14.32 11 -15 11 C-15 10.34 -15 9.68 -15 9 C-14.01 9 -13.02 9 -12 9 C-6.54822224 8.29762372 -3.44534986 3.92859374 0 0 Z " fill="#B4E7F8" transform="translate(236,226)"/>
<path d="M0 0 C0.66 0.33 1.32 0.66 2 1 C-0.87785969 5.64885026 -3.91012999 9.34522255 -8 13 C-8.99 13 -9.98 13 -11 13 C-11 12.34 -11 11.68 -11 11 C-10.34 11 -9.68 11 -9 11 C-9 10.34 -9 9.68 -9 9 C-8.34 9 -7.68 9 -7 9 C-6.773125 8.443125 -6.54625 7.88625 -6.3125 7.3125 C-4.64103234 4.36753316 -2.44723648 2.31843456 0 0 Z " fill="#A6DFF3" transform="translate(160,222)"/>
<path d="M0 0 C0.78375 0.04125 1.5675 0.0825 2.375 0.125 C2.375 0.785 2.375 1.445 2.375 2.125 C1.715 2.125 1.055 2.125 0.375 2.125 C0.106875 2.723125 -0.16125 3.32125 -0.4375 3.9375 C-1.62417406 6.12347854 -2.72099113 7.53832594 -4.625 9.125 C-5.285 9.125 -5.945 9.125 -6.625 9.125 C-6.625 7.475 -6.625 5.825 -6.625 4.125 C-5.965 4.125 -5.305 4.125 -4.625 4.125 C-4.625 3.465 -4.625 2.805 -4.625 2.125 C-2.625 0.125 -2.625 0.125 0 0 Z " fill="#9ADBF1" transform="translate(193.625,266.875)"/>
<path d="M0 0 C0 3 0 3 -1.2421875 4.60546875 C-1.78101563 5.12753906 -2.31984375 5.64960938 -2.875 6.1875 C-3.40867188 6.71730469 -3.94234375 7.24710938 -4.4921875 7.79296875 C-6 9 -6 9 -8 9 C-8 9.66 -8 10.32 -8 11 C-8.66 11 -9.32 11 -10 11 C-10 11.66 -10 12.32 -10 13 C-10.66 13 -11.32 13 -12 13 C-11.125 8.25 -11.125 8.25 -10 6 C-8.6078125 5.566875 -8.6078125 5.566875 -7.1875 5.125 C-3.81025773 3.93303214 -2.31437551 2.67043328 0 0 Z " fill="#AEE3F6" transform="translate(249,213)"/>
<path d="M0 0 C0 3 0 3 -1.2421875 4.60546875 C-1.78101563 5.12753906 -2.31984375 5.64960938 -2.875 6.1875 C-3.40867187 6.71730469 -3.94234375 7.24710938 -4.4921875 7.79296875 C-6 9 -6 9 -8 9 C-8 9.66 -8 10.32 -8 11 C-8.66 11 -9.32 11 -10 11 C-10 11.66 -10 12.32 -10 13 C-10.66 12.67 -11.32 12.34 -12 12 C-11.25 7.25 -11.25 7.25 -9 5 C-7.5459375 4.5359375 -7.5459375 4.5359375 -6.0625 4.0625 C-3.14160484 3.04912821 -1.91395315 2.33927607 0 0 Z " fill="#AAE2F7" transform="translate(318,144)"/>
<path d="M0 0 C2.86697492 1.28519565 4.97607712 2.57129254 7 5 C7 5.66 7 6.32 7 7 C7.66 7 8.32 7 9 7 C9 7.66 9 8.32 9 9 C9.66 9 10.32 9 11 9 C11 9.66 11 10.32 11 11 C11.66 11 12.32 11 13 11 C13 11.66 13 12.32 13 13 C12.01 13 11.02 13 10 13 C10 12.34 10 11.68 10 11 C9.34 11 8.68 11 8 11 C8 10.34 8 9.68 8 9 C7.4225 8.814375 6.845 8.62875 6.25 8.4375 C2.89572157 6.29448878 1.82092004 3.51177437 0 0 Z " fill="#87ABC6" transform="translate(312,347)"/>
<path d="M0 0 C0 0.66 0 1.32 0 2 C0.66 2 1.32 2 2 2 C2 2.66 2 3.32 2 4 C2.66 4 3.32 4 4 4 C4 4.66 4 5.32 4 6 C4.598125 6.268125 5.19625 6.53625 5.8125 6.8125 C7.97224808 7.98493467 9.35790256 9.19369282 11 11 C10.67 11.66 10.34 12.32 10 13 C9.0925 12.236875 8.185 11.47375 7.25 10.6875 C5.40994052 9.143943 3.58571132 7.70563699 1.625 6.3125 C1.08875 5.879375 0.5525 5.44625 0 5 C0 4.34 0 3.68 0 3 C-0.99 3.33 -1.98 3.66 -3 4 C-3.66 3.34 -4.32 2.68 -5 2 C-2 0 -2 0 0 0 Z " fill="#85AECD" transform="translate(280,313)"/>
<path d="M0 0 C1.32 0.33 2.64 0.66 4 1 C0.25 4 0.25 4 -2 4 C-2.33 5.32 -2.66 6.64 -3 8 C-3.99 8 -4.98 8 -6 8 C-6.66 9.32 -7.32 10.64 -8 12 C-8.66 12 -9.32 12 -10 12 C-9.1875 10.0625 -9.1875 10.0625 -8 8 C-7.01 7.67 -6.02 7.34 -5 7 C-4.835 6.34 -4.67 5.68 -4.5 5 C-4.335 4.34 -4.17 3.68 -4 3 C-3.01 2.67 -2.02 2.34 -1 2 C-0.67 1.34 -0.34 0.68 0 0 Z " fill="#5DC2EA" transform="translate(247,255)"/>
<path d="M0 0 C0.66 0 1.32 0 2 0 C2 0.99 2 1.98 2 3 C1.34 3 0.68 3 0 3 C-0.33 3.99 -0.66 4.98 -1 6 C-1.66 6 -2.32 6 -3 6 C-3.33 6.99 -3.66 7.98 -4 9 C-4.99 9 -5.98 9 -7 9 C-7.33 9.99 -7.66 10.98 -8 12 C-8.66 11.67 -9.32 11.34 -10 11 C-9.34 10.01 -8.68 9.02 -8 8 C-7.34 8 -6.68 8 -6 8 C-6 7.34 -6 6.68 -6 6 C-5.34 6 -4.68 6 -4 6 C-4 5.34 -4 4.68 -4 4 C-3.34 4 -2.68 4 -2 4 C-2 3.34 -2 2.68 -2 2 C-1.34 2 -0.68 2 0 2 C0 1.34 0 0.68 0 0 Z " fill="#9CDCF1" transform="translate(205,294)"/>
<path d="M0 0 C0.66 0 1.32 0 2 0 C2 0.99 2 1.98 2 3 C1.071875 3.680625 1.071875 3.680625 0.125 4.375 C-2.4277009 6.32706539 -3.02345207 7.98897721 -4 11 C-5.65 11 -7.3 11 -9 11 C-9 10.34 -9 9.68 -9 9 C-7.28515625 7.34375 -7.28515625 7.34375 -5.0625 5.5 C-2.07954821 3.11073001 -2.07954821 3.11073001 0 0 Z " fill="#9ADEF5" transform="translate(240,259)"/>
<path d="M0 0 C0.33 0.66 0.66 1.32 1 2 C1.66 2.33 2.32 2.66 3 3 C0.36 5.64 -2.28 8.28 -5 11 C-5.33 9.68 -5.66 8.36 -6 7 C-5.01 7 -4.02 7 -3 7 C-3.061875 6.21625 -3.12375 5.4325 -3.1875 4.625 C-3.125625 3.75875 -3.06375 2.8925 -3 2 C-2.01 1.34 -1.02 0.68 0 0 Z " fill="#5CC3ED" transform="translate(317,257)"/>
<path d="M0 0 C0.99 0.33 1.98 0.66 3 1 C2.67 1.66 2.34 2.32 2 3 C1.34 3 0.68 3 0 3 C0 3.66 0 4.32 0 5 C-0.61875 5.268125 -1.2375 5.53625 -1.875 5.8125 C-4.2995233 6.95556848 -4.2995233 6.95556848 -6 10 C-6.99 9.67 -7.98 9.34 -9 9 C-6.03 6.03 -3.06 3.06 0 0 Z " fill="#02446F" transform="translate(247,332)"/>
<path d="M0 0 C1.60875 0.928125 1.60875 0.928125 3.25 1.875 C5.79780984 3.3323679 8.35259355 4.72924491 11 6 C10.01 7.485 10.01 7.485 9 9 C8.34 9 7.68 9 7 9 C7 8.34 7 7.68 7 7 C6.401875 6.731875 5.80375 6.46375 5.1875 6.1875 C3.00152146 5.00082594 1.58667406 3.90400887 0 2 C0 1.34 0 0.68 0 0 Z " fill="#96D8F1" transform="translate(224,338)"/>
<path d="M0 0 C2.86697492 1.28519565 4.97607712 2.57129254 7 5 C7 5.66 7 6.32 7 7 C7.66 7 8.32 7 9 7 C9 7.66 9 8.32 9 9 C9.66 9 10.32 9 11 9 C10.67 9.66 10.34 10.32 10 11 C6.535 9.02 6.535 9.02 3 7 C3 6.01 3 5.02 3 4 C1.56009377 1.82967524 1.56009377 1.82967524 0 0 Z " fill="#95B9D2" transform="translate(299,334)"/>
<path d="M0 0 C0 3 0 3 -1.875 5.1875 C-4 7 -4 7 -6 7 C-6 7.66 -6 8.32 -6 9 C-6.66 9 -7.32 9 -8 9 C-8 9.66 -8 10.32 -8 11 C-8.66 10.67 -9.32 10.34 -10 10 C-9.67 8.35 -9.34 6.7 -9 5 C-8.2575 4.9175 -7.515 4.835 -6.75 4.75 C-3.48778646 3.8603054 -2.19045122 2.51496251 0 0 Z " fill="#C1EDF8" transform="translate(206,256)"/>
<path d="M0 0 C2.97 0.495 2.97 0.495 6 1 C6 1.99 6 2.98 6 4 C3.03 3.505 3.03 3.505 0 3 C-0.33 3.99 -0.66 4.98 -1 6 C-1.33 5.01 -1.66 4.02 -2 3 C-1.34 2.01 -0.68 1.02 0 0 Z " fill="#226AA3" transform="translate(306,344)"/>
<path d="M0 0 C0.804375 0.495 0.804375 0.495 1.625 1 C4.5391061 2.22699204 6.86867708 2.14233286 10 2 C9.34 3.32 8.68 4.64 8 6 C4.74456771 5.65120368 3.98126893 4.97866739 1.75 2.4375 C1.1725 1.633125 0.595 0.82875 0 0 Z " fill="#94D3EB" transform="translate(169,282)"/>
<path d="M0 0 C-1.24176695 0.70226141 -2.49385599 1.38629109 -3.75 2.0625 C-4.79414063 2.63677734 -4.79414063 2.63677734 -5.859375 3.22265625 C-8.36140628 4.1312406 -9.5332355 3.88336837 -12 3 C-11.01 3 -10.02 3 -9 3 C-9 2.34 -9 1.68 -9 1 C-5.47051709 -0.66670026 -3.71727674 -1.13583456 0 0 Z " fill="#044981" transform="translate(264,337)"/>
<path d="M0 0 C1.32 0.66 2.64 1.32 4 2 C1.03 4.475 1.03 4.475 -2 7 C-1.125 2.25 -1.125 2.25 0 0 Z " fill="#5FC1EC" transform="translate(276,298)"/>
<path d="M0 0 C0.66 0 1.32 0 2 0 C2 0.66 2 1.32 2 2 C2.66 2 3.32 2 4 2 C4 2.66 4 3.32 4 4 C4.66 4 5.32 4 6 4 C6 4.66 6 5.32 6 6 C5.01 6 4.02 6 3 6 C3 5.34 3 4.68 3 4 C2.01 4 1.02 4 0 4 C0 2.68 0 1.36 0 0 Z " fill="#769FC1" transform="translate(334,369)"/>
<path d="M0 0 C-3.3 0.66 -6.6 1.32 -10 2 C-9.67 1.01 -9.34 0.02 -9 -1 C-4.80410573 -2.16552619 -4.17908064 -2.08954032 0 0 Z " fill="#003263" transform="translate(247,343)"/>
<path d="M0 0 C0.99 0.66 1.98 1.32 3 2 C0.03 4.475 0.03 4.475 -3 7 C-1.125 1.125 -1.125 1.125 0 0 Z " fill="#65C3EB" transform="translate(259,199)"/>
<path d="M0 0 C0.66 0.33 1.32 0.66 2 1 C1.25 2.9375 1.25 2.9375 0 5 C-2.125 5.75 -2.125 5.75 -4 6 C-4 5.34 -4 4.68 -4 4 C-3.34 4 -2.68 4 -2 4 C-2 3.34 -2 2.68 -2 2 C-1.34 2 -0.68 2 0 2 C0 1.34 0 0.68 0 0 Z " fill="#AAE0F4" transform="translate(248,134)"/>
</svg>
