<?xml version="1.0" encoding="UTF-8"?>
<svg version="1.1" xmlns="http://www.w3.org/2000/svg" width="512" height="512">
<path d="M0 0 C4.94434554 1.68401472 9.07559988 4.44305528 13.4375 7.25 C14.26660889 7.77867676 15.09571777 8.30735352 15.94995117 8.85205078 C17.72455653 9.98397553 19.49804357 11.11765512 21.27050781 12.25292969 C24.86740476 14.55520112 28.47203857 16.84520693 32.07641602 19.13574219 C35.78634279 21.49404667 39.49392788 23.85602085 43.20166016 26.21777344 C47.80023762 29.14654813 52.40018027 32.07317691 57 35 C58.83334004 36.16665613 60.66667337 37.3333228 62.5 38.5 C63.86125 39.36625 63.86125 39.36625 65.25 40.25 C95.5 59.5 95.5 59.5 98.25073242 61.25048828 C100.08159753 62.41556948 101.9124894 63.58060864 103.7434082 64.74560547 C108.36472713 67.68618321 112.9855592 70.62752092 117.60546875 73.5703125 C126.2277429 79.06159325 134.85405227 84.54605253 143.5 90 C149.48969723 93.77859472 155.47386596 97.565695 161.44921875 101.36694336 C163.33982976 102.56904827 165.23173354 103.76912268 167.125 104.96704102 C171.22094541 107.56389086 175.29434306 110.17703154 179.29296875 112.921875 C179.92871826 113.35218018 180.56446777 113.78248535 181.21948242 114.22583008 C182.86354076 115.34463736 184.49489241 116.48205607 186.125 117.62109375 C189.82036335 119.39346231 191.11905341 119.31267311 195 118 C198.12894544 116.28866624 201.05396405 114.31894704 204 112.3125 C205.79351114 111.11864959 207.58780992 109.92598179 209.3828125 108.734375 C210.30868164 108.11626953 211.23455078 107.49816406 212.18847656 106.86132812 C216.7116233 103.86684474 221.29234482 100.96476633 225.875 98.0625 C227.72661268 96.88679777 229.5781749 95.71101607 231.4296875 94.53515625 C232.34975586 93.95137207 233.26982422 93.36758789 234.21777344 92.76611328 C238.81447411 89.84820062 243.40703978 86.92379532 248 84 C249.83331322 82.83330173 251.66664656 81.66663508 253.5 80.5 C254.4075 79.9225 255.315 79.345 256.25 78.75 C363.88671875 10.25390625 363.88671875 10.25390625 366.39990234 8.67236328 C368.27065829 7.46910711 370.11746081 6.22830974 371.94775391 4.96435547 C372.92019043 4.3045166 373.89262695 3.64467773 374.89453125 2.96484375 C376.21674683 2.04433228 376.21674683 2.04433228 377.56567383 1.10522461 C380 0 380 0 382.18261719 0.69213867 C391.37158299 7.30488583 396.62645656 17.09892154 399 28 C399.08936375 29.33667444 399.13244999 30.67698821 399.13701439 32.01663876 C399.1446262 33.20788071 399.1446262 33.20788071 399.15239179 34.42318815 C399.15288955 35.28980544 399.15338731 36.15642273 399.15390015 37.04930115 C399.1582824 37.97459643 399.16266465 38.89989171 399.1671797 39.85322624 C399.18055998 42.9613163 399.18674493 46.06937801 399.19287109 49.17749023 C399.20077284 51.40326566 399.20904184 53.62903982 399.21765137 55.85481262 C399.24386918 63.17272722 399.25918159 70.49064753 399.2734375 77.80859375 C399.27879781 80.32933112 399.28417532 82.85006845 399.28956985 85.37080574 C399.31120072 95.85969598 399.33008673 106.34858609 399.34119225 116.83749294 C399.3441217 119.55824729 399.34708339 122.2790016 399.35009766 124.99975586 C399.35084371 125.67594399 399.35158976 126.35213211 399.35235842 127.04881079 C399.36499547 137.9876832 399.39819735 148.92639246 399.43989949 159.86518871 C399.48241515 171.11012833 399.50549153 182.35498793 399.51111281 193.60001713 C399.51476066 199.90782923 399.52672188 206.21536487 399.55921555 212.5230999 C399.58937631 218.46327553 399.59557916 224.4030086 399.58383179 230.34324455 C399.58361171 232.51636915 399.59186206 234.68951476 399.60948563 236.8625679 C399.73997519 253.88758535 397.76119598 266.75273233 386 280 C373.88093431 291.55030087 360.5527696 294.30918518 344.3117981 294.26069641 C342.9341848 294.26372099 341.55657318 294.26761201 340.1789645 294.27228898 C336.41238052 294.28253821 332.64589206 294.28039504 328.87930036 294.27610838 C324.80967012 294.27363556 320.74006254 294.28266221 316.67044067 294.29014587 C308.704972 294.30287938 300.73953705 294.30468825 292.77405991 294.30234561 C286.29791555 294.30056081 279.82178141 294.30231557 273.34563828 294.30657005 C272.42306298 294.30716524 271.50048769 294.30776043 270.54995557 294.30837366 C268.67559442 294.30958544 266.80123327 294.31079957 264.92687212 294.31201603 C247.35870852 294.32288634 229.79056413 294.32073147 212.22239946 294.31463119 C196.16106039 294.30946229 180.09978198 294.32071766 164.03845491 294.33972941 C147.53428001 294.35911513 131.0301338 294.36736253 114.52594745 294.36360615 C105.26507183 294.36169525 96.00424782 294.3641709 86.7433815 294.37832069 C78.85962229 294.3902448 70.97594649 294.39162781 63.09218611 294.37953053 C59.07257769 294.37364912 55.05312175 294.37252189 51.03352356 294.38453293 C47.34840079 294.39541624 43.66355738 294.39225957 39.97844754 294.37827124 C38.02554465 294.37438761 36.07262924 294.38515137 34.11975586 294.39656812 C19.65371641 294.30820597 6.77905771 290.34792449 -3.8984375 280.29296875 C-7.60099903 276.25318508 -10.54436205 271.89335154 -13 267 C-13.33448402 266.35793326 -13.66896805 265.71586653 -14.01358795 265.05434322 C-18.39935759 255.15462331 -17.5609448 244.61315333 -17.51757812 234.01196289 C-17.52300435 231.78352909 -17.53012981 229.55509888 -17.53881836 227.32667542 C-17.55699596 221.29769762 -17.55000676 215.26899478 -17.53730202 209.24001241 C-17.5271443 202.91687252 -17.5365755 196.59375548 -17.54284668 190.27061462 C-17.55058057 178.97348148 -17.5381824 167.67648734 -17.51780933 156.37938201 C-17.49994479 146.1572379 -17.50304157 135.93527558 -17.52148438 125.71313477 C-17.54293982 113.81579579 -17.55083198 101.91856705 -17.53903532 90.02120203 C-17.53281528 83.7331614 -17.53192366 77.4452457 -17.54518127 71.15721321 C-17.55678014 65.24321412 -17.54864014 59.32955651 -17.52560425 53.4155941 C-17.52033848 51.25174144 -17.52179414 49.08785979 -17.53065491 46.92401886 C-17.59517134 29.56106683 -15.85726485 15.79837359 -3.125 2.9375 C-2.09087051 1.9503764 -1.05204569 0.96800654 0 0 Z M31 77 C31 137.72 31 198.44 31 261 C136.6 261 242.2 261 351 261 C351 200.28 351 139.56 351 77 C345.27083555 80.18286914 339.75995086 83.34745655 334.3125 86.9375 C332.82342792 87.90963772 331.33381723 88.8809508 329.84375 89.8515625 C328.668125 90.61774902 328.668125 90.61774902 327.46875 91.39941406 C323.10086899 94.23127996 318.70637518 97.0212021 314.3125 99.8125 C312.92381714 100.6950647 312.92381714 100.6950647 311.50708008 101.59545898 C309.61502743 102.79771267 307.72285562 103.99977885 305.83056641 105.20166016 C301.21865776 108.1317377 296.60944299 111.06604578 292 114 C290.16668008 115.16668774 288.33334673 116.33335439 286.5 117.5 C285.5925 118.0775 284.685 118.655 283.75 119.25 C266.33333333 130.33333333 248.91666667 141.41666667 231.5 152.5 C230.13681641 153.36806274 230.13681641 153.36806274 228.74609375 154.25366211 C226.92720229 155.41035935 225.1069056 156.56485008 223.28515625 157.71704102 C218.46653802 160.76886137 213.68397869 163.86428914 208.9375 167.02734375 C207.94363281 167.68154297 206.94976562 168.33574219 205.92578125 169.00976562 C204.01810711 170.26669111 202.11913724 171.53695879 200.23046875 172.82226562 C193.95874139 176.92662693 193.95874139 176.92662693 189.9375 177.234375 C185.60701728 175.41465088 181.8742452 172.95111947 178 170.3125 C176.20648886 169.11864959 174.41219008 167.92598179 172.6171875 166.734375 C171.22838379 165.8072168 171.22838379 165.8072168 169.81152344 164.86132812 C165.28837597 161.86684425 160.70763713 158.96479588 156.125 156.0625 C154.26948824 154.88418231 152.41401971 153.70579655 150.55859375 152.52734375 C149.63804199 151.9432373 148.71749023 151.35913086 147.76904297 150.75732422 C143.23989248 147.88297885 138.71345443 145.00437454 134.1875 142.125 C133.28789551 141.55273682 132.38829102 140.98047363 131.46142578 140.39086914 C123.40609219 135.26390634 115.36459483 130.1154346 107.32373047 124.96582031 C97.79470036 118.86476405 88.25031629 112.78805239 78.70166016 106.71777344 C75.05092616 104.39655851 71.40111641 102.07389295 67.75146484 99.75097656 C65.93299427 98.59373868 64.11431307 97.43683167 62.29541016 96.28027344 C57.44632333 93.19647411 52.60145754 90.10626564 47.76171875 87.0078125 C46.23708008 86.03328125 46.23708008 86.03328125 44.68164062 85.0390625 C42.71692709 83.78308125 40.7533456 82.52532705 38.79101562 81.265625 C37.91509766 80.70617187 37.03917969 80.14671875 36.13671875 79.5703125 C35.36030029 79.07289551 34.58388184 78.57547852 33.78393555 78.06298828 C32.20292822 76.91468621 32.20292822 76.91468621 31 77 Z " fill="#FFFFFF" transform="translate(65,123)"/>
<path d="M0 0 C1.3706383 -0.0023068 2.74127537 -0.0054848 4.11190987 -0.00945449 C7.86374657 -0.01778098 11.61548115 -0.01368701 15.36731815 -0.00748205 C19.41918177 -0.00294977 23.47102804 -0.00994517 27.52288818 -0.01544189 C35.45473788 -0.02432924 43.38654969 -0.02241681 51.31840086 -0.01661661 C57.7655134 -0.01209754 64.21261533 -0.01148828 70.659729 -0.01366425 C71.57775523 -0.01397071 72.49578146 -0.01427718 73.44162667 -0.01459293 C75.30665255 -0.01523239 77.17167843 -0.01588082 79.0367043 -0.01653811 C96.51988772 -0.02223948 114.00305016 -0.01568655 131.48623013 -0.00493738 C146.48350638 0.00399795 161.48075166 0.00244586 176.47802734 -0.0067749 C193.89919227 -0.01748094 211.32033882 -0.02169017 228.74150658 -0.01555037 C230.59962336 -0.01491329 232.45774015 -0.01428454 234.31585693 -0.01366425 C235.68715545 -0.01320142 235.68715545 -0.01320142 237.08615696 -0.01272924 C243.52458521 -0.01100331 249.96300178 -0.01391523 256.40142822 -0.01862335 C264.24905308 -0.02423588 272.09663793 -0.02270788 279.94425821 -0.01206186 C283.947254 -0.00681019 287.95018313 -0.00473984 291.95317841 -0.01136017 C295.61962904 -0.01733214 299.28595138 -0.01402396 302.95239043 -0.00340506 C304.90258216 -0.00012287 306.85278284 -0.00663086 308.80296516 -0.01351953 C315.05508021 0.01441056 320.50754428 0.38885919 326.48779297 2.25396729 C325.36130429 5.63343333 324.96984791 5.85702969 322.05029297 7.56646729 C321.3283374 7.99677246 320.60638184 8.42707764 319.86254883 8.87042236 C319.07887939 9.32699219 318.29520996 9.78356201 317.48779297 10.25396729 C315.8421086 11.23510863 314.1976058 12.21823416 312.55419922 13.20318604 C311.71260254 13.70640381 310.87100586 14.20962158 310.00390625 14.72808838 C306.09503636 17.09859457 302.25678562 19.5733965 298.42529297 22.06646729 C297.76078125 22.49765869 297.09626953 22.9288501 296.41162109 23.37310791 C295.76515625 23.79398682 295.11869141 24.21486572 294.45263672 24.64849854 C293.84210927 25.04051506 293.23158183 25.43253158 292.60255355 25.83642739 C291.20460098 26.77348549 289.83801337 27.75929777 288.5095132 28.79246598 C282.56335668 33.25261434 278.07575504 34.12843997 270.7454071 34.06297302 C269.69827209 34.07727193 268.65113707 34.09157083 267.57227069 34.10630304 C264.08107431 34.14646292 260.59126008 34.14405909 257.09985352 34.14141846 C254.58911708 34.16101986 252.07839869 34.18306035 249.56770325 34.20735168 C243.46403991 34.25862723 237.36087696 34.28123841 231.25701835 34.28805097 C226.28786455 34.29365147 221.31882226 34.30838196 216.34971046 34.32943153 C202.2270651 34.38799876 188.10469054 34.42031909 173.98192324 34.42064568 C172.8414706 34.42068016 172.8414706 34.42068016 171.67797852 34.42071533 C170.53611418 34.42074087 170.53611418 34.42074087 169.37118188 34.42076693 C157.05951793 34.42267961 144.74910829 34.48786091 132.43783405 34.58176669 C119.76315282 34.67766748 107.08908488 34.72428222 94.41403228 34.72113973 C87.31140181 34.7204003 80.21015051 34.73937254 73.10785484 34.81184959 C66.41654797 34.8797492 59.72853141 34.87901223 53.03687859 34.83412743 C50.59574699 34.82817435 48.15443868 34.84396763 45.71363449 34.88438797 C29.04201916 35.14276771 18.66977035 32.15525537 5.48565543 21.79220355 C2.71055457 19.65553956 -0.19348929 17.83224992 -3.17236328 15.99224854 C-4.08695313 15.41152588 -5.00154297 14.83080322 -5.94384766 14.23248291 C-6.81203125 13.68269775 -7.68021484 13.1329126 -8.57470703 12.56646729 C-10.41993309 11.39616863 -12.26499322 10.22560831 -14.10986328 9.05474854 C-14.8885376 8.56144043 -15.66721191 8.06813232 -16.46948242 7.55987549 C-18.16292289 6.47726367 -19.83985032 5.36887176 -21.51220703 4.25396729 C-21.51220703 3.59396729 -21.51220703 2.93396729 -21.51220703 2.25396729 C-14.30759619 0.00700755 -7.50907564 -0.02652445 0 0 Z " fill="#FFFFFF" transform="translate(103.51220703125,111.74603271484375)"/>
</svg>
