<?xml version="1.0" encoding="UTF-8"?>
<svg version="1.1" xmlns="http://www.w3.org/2000/svg" width="538" height="538">
<path d="M0 0 C5.52414335 2.22632502 7.47191478 6.86249705 10 12 C17.26686796 29.74307824 15.96700072 48.40537107 9 66 C7.40850149 69.70442815 5.74557805 73.36576373 4 77 C3.34 77 2.68 77 2 77 C1.73445313 77.71671875 1.46890625 78.4334375 1.1953125 79.171875 C-2.12120038 87.01878782 -7.32756419 93.72665216 -13.0859375 99.9296875 C-14.86766216 101.85685907 -16.52888596 103.84213458 -18.1875 105.875 C-19.92964056 107.93091319 -21.08048422 109.04746505 -23.4375 110.4375 C-26.01631011 112.00994519 -27.27889476 113.38647125 -29.1875 115.6875 C-32.58484459 119.72000032 -36.36070962 122.84114346 -40.51953125 126.0625 C-43.47253561 128.36909868 -46.27718741 130.80964242 -49.078125 133.296875 C-50.34908749 134.4231751 -51.63028115 135.53804489 -52.921875 136.640625 C-62.63402767 144.37384007 -62.63402767 144.37384007 -70 154 C-70.66 154 -71.32 154 -72 154 C-72.10699219 154.56332031 -72.21398437 155.12664062 -72.32421875 155.70703125 C-73.11190167 158.37968949 -74.31791385 160.33778354 -75.8125 162.6875 C-81.1753951 171.41509611 -84.1758812 178.77965812 -84.3125 189.0625 C-84.35600586 190.1134082 -84.35600586 190.1134082 -84.40039062 191.18554688 C-84.52619366 201.8981591 -79.13004408 211.18332883 -74.0625 220.3125 C-73.29389648 221.7365918 -73.29389648 221.7365918 -72.50976562 223.18945312 C-69.71019682 228.28701614 -66.81511055 232.62673019 -63 237 C-61.28361739 239.37063209 -59.66941233 241.80420575 -58.0625 244.25 C-57.6301001 244.90605225 -57.1977002 245.56210449 -56.75219727 246.23803711 C-55.49506722 248.15461442 -54.24609343 250.07623376 -53 252 C-52.35804688 252.98613281 -51.71609375 253.97226562 -51.0546875 254.98828125 C-48.34595093 259.30001411 -46.27493515 262.77623218 -46 268 C-49.46884299 267.614573 -51.05363348 266.14456548 -53.3828125 263.65625 C-56.26842858 260.70093305 -59.41203047 258.02182295 -62.5 255.28125 C-65.08100399 252.92608386 -67.54097432 250.48190034 -70 248 C-70.88300781 247.14019531 -71.76601562 246.28039062 -72.67578125 245.39453125 C-73.54589844 244.54246094 -74.41601562 243.69039062 -75.3125 242.8125 C-76.19550781 241.95269531 -77.07851562 241.09289062 -77.98828125 240.20703125 C-80 238 -80 238 -80 236 C-80.58652344 235.76023437 -81.17304688 235.52046875 -81.77734375 235.2734375 C-84.44154161 233.74702537 -85.73718802 232.08325014 -87.5625 229.625 C-88.14128906 228.85414063 -88.72007812 228.08328125 -89.31640625 227.2890625 C-89.87199219 226.53367188 -90.42757812 225.77828125 -91 225 C-91.56589844 224.28585938 -92.13179687 223.57171875 -92.71484375 222.8359375 C-94 221 -94 221 -94 219 C-94.60972656 218.74798828 -95.21945313 218.49597656 -95.84765625 218.23632812 C-98.33197531 216.80931001 -99.07359824 215.70822466 -100.4375 213.21875 C-100.85588135 212.46368164 -101.2742627 211.70861328 -101.70532227 210.93066406 C-102.34618774 209.72748535 -102.34618774 209.72748535 -103 208.5 C-103.66310181 207.27748535 -103.66310181 207.27748535 -104.33959961 206.03027344 C-111.14751002 193.3133956 -115.5389657 180.92241995 -111.87890625 166.41015625 C-108.61715164 157.46570026 -102.57921618 148.83633497 -96 142 C-95.34 142 -94.68 142 -94 142 C-93.76539063 141.43925781 -93.53078125 140.87851563 -93.2890625 140.30078125 C-87.3444808 129.69060361 -74.44404518 121.24775443 -64.8359375 114.14453125 C-61.92369181 111.94229587 -59.18285524 109.61514446 -56.44921875 107.19921875 C-55 106 -55 106 -52.375 104.4375 C-49.88607817 103.06019451 -49.88607817 103.06019451 -47.8125 100.8125 C-43.04601382 96.04601382 -37.62442851 92.04461291 -32.3125 87.90625 C-29.78905496 85.82611287 -28.00898918 83.57401739 -26 81 C-24.33333333 79.33333333 -22.66666667 77.66666667 -21 76 C-18.93596337 73.71809283 -16.96767247 71.36503698 -15 69 C-14.41863281 68.34257813 -13.83726562 67.68515625 -13.23828125 67.0078125 C-8.08584405 60.90535977 -5.4547695 54.55313691 -3 47 C-2.67902344 46.1234375 -2.35804688 45.246875 -2.02734375 44.34375 C2.03451189 31.49695076 0.78157667 16.09283849 -0.88769531 2.86767578 C-0.94328613 1.94317627 -0.94328613 1.94317627 -1 1 C-0.67 0.67 -0.34 0.34 0 0 Z " fill="#F6981F" transform="translate(317,26)"/>
<path d="M0 0 C1.24330078 -0.01836914 1.24330078 -0.01836914 2.51171875 -0.03710938 C7.24931608 -0.0484073 11.04658418 0.3584185 15.5 2.1875 C15.17 3.1775 14.84 4.1675 14.5 5.1875 C12.79070312 5.39052734 12.79070312 5.39052734 11.046875 5.59765625 C1.94152988 6.79350388 -6.63412288 8.57914554 -15.3125 11.625 C-16.14104492 11.91318604 -16.96958984 12.20137207 -17.82324219 12.49829102 C-22.53547858 14.22363361 -26.45059825 16.22054703 -30.5 19.1875 C-30.37177333 21.14091059 -30.37177333 21.14091059 -29.5 23.1875 C-22.7055358 27.01161983 -14.27801844 28.32870568 -6.6875 29.75 C-5.5830957 29.95979492 -4.47869141 30.16958984 -3.34082031 30.38574219 C13.7567796 33.48095623 31.12419886 34.82620581 48.45019531 35.91503906 C51.5 36.1875 51.5 36.1875 53.70684814 36.69644165 C57.22796883 37.31548272 60.67817011 37.3270091 64.24023438 37.31689453 C65.00346512 37.31864685 65.76669586 37.32039917 66.55305481 37.32220459 C69.06664326 37.32659249 71.58016088 37.3236959 74.09375 37.3203125 C75.84582533 37.32098642 77.59790057 37.32195718 79.34997559 37.32321167 C83.01831962 37.32468449 86.68663927 37.32254741 90.35498047 37.31787109 C95.05248709 37.31217406 99.74993657 37.31545528 104.4474411 37.32144356 C108.06427438 37.32506036 111.68109416 37.32390543 115.29792786 37.32131577 C117.02985135 37.3206496 118.76177607 37.32146408 120.49369812 37.32379532 C122.91575357 37.32634019 125.33771701 37.32245537 127.75976562 37.31689453 C128.82908073 37.31993088 128.82908073 37.31993088 129.91999817 37.32302856 C133.5850631 37.30747262 136.92943201 36.99273672 140.5 36.1875 C141.85839357 36.05015788 143.21999011 35.94129886 144.58300781 35.86206055 C145.74586807 35.79119736 145.74586807 35.79119736 146.93222046 35.71890259 C148.18006821 35.64728409 148.18006821 35.64728409 149.453125 35.57421875 C151.27200854 35.46225128 153.09085481 35.34967714 154.90966797 35.23657227 C155.86242615 35.17801056 156.81518433 35.11944885 157.79681396 35.05911255 C208.65585385 33.35830069 208.65585385 33.35830069 256.5625 18.875 C258.21958984 18.04548828 258.21958984 18.04548828 259.91015625 17.19921875 C262.76045913 15.38424907 262.76045913 15.38424907 263.4296875 12.13671875 C263.50578419 8.94488547 262.91743362 7.02236723 261.5 4.1875 C265.34108078 4.45548238 267.236021 4.982183 270.3125 7.375 C272.77666245 10.54320886 273.5 12.18880245 273.5 16.1875 C270.54165146 22.92596057 265.04876071 26.84546491 258.5 29.75 C257.84572021 30.0480957 257.19144043 30.34619141 256.51733398 30.65332031 C251.33210366 32.95564024 246.06438149 34.73868725 240.59765625 36.265625 C237.38712195 37.16977612 237.38712195 37.16977612 233.9375 38.61328125 C228.26512973 40.76951993 222.36876259 41.90771553 216.4375 43.125 C215.18195313 43.38442383 213.92640625 43.64384766 212.6328125 43.91113281 C199.63236464 46.5340675 186.53381749 48.1910494 173.36132812 49.68847656 C170.01921339 50.12039883 166.70783538 50.63476055 163.3815918 51.171875 C141.51894404 54.55826357 119.2351893 54.51610039 97.1628418 54.44824219 C93.44274588 54.43688033 89.72293749 54.44361508 86.00285149 54.45513153 C70.44605724 54.4957522 54.9547658 54.20821325 39.42578125 53.234375 C38.72815359 53.19127449 38.03052593 53.14817398 37.31175804 53.1037674 C25.88714466 52.38107233 25.88714466 52.38107233 23.5 51.1875 C20.97626818 50.8790001 18.46484605 50.61851732 15.93359375 50.390625 C14.33230941 50.23812669 12.73107448 50.0851089 11.12988281 49.93164062 C9.85981384 49.81139526 9.85981384 49.81139526 8.56408691 49.6887207 C-4.8784771 48.40300259 -18.29367768 46.9731513 -31.65402222 44.99743652 C-33.03227937 44.79363082 -34.4111203 44.593728 -35.79055786 44.39807129 C-44.12103562 43.20703338 -51.72222316 41.4305875 -59.5 38.1875 C-59.5 37.5275 -59.5 36.8675 -59.5 36.1875 C-60.11875 35.98125 -60.7375 35.775 -61.375 35.5625 C-63.5 34.1875 -63.5 34.1875 -65 31.5 C-65.55311212 27.83563224 -65.05778473 26.05976406 -63.01171875 22.98046875 C-57.65733581 16.62992154 -51.03336442 13.24272552 -43.390625 10.3046875 C-40.92782907 9.35285015 -38.61530695 8.28959769 -36.25 7.125 C-25.05370859 2.07126113 -12.17849186 0.00947006 0 0 Z " fill="#5A86A2" transform="translate(154.5,435.8125)"/>
<path d="M0 0 C-3.69567313 4.07579951 -7.23621451 6.46878806 -12.1875 8.8125 C-12.81591797 9.12380859 -13.44433594 9.43511719 -14.09179688 9.75585938 C-18.70338255 12 -18.70338255 12 -21 12 C-21.33 12.99 -21.66 13.98 -22 15 C-23.65478516 16.25512695 -23.65478516 16.25512695 -25.7890625 17.48828125 C-26.56636719 17.94783203 -27.34367187 18.40738281 -28.14453125 18.88085938 C-29.37236328 19.58952148 -29.37236328 19.58952148 -30.625 20.3125 C-36.60205811 23.77570628 -41.85697649 27.39124035 -47 32 C-48.42739596 33.11719786 -49.8634178 34.22357803 -51.3125 35.3125 C-62.95435822 44.34531699 -75.46331957 54.91634187 -79.75 69.5625 C-81.49169334 86.54401005 -71.22417006 99.14331466 -61.9609375 112.3984375 C-61 114 -61 114 -61 116 C-60.34 116 -59.68 116 -59 116 C-58.35004703 117.41478135 -57.70521278 118.83191487 -57.0625 120.25 C-56.70285156 121.03890625 -56.34320313 121.8278125 -55.97265625 122.640625 C-52.8072798 130.31888756 -52.86489716 139.40210867 -55.25 147.3125 C-61.25965014 161.67702959 -72.54120641 172.18610448 -85 181 C-86.05445313 181.76828125 -87.10890625 182.5365625 -88.1953125 183.328125 C-91 185 -91 185 -95 185 C-94.4175095 181.19207701 -92.69531838 179.23177271 -90.1875 176.375 C-83.52076899 168.16426845 -81.20830456 161.03630016 -81.5546875 150.40234375 C-82.44048375 143.63454956 -85.18879422 138.48281172 -90.1875 133.875 C-101.16980236 123.73379301 -110.54172231 105.63490726 -111.3359375 90.73828125 C-111.59482847 77.95393036 -109.88043964 66.47952923 -102 56 C-101.37738281 55.1646875 -100.75476563 54.329375 -100.11328125 53.46875 C-96.41249395 48.6753493 -92.76919432 44.70937336 -88 41 C-87.236875 40.195625 -86.47375 39.39125 -85.6875 38.5625 C-80.78950862 33.89232218 -75.34676369 30.35768862 -69 28 C-69 27.34 -69 26.68 -69 26 C-65.77380541 24.28601263 -62.54348588 22.57993582 -59.3125 20.875 C-57.97348633 20.1634375 -57.97348633 20.1634375 -56.60742188 19.4375 C-44.71787191 13.17538827 -32.93448754 8.03648769 -20.0625 4.125 C-18.77519936 3.71935647 -17.48808913 3.3131082 -16.20117188 2.90625 C-10.61615799 1.18598381 -5.88908727 -0.2492794 0 0 Z " fill="#F7981F" transform="translate(380,126)"/>
<path d="M0 0 C0.81791016 0.00451172 1.63582031 0.00902344 2.47851562 0.01367188 C4.46487647 0.02528802 6.4511988 0.04321552 8.4375 0.0625 C8.1075 1.0525 7.7775 2.0425 7.4375 3.0625 C4.75708008 4.12158203 4.75708008 4.12158203 1.20703125 5.0703125 C0.57899094 5.24126434 -0.04904938 5.41221619 -0.69612122 5.58834839 C-2.71110081 6.13328675 -4.73034826 6.66017453 -6.75 7.1875 C-8.09209306 7.54968549 -9.43389426 7.91295438 -10.77539062 8.27734375 C-16.34535593 9.77418397 -21.85320902 11.19332922 -27.5625 12.0625 C-27.5625 12.7225 -27.5625 13.3825 -27.5625 14.0625 C-28.40554687 14.46082031 -29.24859375 14.85914063 -30.1171875 15.26953125 C-31.21289062 15.79933594 -32.30859375 16.32914062 -33.4375 16.875 C-34.52804688 17.39707031 -35.61859375 17.91914063 -36.7421875 18.45703125 C-39.78471402 19.90974897 -39.78471402 19.90974897 -41.5625 23.0625 C15.78262246 43.30195498 96.84088976 27.04208745 155.51635742 18.37695312 C158.84052314 18.01911565 162.09670703 18.01021433 165.4375 18.0625 C164.4375 21.0625 164.4375 21.0625 161.78515625 22.44921875 C160.70105469 22.87847656 159.61695313 23.30773437 158.5 23.75 C157.41847656 24.18699219 156.33695313 24.62398438 155.22265625 25.07421875 C152.4375 26.0625 152.4375 26.0625 150.4375 26.0625 C150.4375 26.7225 150.4375 27.3825 150.4375 28.0625 C146.38215473 31.23061914 142.94017671 32.70717826 137.9140625 33.66015625 C136.65609863 33.90290283 135.39813477 34.14564941 134.10205078 34.39575195 C132.75566384 34.6395536 131.40914392 34.88262182 130.0625 35.125 C128.68075346 35.38396759 127.29908088 35.64333011 125.91748047 35.90307617 C114.42771583 38.02751061 102.88615391 39.57794495 91.26220703 40.76879883 C89.42260449 40.88214447 89.42260449 40.88214447 88.4375 42.0625 C86.90733612 42.2794804 85.36826196 42.43420298 83.828125 42.5625 C82.84328125 42.645 81.8584375 42.7275 80.84375 42.8125 C79.8021875 42.895 78.760625 42.9775 77.6875 43.0625 C76.72328125 43.145 75.7590625 43.2275 74.765625 43.3125 C56.71531965 44.78599431 38.6670672 45.26840027 20.5625 45.25 C19.54678925 45.24972809 18.53107849 45.24945618 17.48458862 45.24917603 C-28.551657 45.19284686 -28.551657 45.19284686 -50.5625 40.0625 C-52.11771261 39.74486959 -53.67375826 39.43129979 -55.23046875 39.12109375 C-56.84137241 38.79016355 -58.45205404 38.45815044 -60.0625 38.125 C-60.79315674 37.97949707 -61.52381348 37.83399414 -62.27661133 37.68408203 C-68.24149382 36.39167943 -74.17115668 34.45384332 -78.5625 30.0625 C-79 26.6875 -79 26.6875 -78.5625 23.0625 C-60.49791391 5.76875895 -23.86445571 -0.25533986 0 0 Z " fill="#5985A1" transform="translate(207.5625,292.9375)"/>
<path d="M0 0 C0.66 0.66 1.32 1.32 2 2 C1.319375 2.763125 0.63875 3.52625 -0.0625 4.3125 C-0.701875 5.199375 -1.34125 6.08625 -2 7 C-1.33764245 10.15796926 -1.33764245 10.15796926 1.23681641 11.13647461 C3.93148418 11.97858805 6.41194935 12.47169951 9.2109375 12.81640625 C10.20182373 12.94031738 11.19270996 13.06422852 12.21362305 13.19189453 C13.25687744 13.31419434 14.30013184 13.43649414 15.375 13.5625 C16.44468018 13.69253418 17.51436035 13.82256836 18.61645508 13.95654297 C25.76459145 14.80244439 32.88353122 15.4407247 40.07421875 15.7890625 C43 16 43 16 45.26953125 16.5234375 C55.05589307 18.23150065 65.22909885 16.34330614 75 15.1875 C76.57250402 15.00621642 78.14501381 14.82498292 79.7175293 14.64379883 C89.11153723 13.54591686 98.42424375 12.25218052 107.70703125 10.41796875 C113.36749157 9.69949988 117.39015113 10.93534992 122.375 13.5625 C123.24898437 14.01753906 124.12296875 14.47257812 125.0234375 14.94140625 C125.67570313 15.29074219 126.32796875 15.64007813 127 16 C127 16.66 127 17.32 127 18 C127.71542969 18.12246094 128.43085938 18.24492187 129.16796875 18.37109375 C132.05112713 19.01135375 134.58592473 19.93551556 137.3125 21.0625 C138.19550781 21.42472656 139.07851563 21.78695313 139.98828125 22.16015625 C140.65214844 22.43730469 141.31601562 22.71445312 142 23 C141.74267578 24.87719727 141.74267578 24.87719727 141 27 C139.32373047 28.10913086 139.32373047 28.10913086 137.1171875 28.96484375 C136.29186523 29.28751221 135.46654297 29.61018066 134.61621094 29.94262695 C133.71161133 30.27093506 132.80701172 30.59924316 131.875 30.9375 C130.93430664 31.28449951 129.99361328 31.63149902 129.02441406 31.98901367 C118.55542028 35.7102651 107.9394762 38.13365194 97 40 C95.56309814 40.24556641 95.56309814 40.24556641 94.09716797 40.49609375 C60.12136462 46.00783795 12.41003391 48.65063945 -17 28 C-17.76441406 27.47664063 -18.52882812 26.95328125 -19.31640625 26.4140625 C-19.87199219 25.94742187 -20.42757812 25.48078125 -21 25 C-21 24.34 -21 23.68 -21 23 C-21.66 23 -22.32 23 -23 23 C-24.32745236 15.88002823 -24.32745236 15.88002823 -23 12.3125 C-16.79979533 5.14351335 -8.74253574 2.84950888 0 0 Z " fill="#5885A1" transform="translate(205,400)"/>
<path d="M0 0 C-1.64628821 4.68558952 -1.64628821 4.68558952 -3.6875 6.5 C-5.2581308 7.98218775 -5.2581308 7.98218775 -5.125 10.5 C-3.71526646 13.6327412 -2.12402707 14.11302214 0.97607422 15.34863281 C4.31466017 16.42310173 7.64460587 16.79507416 11.125 17.125 C11.7953125 17.19847656 12.465625 17.27195312 13.15625 17.34765625 C15.43572147 17.58916159 17.71688558 17.7958558 20 18 C20.87744873 18.08757568 21.75489746 18.17515137 22.65893555 18.26538086 C33.60789144 19.25471738 44.57701503 19.28631316 55.5625 19.3125 C56.61613739 19.31511841 57.66977478 19.31773682 58.75534058 19.32043457 C84.00660598 19.32711322 108.68455398 16.95374991 133.48266602 12.13183594 C134.32627686 11.96844727 135.1698877 11.80505859 136.0390625 11.63671875 C137.12501709 11.41568481 137.12501709 11.41568481 138.23291016 11.19018555 C140 11 140 11 142 12 C142 12.66 142 13.32 142 14 C142.50015625 14.24492187 143.0003125 14.48984375 143.515625 14.7421875 C146.9554311 16.48372455 150.35047882 18.30635256 153.75 20.125 C154.79607422 20.68380859 154.79607422 20.68380859 155.86328125 21.25390625 C157.57577295 22.16879908 159.28792068 23.08433569 161 24 C161 24.66 161 25.32 161 26 C153.0633204 29.14395049 145.17203675 31.30327663 136.8125 33 C135.56364014 33.25491211 134.31478027 33.50982422 133.02807617 33.77246094 C113.88207906 37.58486996 94.44572976 39.67694 75 41.25 C74.01749268 41.33024414 73.03498535 41.41048828 72.02270508 41.49316406 C58.36044793 42.48309928 44.93877584 42.07892242 31.3125 40.75 C30.62466431 40.68408661 29.93682861 40.61817322 29.22814941 40.55026245 C-15.55607134 36.21136274 -15.55607134 36.21136274 -26 24 C-27.62206729 21.29135558 -28.01217342 20.28607526 -27.875 17.0625 C-26.47449566 12.16073482 -24.11171154 9.66836633 -19.7578125 7.05078125 C-18.55294031 6.45884513 -17.3417799 5.8795556 -16.125 5.3125 C-15.52558594 5.01794922 -14.92617187 4.72339844 -14.30859375 4.41992188 C-5.15091292 0 -5.15091292 0 0 0 Z " fill="#5A86A2" transform="translate(195,348)"/>
<path d="M0 0 C0.66 0.33 1.32 0.66 2 1 C2.84502308 6.49265002 0.8505562 9.53357914 -2.23828125 13.83203125 C-4.86008355 17.05841768 -7.63252386 19.57323581 -11 22 C-11.63679688 22.47953125 -12.27359375 22.9590625 -12.9296875 23.453125 C-18.71488521 27.36482452 -24.99361006 29.58873452 -31.5625 31.8125 C-32.4488916 32.11470459 -33.3352832 32.41690918 -34.24853516 32.72827148 C-39.8645209 34.55109515 -45.1124488 35.53975488 -51 36 C-51 36.66 -51 37.32 -51 38 C-90.14233862 45.51793464 -129.12445546 48.36886149 -168.91992188 48.26074219 C-173.15140497 48.24934864 -177.3826364 48.25613625 -181.61411095 48.26761818 C-206.95811483 48.32599303 -232.24850365 47.81246792 -257.375 44.125 C-258.5727002 43.95355469 -259.77040039 43.78210938 -261.00439453 43.60546875 C-283.9426988 40.18547399 -283.9426988 40.18547399 -293 34 C-292.67 33.01 -292.34 32.02 -292 31 C-286.4819102 31.54634177 -280.96436517 32.09779997 -275.44726562 32.65405273 C-273.56947766 32.84264372 -271.69154746 33.02982394 -269.81347656 33.21557617 C-267.11745376 33.48247389 -264.42197949 33.75440427 -261.7265625 34.02734375 C-260.88380768 34.10967758 -260.04105286 34.19201141 -259.17276001 34.27684021 C-253.22774341 34.88612829 -253.22774341 34.88612829 -251 36 C-248.58656914 36.22737268 -246.19660516 36.39750547 -243.77734375 36.5234375 C-243.02791 36.56455658 -242.27847626 36.60567566 -241.5063324 36.64804077 C-231.53127081 37.16571624 -221.5479429 37.41047494 -211.5625 37.625 C-210.54130066 37.64745789 -209.52010132 37.66991577 -208.46795654 37.6930542 C-189.9415743 38.08446934 -171.50919576 37.86313701 -153 37 C-152.00210449 36.95584961 -151.00420898 36.91169922 -149.97607422 36.86621094 C-141.35877802 36.70909806 -141.35877802 36.70909806 -133 35 C-130.55520206 34.68719326 -128.11965668 34.41230348 -125.66796875 34.16796875 C-124.14622579 34.00990467 -122.62449791 33.85169526 -121.1027832 33.69335938 C-120.30135895 33.61110107 -119.49993469 33.52884277 -118.67422485 33.4440918 C-64.77765872 28.0787583 -64.77765872 28.0787583 -13.70922852 10.71679688 C-12 10 -12 10 -10 10 C-9.67 9.01 -9.34 8.02 -9 7 C-3.62857143 3 -3.62857143 3 -1 3 C-0.67 2.01 -0.34 1.02 0 0 Z " fill="#5C86A2" transform="translate(447,464)"/>
<path d="M0 0 C7.63688778 8.78962556 9.88053442 16.15687599 9.63671875 27.67578125 C8.87984557 38.39266666 2.37545499 48.73286898 -5.3046875 56.03125 C-11.98131073 61.4921875 -11.98131073 61.4921875 -14.6328125 61.4921875 C-15.1278125 62.9771875 -15.1278125 62.9771875 -15.6328125 64.4921875 C-17.33178711 65.67138672 -17.33178711 65.67138672 -19.53515625 66.796875 C-20.34404297 67.21582031 -21.15292969 67.63476562 -21.98632812 68.06640625 C-23.26540039 68.71029297 -23.26540039 68.71029297 -24.5703125 69.3671875 C-25.79717773 69.99947266 -25.79717773 69.99947266 -27.04882812 70.64453125 C-28.7250592 71.50569003 -30.40527182 72.35913698 -32.08911133 73.20532227 C-33.75936613 74.05030864 -35.42113048 74.91233456 -37.07299805 75.79272461 C-43.37715484 79.10012281 -49.74626946 81.31159176 -56.5703125 83.3046875 C-58.11041992 83.77165039 -58.11041992 83.77165039 -59.68164062 84.24804688 C-67.20321085 86.4921875 -67.20321085 86.4921875 -70.6328125 86.4921875 C-70.26206746 83.89697222 -69.95787556 82.76815636 -67.92578125 81.04296875 C-67.23097656 80.63433594 -66.53617187 80.22570312 -65.8203125 79.8046875 C-64.78970703 79.18013672 -64.78970703 79.18013672 -63.73828125 78.54296875 C-61.69910297 77.52527124 -59.85841662 76.94731104 -57.6328125 76.4921875 C-57.6328125 75.8321875 -57.6328125 75.1721875 -57.6328125 74.4921875 C-55.69937668 73.19227315 -53.70799231 71.97817435 -51.6953125 70.8046875 C-45.9951695 67.4053492 -40.74718807 63.73623912 -35.6328125 59.4921875 C-34.96894531 58.97398437 -34.30507813 58.45578125 -33.62109375 57.921875 C-23.62990873 49.79544947 -16.16874198 39.22425173 -14.32421875 26.3359375 C-13.90362281 18.68873866 -16.2413678 12.7246264 -20.6328125 6.4921875 C-27.89454796 -0.21294435 -35.64479997 -1.84375527 -45.28515625 -1.7109375 C-49.85537188 -1.43363153 -54.20001813 -0.62851898 -58.6328125 0.4921875 C-58.6328125 -3.5078125 -58.6328125 -3.5078125 -56.2578125 -6.0703125 C-40.14544813 -18.42059179 -13.91426747 -12.84906039 0 0 Z " fill="#5884A0" transform="translate(439.6328125,299.5078125)"/>
<path d="M0 0 C-3.69567313 4.07579951 -7.23621451 6.46878806 -12.1875 8.8125 C-12.81591797 9.12380859 -13.44433594 9.43511719 -14.09179688 9.75585938 C-18.70338255 12 -18.70338255 12 -21 12 C-21.33 12.99 -21.66 13.98 -22 15 C-23.65478516 16.25512695 -23.65478516 16.25512695 -25.7890625 17.48828125 C-26.56636719 17.94783203 -27.34367187 18.40738281 -28.14453125 18.88085938 C-28.96308594 19.35330078 -29.78164063 19.82574219 -30.625 20.3125 C-36.60196138 23.77565023 -41.8577822 27.39039891 -47 32 C-48.44810162 33.13814007 -49.90491732 34.26539736 -51.375 35.375 C-56.12145073 39.02674437 -60.57284521 42.97055652 -65 47 C-65.495 45.515 -65.495 45.515 -66 44 C-64.47005208 42.76302083 -62.94010417 41.52604167 -61.41015625 40.2890625 C-59.86733563 39.0333609 -59.86733563 39.0333609 -59 37 C-58.34 37 -57.68 37 -57 37 C-56.773125 36.38125 -56.54625 35.7625 -56.3125 35.125 C-54.61545208 32.37739861 -52.97485929 32.06789821 -50 31 C-49.67 30.34 -49.34 29.68 -49 29 C-48.01 28.67 -47.02 28.34 -46 28 C-45.67 27.34 -45.34 26.68 -45 26 C-42.06769549 24.01871317 -39.48897679 22.64610681 -36 22 C-36 21.01 -36 20.02 -36 19 C-33.09399739 17.74335022 -31.20395416 17 -28 17 C-28 16.34 -28 15.68 -28 15 C-27.01 14.34 -26.02 13.68 -25 13 C-24.27617533 10.94074861 -24.27617533 10.94074861 -24 9 C-25.01320313 9.433125 -25.01320313 9.433125 -26.046875 9.875 C-26.93890625 10.24625 -27.8309375 10.6175 -28.75 11 C-29.63171875 11.37125 -30.5134375 11.7425 -31.421875 12.125 C-34 13 -34 13 -38 13 C-38 12.01 -38 11.02 -38 10 C-34.08615081 8.73489818 -30.17174966 7.47152064 -26.25683594 6.2097168 C-24.925955 5.7804996 -23.59522406 5.35081703 -22.26464844 4.9206543 C-20.34870563 4.30133795 -18.43217194 3.6838505 -16.515625 3.06640625 C-15.36352539 2.69459229 -14.21142578 2.32277832 -13.02441406 1.93969727 C-8.43885457 0.51494601 -4.83352139 -0.10985276 0 0 Z " fill="#F2A223" transform="translate(380,126)"/>
<path d="M0 0 C3.58499414 2.6460671 5.95613622 5.06347887 8.25 8.875 C8.83652344 9.83277344 9.42304688 10.79054688 10.02734375 11.77734375 C10.67832031 12.84082031 11.32929688 13.90429688 12 15 C13.97621414 18.08695125 15.97813726 21.15732921 17.97949219 24.22802734 C23 31.99447278 23 31.99447278 23 37 C19.53115701 36.614573 17.94636652 35.14456548 15.6171875 32.65625 C13.50548016 30.49353524 11.25753932 28.50967892 9 26.5 C5.56170779 23.42123466 2.22292533 20.30556444 -1 17 C-2.60280316 15.39447098 -4.20708738 13.79041974 -5.8125 12.1875 C-7.20833333 10.79166667 -8.60416667 9.39583333 -10 8 C-9.34 7.67 -8.68 7.34 -8 7 C-5.875 7.9375 -5.875 7.9375 -4 9 C-4 9.99 -4 10.98 -4 12 C-3.01 12.33 -2.02 12.66 -1 13 C-0.01 14.485 -0.01 14.485 1 16 C1.99 16 2.98 16 4 16 C4.33 16.99 4.66 17.98 5 19 C6.32 19 7.64 19 9 19 C9.33 18.01 9.66 17.02 10 16 C8.68 16.33 7.36 16.66 6 17 C5.814375 15.2984375 5.814375 15.2984375 5.625 13.5625 C5.41875 12.386875 5.2125 11.21125 5 10 C4.34 9.67 3.68 9.34 3 9 C3 7.68 3 6.36 3 5 C2.01 4.67 1.02 4.34 0 4 C0 2.68 0 1.36 0 0 Z " fill="#F29929" transform="translate(248,257)"/>
<path d="M0 0 C5.51872816 0.52172372 11.03616908 1.05500297 16.55273438 1.59912109 C18.43035397 1.78266003 20.30828786 1.96301238 22.18652344 2.14013672 C24.88304807 2.3949825 27.57824231 2.66119038 30.2734375 2.9296875 C31.53756973 3.04544632 31.53756973 3.04544632 32.82723999 3.1635437 C38.77225659 3.77225659 38.77225659 3.77225659 41 6 C39.02 6.33 37.04 6.66 35 7 C34.67 7.99 34.34 8.98 34 10 C33.01 10 32.02 10 31 10 C31 10.66 31 11.32 31 12 C20.07955429 11.48609667 8.14765107 9.24717634 -1 3 C-0.67 2.01 -0.34 1.02 0 0 Z " fill="#527F9C" transform="translate(155,495)"/>
<path d="M0 0 C0.66 0 1.32 0 2 0 C0.20747773 6.4380497 -2.19893678 11.50457873 -6.25 16.8125 C-7.0236792 17.83682129 -7.0236792 17.83682129 -7.81298828 18.88183594 C-13.54204791 26.15052729 -20.48162112 31.68116994 -28 37 C-29.05445313 37.76828125 -30.10890625 38.5365625 -31.1953125 39.328125 C-34 41 -34 41 -38 41 C-37.4175095 37.19207701 -35.69531838 35.23177271 -33.1875 32.375 C-29.20956792 27.57577135 -26.90894179 22.90264895 -25 17 C-24.67 17 -24.34 17 -24 17 C-23.83317728 21.92127034 -23.75171948 25.50343896 -26 30 C-17.31819765 25.60050453 -17.31819765 25.60050453 -12 18 C-11.01 18 -10.02 18 -9 18 C-8.34 16.02 -7.68 14.04 -7 12 C-6.34 12 -5.68 12 -5 12 C-4.67 9.69 -4.34 7.38 -4 5 C-3.01 5 -2.02 5 -1 5 C-0.67 3.35 -0.34 1.7 0 0 Z " fill="#F0A957" transform="translate(323,270)"/>
<path d="M0 0 C5.45666348 2.13058444 7.5141205 6.96667122 10 12 C10.875 15.625 10.875 15.625 11 18 C10.34 18 9.68 18 9 18 C8.67 16.68 8.34 15.36 8 14 C7.01 14.495 7.01 14.495 6 15 C5.53193355 17.33744294 5.17330206 19.69739079 4.875 22.0625 C4.62363281 23.99802734 4.62363281 23.99802734 4.3671875 25.97265625 C4.24601562 26.97167969 4.12484375 27.97070312 4 29 C3.01 29 2.02 29 1 29 C0.93941406 27.81664063 0.87882812 26.63328125 0.81640625 25.4140625 C0.7323416 23.81767817 0.64766671 22.22132591 0.5625 20.625 C0.51883301 19.80459229 0.47516602 18.98418457 0.43017578 18.13891602 C0.18491302 13.7220042 -0.13067639 9.33505416 -0.625 4.9375 C-0.74875 3.638125 -0.8725 2.33875 -1 1 C-0.67 0.67 -0.34 0.34 0 0 Z " fill="#F0AD4C" transform="translate(317,26)"/>
<path d="M0 0 C0.66 0.66 1.32 1.32 2 2 C0.7934375 2.4021875 0.7934375 2.4021875 -0.4375 2.8125 C-1.283125 3.204375 -2.12875 3.59625 -3 4 C-3.33 4.99 -3.66 5.98 -4 7 C-3.38511719 6.83242188 -2.77023438 6.66484375 -2.13671875 6.4921875 C-1.32847656 6.28851563 -0.52023438 6.08484375 0.3125 5.875 C1.51326172 5.56175781 1.51326172 5.56175781 2.73828125 5.2421875 C5 5 5 5 8 7 C5.73117913 7.83919398 3.46022973 8.67151724 1.1875 9.5 C0.54490234 9.73847656 -0.09769531 9.97695313 -0.75976562 10.22265625 C-3.64933739 11.27068746 -5.90076061 12 -9 12 C-8.34 11.67 -7.68 11.34 -7 11 C-7 9.68 -7 8.36 -7 7 C-7.66 6.67 -8.32 6.34 -9 6 C-9 6.66 -9 7.32 -9 8 C-12.96 7.67 -16.92 7.34 -21 7 C-21 6.34 -21 5.68 -21 5 C-18.62854106 4.15520547 -16.25365876 3.32406717 -13.875 2.5 C-12.87726563 2.14228516 -12.87726563 2.14228516 -11.859375 1.77734375 C-7.8014263 0.38491037 -4.34980005 -0.46466707 0 0 Z " fill="#587C96" transform="translate(136,439)"/>
<path d="M0 0 C-1 3 -1 3 -3.65234375 4.38671875 C-4.73644531 4.81597656 -5.82054687 5.24523437 -6.9375 5.6875 C-8.01902344 6.12449219 -9.10054688 6.56148438 -10.21484375 7.01171875 C-13 8 -13 8 -15 8 C-15 8.66 -15 9.32 -15 10 C-17.31 11.32 -19.62 12.64 -22 14 C-22 12.68 -22 11.36 -22 10 C-20.68 9.34 -19.36 8.68 -18 8 C-18 7.34 -18 6.68 -18 6 C-20.31 5.34 -22.62 4.68 -25 4 C-21.43240937 1.62160624 -18.98688387 1.40672049 -14.75 0.875 C-13.46609375 0.70742188 -12.1821875 0.53984375 -10.859375 0.3671875 C-7.21030004 0.0200083 -3.66261231 -0.06642043 0 0 Z " fill="#4B7C95" transform="translate(373,311)"/>
<path d="M0 0 C0.99 0.33 1.98 0.66 3 1 C2.34 1 1.68 1 1 1 C0.67 1.99 0.34 2.98 0 4 C-1.65478516 5.25512695 -1.65478516 5.25512695 -3.7890625 6.48828125 C-4.56636719 6.94783203 -5.34367187 7.40738281 -6.14453125 7.88085938 C-6.96308594 8.35330078 -7.78164063 8.82574219 -8.625 9.3125 C-14.60196138 12.77565023 -19.8577822 16.39039891 -25 21 C-26.44810162 22.13814007 -27.90491732 23.26539736 -29.375 24.375 C-34.12145073 28.02674437 -38.57284521 31.97055652 -43 36 C-43.495 34.515 -43.495 34.515 -44 33 C-42.47005208 31.76302083 -40.94010417 30.52604167 -39.41015625 29.2890625 C-37.86733563 28.0333609 -37.86733563 28.0333609 -37 26 C-36.34 26 -35.68 26 -35 26 C-34.6596875 25.071875 -34.6596875 25.071875 -34.3125 24.125 C-32.61545208 21.37739861 -30.97485929 21.06789821 -28 20 C-27.67 19.34 -27.34 18.68 -27 18 C-26.01 17.67 -25.02 17.34 -24 17 C-23.67 16.34 -23.34 15.68 -23 15 C-20.06769549 13.01871317 -17.48897679 11.64610681 -14 11 C-14 10.01 -14 9.02 -14 8 C-11.09399739 6.74335022 -9.20395416 6 -6 6 C-6 5.34 -6 4.68 -6 4 C-3 2 -3 2 0 2 C0 1.34 0 0.68 0 0 Z " fill="#E9A64F" transform="translate(358,137)"/>
<path d="M0 0 C2.07165859 2.07165859 2.79759453 3.54839681 4 6.1875 C6.68587102 11.72055562 10.02112455 16.69337927 13.52148438 21.7331543 C15.81040434 25.06149357 17.68419977 28.14080938 19 32 C19.66 32 20.32 32 21 32 C21.67119549 33.4562545 22.33681807 34.91507867 23 36.375 C23.37125 37.18710938 23.7425 37.99921875 24.125 38.8359375 C25 41 25 41 25 43 C24.34 43 23.68 43 23 43 C19.84362301 38.73717564 17.07496878 34.11685909 15.8125 28.9375 C15.4103125 27.4834375 15.4103125 27.4834375 15 26 C14.01 25.67 13.02 25.34 12 25 C12 24.34 12 23.68 12 23 C11.34 23 10.68 23 10 23 C6.82639806 19.42969782 5 15.80215996 5 11 C3.68 11 2.36 11 1 11 C0.67 7.37 0.34 3.74 0 0 Z " fill="#EEA23D" transform="translate(300,210)"/>
<path d="M0 0 C-0.61277612 2.96175123 -1.25372522 4.38058783 -3 7 C-2.01 8.485 -2.01 8.485 -1 10 C-3.26949102 10.67155349 -5.5403961 11.3373963 -7.8125 12 C-9.70935547 12.556875 -9.70935547 12.556875 -11.64453125 13.125 C-15 14 -15 14 -18 14 C-17.62925496 11.40478472 -17.32506306 10.27596886 -15.29296875 8.55078125 C-14.59816406 8.14214844 -13.90335937 7.73351562 -13.1875 7.3125 C-12.50042969 6.89613281 -11.81335938 6.47976563 -11.10546875 6.05078125 C-9.06629047 5.03308374 -7.22560412 4.45512354 -5 4 C-5 3.34 -5 2.68 -5 2 C-2 0 -2 0 0 0 Z " fill="#7491A9" transform="translate(387,372)"/>
<path d="M0 0 C-1.26941497 3.91402949 -2.51167694 5.79072873 -6 8 C-6.66 6.68 -7.32 5.36 -8 4 C-8.66 4.66 -9.32 5.32 -10 6 C-12.625 6.125 -12.625 6.125 -15 6 C-15 6.66 -15 7.32 -15 8 C-16.64453125 9.55078125 -16.64453125 9.55078125 -18.8125 11.3125 C-21.97153986 13.97567646 -24.00801536 16.34802816 -26 20 C-26.66 20 -27.32 20 -28 20 C-27.53994627 15.05442238 -26.40207671 12.60285501 -23 9 C-20.69927177 7.6167911 -18.53948951 6.43772388 -16.125 5.3125 C-15.52558594 5.01794922 -14.92617187 4.72339844 -14.30859375 4.41992188 C-5.15091292 0 -5.15091292 0 0 0 Z " fill="#608295" transform="translate(195,348)"/>
<path d="M0 0 C1.45880109 0.14107747 2.91703551 0.28802415 4.375 0.4375 C5.18710938 0.51871094 5.99921875 0.59992188 6.8359375 0.68359375 C9 1 9 1 11 2 C10.67 2.99 10.34 3.98 10 5 C7.02124032 5.48181362 4.04203251 5.96050857 1.0625 6.4375 C0.23169922 6.57220703 -0.59910156 6.70691406 -1.45507812 6.84570312 C-6.95950075 7.72384059 -12.45568182 8.42374897 -18 9 C-17.67 8.01 -17.34 7.02 -17 6 C-10.565 5.505 -10.565 5.505 -4 5 C-3.67 4.01 -3.34 3.02 -3 2 C-2.34 2.33 -1.68 2.66 -1 3 C-0.67 2.01 -0.34 1.02 0 0 Z " fill="#6288A4" transform="translate(159,436)"/>
<path d="M0 0 C5.94 0 11.88 0 18 0 C17.67 0.99 17.34 1.98 17 3 C14.30371094 4.05908203 14.30371094 4.05908203 10.734375 5.0078125 C10.10396301 5.17876434 9.47355103 5.34971619 8.82403564 5.52584839 C6.80233132 6.07081137 4.77641434 6.59785356 2.75 7.125 C1.3994375 7.48715659 0.0491726 7.85042497 -1.30078125 8.21484375 C-6.50902966 9.61060681 -11.69820705 11.00076796 -17 12 C-16.34 11.67 -15.68 11.34 -15 11 C-15 10.34 -15 9.68 -15 9 C-13.81921875 8.66226562 -12.6384375 8.32453125 -11.421875 7.9765625 C-9.86452471 7.52624434 -8.30723627 7.07571229 -6.75 6.625 C-5.97269531 6.40328125 -5.19539062 6.1815625 -4.39453125 5.953125 C-3.64042969 5.73398437 -2.88632813 5.51484375 -2.109375 5.2890625 C-1.41811523 5.09006348 -0.72685547 4.89106445 -0.01464844 4.68603516 C2.10485138 3.96429564 4.02156897 3.04352538 6 2 C3.03 1.505 3.03 1.505 0 1 C0 0.67 0 0.34 0 0 Z " fill="#829EB3" transform="translate(198,293)"/>
<path d="M0 0 C0 0.66 0 1.32 0 2 C-0.680625 2.37125 -1.36125 2.7425 -2.0625 3.125 C-4.79916778 4.87180922 -6.15965567 6.23198233 -8.1875 8.6875 C-12.25147652 13.51458128 -17.02025606 17.16502478 -22 21 C-24.01596896 22.64870333 -26.00790738 24.32244832 -28 26 C-28.33 25.01 -28.66 24.02 -29 23 C-26.24563488 20.07870366 -23.5544617 17.60177656 -20.25 15.3125 C-16.99364953 13.37854636 -16.99364953 13.37854636 -16 11 C-14.824375 10.319375 -14.824375 10.319375 -13.625 9.625 C-10.96987879 7.98135353 -9.80017141 6.48595099 -8 4 C-7.34 4 -6.68 4 -6 4 C-6 3.34 -6 2.68 -6 2 C-2.25 0 -2.25 0 0 0 Z " fill="#EAA347" transform="translate(296,133)"/>
<path d="M0 0 C-1.34326386 2.89121554 -2.89009623 5.26115693 -4.875 7.75 C-10.43630555 15.05176303 -13.17402639 21.55580925 -13.0625 30.8125 C-13.05347656 31.78832031 -13.04445313 32.76414063 -13.03515625 33.76953125 C-13.02355469 34.50558594 -13.01195312 35.24164063 -13 36 C-13.66 35.67 -14.32 35.34 -15 35 C-15.09945415 28.88909517 -15.0712828 23.02596573 -14 17 C-13.34 17 -12.68 17 -12 17 C-12 15.35 -12 13.7 -12 12 C-11.34 12 -10.68 12 -10 12 C-10 10.68 -10 9.36 -10 8 C-9.34 8 -8.68 8 -8 8 C-8 7.01 -8 6.02 -8 5 C-2.65116279 0 -2.65116279 0 0 0 Z " fill="#ECA94E" transform="translate(313,173)"/>
<path d="M0 0 C0 0.99 0 1.98 0 3 C-1.98 3.66 -3.96 4.32 -6 5 C-5.67 6.32 -5.34 7.64 -5 9 C-8.3 9.66 -11.6 10.32 -15 11 C-15 9.68 -15 8.36 -15 7 C-10.59594526 2.59594526 -6.42803324 0 0 0 Z " fill="#6A8FA1" transform="translate(396,289)"/>
<path d="M0 0 C1.43931117 0.45261358 2.87638999 0.91232979 4.3125 1.375 C5.11300781 1.63023437 5.91351563 1.88546875 6.73828125 2.1484375 C9 3 9 3 12 5 C12 5.66 12 6.32 12 7 C5.375 10 5.375 10 2 10 C2 9.34 2 8.68 2 8 C1.34 8 0.68 8 0 8 C-0.33 7.01 -0.66 6.02 -1 5 C-0.34 4.67 0.32 4.34 1 4 C0.67 2.68 0.34 1.36 0 0 Z " fill="#6288A2" transform="translate(344,367)"/>
<path d="M0 0 C0.66 0 1.32 0 2 0 C2 2.31 2 4.62 2 7 C1.34 7 0.68 7 0 7 C0.061875 8.546875 0.061875 8.546875 0.125 10.125 C-0.11521977 17.57181285 -3.63733271 23.50568836 -7 30 C-7.99 29.67 -8.98 29.34 -10 29 C-9.61328125 28.2471875 -9.2265625 27.494375 -8.828125 26.71875 C-4.54674281 17.98642593 -2.06564501 9.46551447 0 0 Z " fill="#ED9A38" transform="translate(317,61)"/>
<path d="M0 0 C11.88 0 23.76 0 36 0 C36 0.33 36 0.66 36 1 C24.33708502 2.53392686 12.70890502 3.9358723 1 2 C0.67 1.34 0.34 0.68 0 0 Z " fill="#557A95" transform="translate(241,503)"/>
<path d="M0 0 C-4.1312729 4.81981838 -9.03999014 7.7847751 -15 10 C-15.66 9.67 -16.32 9.34 -17 9 C-16.01 8.34 -15.02 7.68 -14 7 C-14 6.34 -14 5.68 -14 5 C-14.66 4.34 -15.32 3.68 -16 3 C-5.62642369 -0.44419134 -5.62642369 -0.44419134 0 0 Z " fill="#EE9B33" transform="translate(380,126)"/>
<path d="M0 0 C0.556875 0.391875 1.11375 0.78375 1.6875 1.1875 C0.6975 1.5175 -0.2925 1.8475 -1.3125 2.1875 C-1.3125 3.5075 -1.3125 4.8275 -1.3125 6.1875 C-4.93936272 9.15493313 -6.5578678 10.1875 -11.3125 10.1875 C-10.49382693 5.60293079 -8.53639742 3.12895956 -4.875 0.3125 C-2.3125 -0.8125 -2.3125 -0.8125 0 0 Z " fill="#E6A23E" transform="translate(296.3125,300.8125)"/>
<path d="M0 0 C3.84578688 2.79994467 6.22881089 5.50151911 8.6875 9.5625 C9.55955078 10.98755859 9.55955078 10.98755859 10.44921875 12.44140625 C10.96097656 13.28574219 11.47273438 14.13007813 12 15 C12.99 16.485 12.99 16.485 14 18 C14 18.99 14 19.98 14 21 C13.34 21 12.68 21 12 21 C11.67 19.68 11.34 18.36 11 17 C9.35 17 7.7 17 6 17 C5.87625 15.865625 5.7525 14.73125 5.625 13.5625 C5.41875 12.386875 5.2125 11.21125 5 10 C4.34 9.67 3.68 9.34 3 9 C3 7.68 3 6.36 3 5 C2.01 4.67 1.02 4.34 0 4 C0 2.68 0 1.36 0 0 Z " fill="#ED9A30" transform="translate(248,257)"/>
<path d="M0 0 C0.99 0 1.98 0 3 0 C3 1.32 3 2.64 3 4 C3.66 4 4.32 4 5 4 C5.61875 5.546875 5.61875 5.546875 6.25 7.125 C8.9448053 13.57789018 8.9448053 13.57789018 14 18 C15.6875 20.875 15.6875 20.875 17 24 C16.67 24.99 16.34 25.98 16 27 C16 26.34 16 25.68 16 25 C15.39172363 24.75161377 14.78344727 24.50322754 14.15673828 24.24731445 C11.62190779 22.78133653 10.87488715 21.59758008 9.4921875 19.04296875 C9.06292969 18.25986328 8.63367188 17.47675781 8.19140625 16.66992188 C7.53978516 15.44112305 7.53978516 15.44112305 6.875 14.1875 C6.43285156 13.37990234 5.99070313 12.57230469 5.53515625 11.74023438 C3.45424756 7.90218375 1.48611562 4.11603934 0 0 Z " fill="#EBA342" transform="translate(207,220)"/>
<path d="M0 0 C2.62594784 0.1136515 5.25011547 0.24039054 7.875 0.375 C8.62136719 0.4059375 9.36773437 0.436875 10.13671875 0.46875 C15.7734375 0.7734375 15.7734375 0.7734375 18 3 C16.02 3.33 14.04 3.66 12 4 C11.67 4.99 11.34 5.98 11 7 C10.01 7 9.02 7 8 7 C8 7.66 8 8.32 8 9 C6.68 8.67 5.36 8.34 4 8 C5.32 6.68 6.64 5.36 8 4 C5.36 4 2.72 4 0 4 C-0.33 3.34 -0.66 2.68 -1 2 C-0.67 1.34 -0.34 0.68 0 0 Z " fill="#89A8BC" transform="translate(178,498)"/>
<path d="M0 0 C2.95867918 0.14046255 5.91682264 0.28712224 8.875 0.4375 C9.71675781 0.47681641 10.55851563 0.51613281 11.42578125 0.55664062 C12.23144531 0.59853516 13.03710938 0.64042969 13.8671875 0.68359375 C14.98262939 0.73858032 14.98262939 0.73858032 16.12060547 0.79467773 C18 1 18 1 20 2 C20 2.66 20 3.32 20 4 C17.79194476 4.0544452 15.58349446 4.09299283 13.375 4.125 C12.14523438 4.14820313 10.91546875 4.17140625 9.6484375 4.1953125 C6.05683959 4.0030428 3.33338825 3.30258556 0 2 C0 1.34 0 0.68 0 0 Z " fill="#7C99AD" transform="translate(215,414)"/>
<path d="M0 0 C0.66 0 1.32 0 2 0 C-0.19893193 9.10986083 -5.43312035 15.65756774 -11 23 C-11.99 22.67 -12.98 22.34 -14 22 C-13.34 20.68 -12.68 19.36 -12 18 C-11.01 18 -10.02 18 -9 18 C-8.34 16.02 -7.68 14.04 -7 12 C-6.34 12 -5.68 12 -5 12 C-4.67 9.69 -4.34 7.38 -4 5 C-3.01 5 -2.02 5 -1 5 C-0.67 3.35 -0.34 1.7 0 0 Z " fill="#EFA04D" transform="translate(323,270)"/>
<path d="M0 0 C0.99 0.33 1.98 0.66 3 1 C3 1.66 3 2.32 3 3 C3.66 3 4.32 3 5 3 C5.268125 4.093125 5.53625 5.18625 5.8125 6.3125 C6.63330412 9.89967362 6.63330412 9.89967362 8.5625 11.4375 C11.02273164 14.11166483 10.71034196 17.46617189 11 21 C5.48515659 14.50036313 2.4177426 8.07745822 0 0 Z " fill="#E8A949" transform="translate(271,227)"/>
<path d="M0 0 C-0.46148437 0.38929688 -0.92296875 0.77859375 -1.3984375 1.1796875 C-7.22198805 6.17459054 -12.62218293 11.53221944 -18 17 C-18.66 17.66 -19.32 18.32 -20 19 C-19.67 16.69 -19.34 14.38 -19 12 C-17.35 11.67 -15.7 11.34 -14 11 C-13.8453125 10.1028125 -13.8453125 10.1028125 -13.6875 9.1875 C-12.89496146 6.66578648 -12.08408591 5.60314301 -10 4 C-9.01 4 -8.02 4 -7 4 C-6.896875 3.360625 -6.79375 2.72125 -6.6875 2.0625 C-6.460625 1.381875 -6.23375 0.70125 -6 0 C-3 -1 -3 -1 0 0 Z " fill="#EDA751" transform="translate(266,161)"/>
<path d="M0 0 C0.66 0.33 1.32 0.66 2 1 C-0.86698342 4.49413605 -2.84150148 6.28836874 -7.3125 6.8125 C-9.1378125 6.9053125 -9.1378125 6.9053125 -11 7 C-11 7.66 -11 8.32 -11 9 C-12.4540625 9.680625 -12.4540625 9.680625 -13.9375 10.375 C-17.07079582 11.65786221 -17.07079582 11.65786221 -18 14 C-19.32 13.67 -20.64 13.34 -22 13 C-21.01 12.67 -20.02 12.34 -19 12 C-19 11.34 -19 10.68 -19 10 C-15.88187059 8.29956587 -12.75449747 6.61690705 -9.625 4.9375 C-8.29082031 4.20950195 -8.29082031 4.20950195 -6.9296875 3.46679688 C-5.65351563 2.78520508 -5.65351563 2.78520508 -4.3515625 2.08984375 C-3.56604004 1.66566162 -2.78051758 1.24147949 -1.97119141 0.80444336 C-1.32069824 0.53897705 -0.67020508 0.27351074 0 0 Z " fill="#F0A74C" transform="translate(330,142)"/>
<path d="M0 0 C12 2 12 2 24 4 C23.67 4.66 23.34 5.32 23 6 C20.89590361 6.02701408 18.79170822 6.04640223 16.6875 6.0625 C15.51574219 6.07410156 14.34398437 6.08570313 13.13671875 6.09765625 C10 6 10 6 7 5 C6.67 4.34 6.34 3.68 6 3 C2.97065509 2.34227572 2.97065509 2.34227572 0 2 C0 1.34 0 0.68 0 0 Z " fill="#82A0B3" transform="translate(138,464)"/>
<path d="M0 0 C0.99 0.33 1.98 0.66 3 1 C2.34 1 1.68 1 1 1 C0.67 1.99 0.34 2.98 0 4 C-1.68652344 5.33447266 -1.68652344 5.33447266 -3.859375 6.6640625 C-4.64570313 7.14617187 -5.43203125 7.62828125 -6.2421875 8.125 C-7.06976563 8.62 -7.89734375 9.115 -8.75 9.625 C-9.56210937 10.12773437 -10.37421875 10.63046875 -11.2109375 11.1484375 C-15.19097502 13.55979574 -18.35194284 15.26883348 -23 16 C-17.85714286 11.57142857 -17.85714286 11.57142857 -14 11 C-14 10.01 -14 9.02 -14 8 C-11.09399739 6.74335022 -9.20395416 6 -6 6 C-6 5.34 -6 4.68 -6 4 C-3 2 -3 2 0 2 C0 1.34 0 0.68 0 0 Z " fill="#E9A241" transform="translate(358,137)"/>
<path d="M0 0 C3.3 0.66 6.6 1.32 10 2 C10 3.32 10 4.64 10 6 C9.360625 6.103125 8.72125 6.20625 8.0625 6.3125 C7.381875 6.539375 6.70125 6.76625 6 7 C5.67 7.99 5.34 8.98 5 10 C4.34 9.67 3.68 9.34 3 9 C3.33 7.02 3.66 5.04 4 3 C2.02 3 0.04 3 -2 3 C-1.34 2.01 -0.68 1.02 0 0 Z " fill="#507E9E" transform="translate(345,314)"/>
<path d="M0 0 C1.56240032 -0.02730408 3.1249427 -0.04653226 4.6875 -0.0625 C5.55761719 -0.07410156 6.42773438 -0.08570313 7.32421875 -0.09765625 C10 0 10 0 12.3125 0.5 C15.97911846 1.18216157 19.59904493 1.10564112 23.3125 1.0625 C24.42334961 1.05573242 24.42334961 1.05573242 25.55664062 1.04882812 C27.37112899 1.03712175 29.18557534 1.01918898 31 1 C31 1.66 31 2.32 31 3 C27.52085157 3.0294191 24.04173583 3.04693792 20.5625 3.0625 C19.10166992 3.07506836 19.10166992 3.07506836 17.61132812 3.08789062 C11.65221031 3.10782078 5.90932317 2.77609518 0 2 C0 1.34 0 0.68 0 0 Z " fill="#95B0C2" transform="translate(238,416)"/>
<path d="M0 0 C0.75023437 0.20496094 1.50046875 0.40992188 2.2734375 0.62109375 C8.85787383 2.35427661 15.20377699 3.56395914 22 4 C21.67 4.99 21.34 5.98 21 7 C14.39681833 7.31950879 8.01411459 7.04684822 2 4 C0.71484375 1.890625 0.71484375 1.890625 0 0 Z " fill="#7A9AB0" transform="translate(169,317)"/>
<path d="M0 0 C0.66 0.33 1.32 0.66 2 1 C2.32613618 5.67461851 1.70582788 8.16674383 -1 12 C-1.66 11.67 -2.32 11.34 -3 11 C-3 10.01 -3 9.02 -3 8 C-3.99 8 -4.98 8 -6 8 C-6 7.01 -6 6.02 -6 5 C-5.195625 4.731875 -4.39125 4.46375 -3.5625 4.1875 C-2.716875 3.795625 -1.87125 3.40375 -1 3 C-0.67 2.01 -0.34 1.02 0 0 Z " fill="#6B869D" transform="translate(447,464)"/>
<path d="M0 0 C6.27 0.66 12.54 1.32 19 2 C19 2.99 19 3.98 19 5 C17.02 5 15.04 5 13 5 C13 4.34 13 3.68 13 3 C8.73660933 2.92894349 5.12056892 2.89061606 1 4 C0.34 3.67 -0.32 3.34 -1 3 C-0.67 2.01 -0.34 1.02 0 0 Z " fill="#7A9DB0" transform="translate(155,495)"/>
<path d="M0 0 C0.33 0 0.66 0 1 0 C1.25287193 6.06892629 0.69832609 11.16200408 -1 17 C-1.66 17 -2.32 17 -3 17 C-3.33 17.66 -3.66 18.32 -4 19 C-3.63176001 12.09232563 -2.76081837 6.3618858 0 0 Z " fill="#F1A349" transform="translate(273,190)"/>
<path d="M0 0 C0.66 0 1.32 0 2 0 C0.56140464 4.26912893 -1.56814873 7.23391301 -4.4375 10.6875 C-5.61119141 12.11642578 -5.61119141 12.11642578 -6.80859375 13.57421875 C-9 16 -9 16 -12 18 C-11.49396008 15.83125748 -11.00016187 14.00032373 -10 12 C-9.34 12 -8.68 12 -8 12 C-7.5978125 10.88625 -7.5978125 10.88625 -7.1875 9.75 C-6.0392528 7.09090121 -4.96498625 5.12218515 -3 3 C-2.01 3 -1.02 3 0 3 C0 2.01 0 1.02 0 0 Z " fill="#EBA14C" transform="translate(312,111)"/>
<path d="M0 0 C0.66 0 1.32 0 2 0 C0.90612562 8.29385354 -1.52711911 15.40472995 -5 23 C-5.66 22.67 -6.32 22.34 -7 22 C-6.80664062 21.43152344 -6.61328125 20.86304687 -6.4140625 20.27734375 C-4.81863577 15.54635062 -3.33099414 10.81205575 -2 6 C-1.34 6 -0.68 6 0 6 C0 4.02 0 2.04 0 0 Z " fill="#F0A346" transform="translate(329,73)"/>
<path d="M0 0 C2.64 0.33 5.28 0.66 8 1 C8 1.66 8 2.32 8 3 C9.98 3 11.96 3 14 3 C14 2.34 14 1.68 14 1 C15.32 1 16.64 1 18 1 C17.67 1.99 17.34 2.98 17 4 C10.13252891 5.10765663 4.73281213 4.700773 -2 3 C-1.34 2.01 -0.68 1.02 0 0 Z " fill="#4C7792" transform="translate(160,497)"/>
<path d="M0 0 C-0.61277612 2.96175123 -1.25372522 4.38058783 -3 7 C-2.01 8.485 -2.01 8.485 -1 10 C-2.98 10.33 -4.96 10.66 -7 11 C-6.67 9.68 -6.34 8.36 -6 7 C-7.65 7 -9.3 7 -11 7 C-7.25 4 -7.25 4 -5 4 C-5 3.34 -5 2.68 -5 2 C-2 0 -2 0 0 0 Z " fill="#7798AB" transform="translate(387,372)"/>
<path d="M0 0 C1.2684375 0.12375 1.2684375 0.12375 2.5625 0.25 C3.2225 1.24 3.8825 2.23 4.5625 3.25 C2.66757994 3.58848652 0.77151534 3.92056911 -1.125 4.25 C-2.18074219 4.435625 -3.23648437 4.62125 -4.32421875 4.8125 C-7.08654062 5.20068074 -9.65492043 5.33259976 -12.4375 5.25 C-10.75 3.25 -10.75 3.25 -8.4375 1.25 C-5.75 1.0625 -5.75 1.0625 -3.4375 1.25 C-2.4375 0.25 -2.4375 0.25 0 0 Z " fill="#7EA4B5" transform="translate(303.4375,435.75)"/>
<path d="M0 0 C0.33 0 0.66 0 1 0 C1 1.65 1 3.3 1 5 C0.01 5.495 0.01 5.495 -1 6 C-0.979375 7.11375 -0.95875 8.2275 -0.9375 9.375 C-1 13 -1 13 -2 15 C-2.66 15 -3.32 15 -4 15 C-5.34899713 7.76446991 -5.34899713 7.76446991 -3.6875 4.125 C-2 2 -2 2 0 0 Z " fill="#839EAE" transform="translate(186,408)"/>
<path d="M0 0 C2.1478478 2.1478478 3.06416134 3.96145655 4.375 6.6875 C6.43366243 10.89645672 8.62871916 14.96004005 11 19 C9.125 18.75 9.125 18.75 7 18 C5.27898465 15.41847698 5 14.15081975 5 11 C3.68 11 2.36 11 1 11 C0.67 7.37 0.34 3.74 0 0 Z " fill="#EAAA4D" transform="translate(300,210)"/>
<path d="M0 0 C0 0.66 0 1.32 0 2 C-2.64846603 4.36214538 -4.61516396 5.87172132 -8 7 C-8.680625 7.99 -8.680625 7.99 -9.375 9 C-11.4240915 11.52195876 -12.84230107 11.65862714 -16 12 C-14.69862961 8.09588882 -12.89642968 7.22479179 -9.5625 4.875 C-8.57378906 4.17117187 -7.58507812 3.46734375 -6.56640625 2.7421875 C-2.52690583 0 -2.52690583 0 0 0 Z " fill="#EDA74C" transform="translate(308,156)"/>
<path d="M0 0 C0.99 0.33 1.98 0.66 3 1 C1.68925635 5.46182436 -0.07066011 8.99618757 -2.625 12.875 C-3.57246094 14.32519531 -3.57246094 14.32519531 -4.5390625 15.8046875 C-5.02117187 16.52914063 -5.50328125 17.25359375 -6 18 C-7 15 -7 15 -6 12 C-5.34 12 -4.68 12 -4 12 C-3.10869587 9.3260876 -2.52268466 6.76276177 -2 4 C-1.34 4 -0.68 4 0 4 C0 2.68 0 1.36 0 0 Z " fill="#7C9DB0" transform="translate(445,332)"/>
<path d="M0 0 C3.95546325 0.31454976 6.28778122 0.84896874 9.90234375 2.65625 C4.29234375 3.97625 -1.31765625 5.29625 -7.09765625 6.65625 C-2.09765625 0.65625 -2.09765625 0.65625 0 0 Z " fill="#4F7A96" transform="translate(198.09765625,293.34375)"/>
<path d="M0 0 C3.96 0 7.92 0 12 0 C12 0.33 12 0.66 12 1 C10.35 1 8.7 1 7 1 C6.67 1.99 6.34 2.98 6 4 C2.99208089 6.04108797 0.57804656 6.19878036 -3 6 C-3 5.34 -3 4.68 -3 4 C-2.01 3.67 -1.02 3.34 0 3 C0 2.01 0 1.02 0 0 Z " fill="#557C96" transform="translate(189,501)"/>
<path d="M0 0 C-3.0333779 2.02225194 -5.61344489 2.99347524 -9.0625 4.125 C-10.12597656 4.47820312 -11.18945312 4.83140625 -12.28515625 5.1953125 C-15 6 -15 6 -17 6 C-16 3 -16 3 -13.5625 1.3125 C-8.93501394 -0.39236329 -4.87420366 -0.26008597 0 0 Z " fill="#7793A7" transform="translate(399,470)"/>
<path d="M0 0 C-2.76543196 1.51012131 -5.53816807 3.00630148 -8.3125 4.5 C-9.49102539 5.14388672 -9.49102539 5.14388672 -10.69335938 5.80078125 C-11.45068359 6.20683594 -12.20800781 6.61289062 -12.98828125 7.03125 C-13.68477783 7.40830078 -14.38127441 7.78535156 -15.09887695 8.17382812 C-17 9 -17 9 -20 9 C-20 8.34 -20 7.68 -20 7 C-15.05 5.515 -15.05 5.515 -10 4 C-10 3.34 -10 2.68 -10 2 C-3.375 -1.125 -3.375 -1.125 0 0 Z " fill="#6A8A9F" transform="translate(422,365)"/>
<path d="M0 0 C3.87143588 3.31837361 6.25407823 7.24514923 8 12 C8 13.32 8 14.64 8 16 C6.0625 15.6875 6.0625 15.6875 4 15 C3.67 14.01 3.34 13.02 3 12 C3.66 12 4.32 12 5 12 C4.6390625 11.46890625 4.278125 10.9378125 3.90625 10.390625 C3.4421875 9.68421875 2.978125 8.9778125 2.5 8.25 C1.80390625 7.20585937 1.80390625 7.20585937 1.09375 6.140625 C0 4 0 4 0 0 Z " fill="#EDA958" transform="translate(263,278)"/>
<path d="M0 0 C0.66 0.33 1.32 0.66 2 1 C1.23439544 2.2739902 0.46227374 3.54406512 -0.3125 4.8125 C-0.74175781 5.52019531 -1.17101562 6.22789062 -1.61328125 6.95703125 C-2.94580717 8.92016099 -4.17820375 10.48183646 -6 12 C-8.6875 12.1875 -8.6875 12.1875 -11 12 C-10.29875 11.319375 -9.5975 10.63875 -8.875 9.9375 C-5.72065663 6.79219487 -2.86065696 3.4111614 0 0 Z " fill="#6F90A3" transform="translate(416,347)"/>
<path d="M0 0 C0.99 0.66 1.98 1.32 3 2 C3 2.66 3 3.32 3 4 C3.99 4.33 4.98 4.66 6 5 C0.147205 4.48517081 -5.3297637 3.54642808 -11 2 C-7.3586453 -0.33046701 -4.2475253 -0.30891093 0 0 Z " fill="#84A2B8" transform="translate(217,435)"/>
<path d="M0 0 C0.69738281 0.00451172 1.39476562 0.00902344 2.11328125 0.01367188 C3.82555803 0.0253998 5.53779033 0.04333347 7.25 0.0625 C4.0558585 2.91764063 2.00421286 3.45096809 -2.25 3.375 C-3.1884375 3.37113281 -4.126875 3.36726563 -5.09375 3.36328125 C-7.77087334 3.0601364 -9.44965635 2.42426004 -11.75 1.0625 C-7.88276369 -0.20332219 -4.01848738 -0.0493765 0 0 Z " fill="#6887A9" transform="translate(292.75,331.9375)"/>
<path d="M0 0 C0.33 0.99 0.66 1.98 1 3 C-2.9700218 7.21814817 -7.30840284 10.61227103 -12 14 C-12.33 13.01 -12.66 12.02 -13 11 C-12.48050781 10.62488281 -11.96101563 10.24976563 -11.42578125 9.86328125 C-7.27747551 6.81914561 -3.52678314 3.74720709 0 0 Z " fill="#EE9D35" transform="translate(276,121)"/>
<path d="M0 0 C0 3.33896168 -0.59422625 4.40480889 -2.3125 7.1875 C-2.74175781 7.90292969 -3.17101562 8.61835937 -3.61328125 9.35546875 C-4.07089844 9.89816406 -4.52851563 10.44085938 -5 11 C-5.99 11 -6.98 11 -8 11 C-8 11.66 -8 12.32 -8 13 C-9.32 13.33 -10.64 13.66 -12 14 C-9.82758925 9.99819073 -7.29197895 7.13139461 -4 4 C-3.236875 3.236875 -2.47375 2.47375 -1.6875 1.6875 C-1.130625 1.130625 -0.57375 0.57375 0 0 Z " fill="#EDA855" transform="translate(299,99)"/>
<path d="M0 0 C0.66 0 1.32 0 2 0 C2.66 6.27 3.32 12.54 4 19 C3.34 19 2.68 19 2 19 C0.26044666 12.56986533 -0.24991456 6.65050424 0 0 Z " fill="#F4AE50" transform="translate(204,199)"/>
<path d="M0 0 C0.87527344 -0.01417969 1.75054687 -0.02835937 2.65234375 -0.04296875 C5.0625 0.1875 5.0625 0.1875 8.0625 2.1875 C4.77730525 3.28256492 2.32586585 3.28710608 -1.125 3.25 C-2.75501953 3.23646484 -2.75501953 3.23646484 -4.41796875 3.22265625 C-5.24941406 3.21105469 -6.08085937 3.19945312 -6.9375 3.1875 C-6.9375 2.5275 -6.9375 1.8675 -6.9375 1.1875 C-4.47380468 -0.04434766 -2.7480499 0.02017658 0 0 Z " fill="#6C8CA4" transform="translate(353.9375,467.8125)"/>
<path d="M0 0 C1.37466431 0.07069702 1.37466431 0.07069702 2.77709961 0.14282227 C4.26113281 0.21533203 4.26113281 0.21533203 5.77514648 0.28930664 C7.33652344 0.37341797 7.33652344 0.37341797 8.92944336 0.45922852 C10.49662109 0.53753906 10.49662109 0.53753906 12.09545898 0.61743164 C14.68622572 0.74756148 17.27665002 0.8825401 19.86694336 1.02172852 C19.86694336 1.35172852 19.86694336 1.68172852 19.86694336 2.02172852 C16.59707301 2.24760625 13.32615055 2.44939457 10.05444336 2.64672852 C8.66128906 2.7434082 8.66128906 2.7434082 7.23999023 2.84204102 C6.34731445 2.89360352 5.45463867 2.94516602 4.53491211 2.99829102 C3.30164185 3.07684326 3.30164185 3.07684326 2.04345703 3.15698242 C-0.13305664 3.02172852 -0.13305664 3.02172852 -3.13305664 1.02172852 C-2.13305664 0.02172852 -2.13305664 0.02172852 0 0 Z " fill="#577E94" transform="translate(204.133056640625,485.978271484375)"/>
<path d="M0 0 C-1.26941497 3.91402949 -2.51167694 5.79072873 -6 8 C-6.268125 7.360625 -6.53625 6.72125 -6.8125 6.0625 C-7.88667752 3.66868314 -7.88667752 3.66868314 -11 3 C-9.73160474 2.49384702 -8.46016898 1.99530901 -7.1875 1.5 C-6.12595703 1.08234375 -6.12595703 1.08234375 -5.04296875 0.65625 C-3 0 -3 0 0 0 Z " fill="#758B9D" transform="translate(195,348)"/>
<path d="M0 0 C0.33 0 0.66 0 1 0 C1.268125 1.2375 1.53625 2.475 1.8125 3.75 C2.64484241 7.13925038 3.72431903 9.31055886 6 12 C6 12.66 6 13.32 6 14 C5.01 14 4.02 14 3 14 C-1.42857143 6.71428571 -1.42857143 6.71428571 -2 2 C-1.34 2 -0.68 2 0 2 C0 1.34 0 0.68 0 0 Z " fill="#EF942D" transform="translate(262,276)"/>
<path d="M0 0 C1.25541557 3.76624671 0.37061958 5.37188934 -1 9 C-1.66 9 -2.32 9 -3 9 C-3 11.31 -3 13.62 -3 16 C-3.99 16.33 -4.98 16.66 -6 17 C-5.62964591 10.21017493 -3.59523599 5.73115109 0 0 Z " fill="#EDA855" transform="translate(211,181)"/>
<path d="M0 0 C0.66 0.66 1.32 1.32 2 2 C-0.31 2.66 -2.62 3.32 -5 4 C-5 4.66 -5 5.32 -5 6 C-7.31 7.32 -9.62 8.64 -12 10 C-12 8.68 -12 7.36 -12 6 C-9.12645755 3.82542733 -7.63563409 3 -4 3 C-4 2.34 -4 1.68 -4 1 C-2.125 0.375 -2.125 0.375 0 0 Z " fill="#5C7C8E" transform="translate(363,315)"/>
<path d="M0 0 C4.64973854 0.44787324 6.37027468 2.02185597 9.3125 5.5625 C10.00988281 6.38878906 10.70726562 7.21507812 11.42578125 8.06640625 C11.94527344 8.70449219 12.46476562 9.34257812 13 10 C8.87731395 10 7.79669528 8.32277298 4.8125 5.5625 C3.91144531 4.73878906 3.01039063 3.91507812 2.08203125 3.06640625 C1.39496094 2.38449219 0.70789063 1.70257813 0 1 C0 0.67 0 0.34 0 0 Z " fill="#EFA444" transform="translate(252,278)"/>
<path d="M0 0 C1.9375 0.8125 1.9375 0.8125 4 2 C4.33 2.99 4.66 3.98 5 5 C4.01 5 3.02 5 2 5 C2 7.31 2 9.62 2 12 C1.34 11.67 0.68 11.34 0 11 C-0.44921875 8.75 -0.44921875 8.75 -0.6875 6 C-0.77386719 5.0925 -0.86023438 4.185 -0.94921875 3.25 C-0.96597656 2.5075 -0.98273438 1.765 -1 1 C-0.67 0.67 -0.34 0.34 0 0 Z " fill="#E6B057" transform="translate(317,26)"/>
<path d="M0 0 C1.30324219 -0.02126953 1.30324219 -0.02126953 2.6328125 -0.04296875 C4.875 0.1875 4.875 0.1875 6.875 2.1875 C-1.045 2.6825 -1.045 2.6825 -9.125 3.1875 C-9.125 2.5275 -9.125 1.8675 -9.125 1.1875 C-6.03265472 0.28856242 -3.21702643 0.02400766 0 0 Z " fill="#94B1BB" transform="translate(300.125,471.8125)"/>
<path d="M0 0 C-0.33 0.66 -0.66 1.32 -1 2 C-6.61 2 -12.22 2 -18 2 C-12.87007097 -1.41995269 -5.90816419 -1.77244926 0 0 Z " fill="#99B4C2" transform="translate(319,318)"/>
<path d="M0 0 C0.6328125 1.80859375 0.6328125 1.80859375 1 4 C-1.86720407 8.13214705 -4.47843417 10.67462329 -9 13 C-7.50923566 9.7173068 -5.61379679 7.06922559 -3.375 4.25 C-2.74335938 3.45078125 -2.11171875 2.6515625 -1.4609375 1.828125 C-0.97882813 1.22484375 -0.49671875 0.6215625 0 0 Z " fill="#EEA74D" transform="translate(221,168)"/>
<path d="M0 0 C0.66 0 1.32 0 2 0 C2 2.31 2 4.62 2 7 C1.34 7 0.68 7 0 7 C0.020625 8.11375 0.04125 9.2275 0.0625 10.375 C0 14 0 14 -1 16 C-1.66 16 -2.32 16 -3 16 C-2.30834212 10.58201328 -1.24200752 5.3177215 0 0 Z " fill="#EDB561" transform="translate(317,61)"/>
<path d="M0 0 C3.3 0 6.6 0 10 0 C9.67 0.66 9.34 1.32 9 2 C2.14186839 3.59491433 -5.00292842 3.08734209 -12 3 C-12 2.67 -12 2.34 -12 2 C-8.04 2 -4.08 2 0 2 C0 1.34 0 0.68 0 0 Z " fill="#577B93" transform="translate(270,368)"/>
<path d="M0 0 C1.98073365 0.280828 3.95958448 0.57496614 5.9375 0.875 C7.59072266 1.11863281 7.59072266 1.11863281 9.27734375 1.3671875 C10.17582031 1.57601563 11.07429687 1.78484375 12 2 C12.33 2.66 12.66 3.32 13 4 C8.3709597 4.90765496 5.17006403 5.45297884 1 3 C0.67 2.01 0.34 1.02 0 0 Z " fill="#81A1B2" transform="translate(192,363)"/>
<path d="M0 0 C0 0.66 0 1.32 0 2 C-1.24460783 2.67667998 -2.49596896 3.34094719 -3.75 4 C-4.79414063 4.556875 -4.79414063 4.556875 -5.859375 5.125 C-8 6 -8 6 -12 6 C-12 5.01 -12 4.02 -12 3 C-10.37604003 2.49663233 -8.75079459 1.99741024 -7.125 1.5 C-6.22007812 1.2215625 -5.31515625 0.943125 -4.3828125 0.65625 C-2 0 -2 0 0 0 Z " fill="#EB9F34" transform="translate(354,133)"/>
<path d="M0 0 C-0.33 1.32 -0.66 2.64 -1 4 C-4.63 3.67 -8.26 3.34 -12 3 C-12 2.34 -12 1.68 -12 1 C-7.95858806 0.36605303 -4.0934693 -0.12404452 0 0 Z " fill="#85A6B9" transform="translate(303,413)"/>
<path d="M0 0 C1.98 0.66 3.96 1.32 6 2 C6 2.99 6 3.98 6 5 C6.99 5.33 7.98 5.66 9 6 C10.39712274 7.95597184 11.73779907 9.95436401 13 12 C9.34435261 10.46563424 7.01301377 8.25017578 4.25 5.4375 C3.45078125 4.63183594 2.6515625 3.82617188 1.828125 2.99609375 C0 1 0 1 0 0 Z " fill="#E69C46" transform="translate(238,264)"/>
<path d="M0 0 C0.66 0 1.32 0 2 0 C0.43358249 4.30764815 -1.68336156 8.06171464 -4 12 C-4.66 12 -5.32 12 -6 12 C-5.47731534 9.23723823 -4.89130413 6.6739124 -4 4 C-3.34 4 -2.68 4 -2 4 C-1.34 2.68 -0.68 1.36 0 0 Z " fill="#E8A94C" transform="translate(242,182)"/>
<path d="M0 0 C-1.67028292 3.94794145 -4.1795565 6.81796118 -7 10 C-7.33 10 -7.66 10 -8 10 C-8.375 7.8125 -8.375 7.8125 -8 5 C-5.8280714 2.51971116 -3.44755208 0 0 0 Z " fill="#E0A349" transform="translate(313,173)"/>
<path d="M0 0 C3.73487777 0.4979837 5.81237635 0.87491756 9 3 C9 3.66 9 4.32 9 5 C7.68 5 6.36 5 5 5 C4.01 6.485 4.01 6.485 3 8 C0 2.25 0 2.25 0 0 Z " fill="#7396A3" transform="translate(416,440)"/>
<path d="M0 0 C0 0.66 0 1.32 0 2 C-1.2065625 1.9690625 -1.2065625 1.9690625 -2.4375 1.9375 C-4.93354885 1.70366379 -4.93354885 1.70366379 -6 3 C-8.69082872 2.82364548 -11.32851446 2.38164079 -14 2 C-9.67824205 -0.88117196 -4.98826624 -1.79577585 0 0 Z " fill="#487189" transform="translate(362,313)"/>
<path d="M0 0 C0 3.77910478 -0.99703962 4.46106101 -3.5 7.1875 C-4.1496875 7.90292969 -4.799375 8.61835938 -5.46875 9.35546875 C-5.9740625 9.89816406 -6.479375 10.44085938 -7 11 C-7.66 10.67 -8.32 10.34 -9 10 C-7.61811547 6.78956118 -6.07578097 4.95063635 -3.375 2.75 C-2.74335938 2.22921875 -2.11171875 1.7084375 -1.4609375 1.171875 C-0.73777344 0.59179688 -0.73777344 0.59179688 0 0 Z " fill="#EFB053" transform="translate(240,150)"/>
<path d="M0 0 C-0.33 0.66 -0.66 1.32 -1 2 C-5.44500224 3.33350067 -9.3318831 4.29175731 -14 4 C-13.67 3.01 -13.34 2.02 -13 1 C-8.61414671 0.29826347 -4.44209357 -0.10834375 0 0 Z " fill="#7A9AAE" transform="translate(155,441)"/>
<path d="M0 0 C0 0.66 0 1.32 0 2 C-6.75 3.125 -6.75 3.125 -9 2 C-9 2.66 -9 3.32 -9 4 C-10.65 4 -12.3 4 -14 4 C-12.68 3.67 -11.36 3.34 -10 3 C-10 2.34 -10 1.68 -10 1 C-6.78548731 -0.60725635 -3.56387464 -0.05748185 0 0 Z " fill="#7295AD" transform="translate(296,366)"/>
<path d="M0 0 C0.66 0.33 1.32 0.66 2 1 C-3.96583144 9.81548975 -3.96583144 9.81548975 -9 11 C-6.36113346 6.7973607 -3.63559661 3.43361902 0 0 Z " fill="#EEA94E" transform="translate(290,168)"/>
<path d="M0 0 C0.66 0.33 1.32 0.66 2 1 C3.53668865 1.22467831 5.07968054 1.40796805 6.625 1.5625 C7.44226563 1.64628906 8.25953125 1.73007812 9.1015625 1.81640625 C9.72804687 1.87699219 10.35453125 1.93757813 11 2 C10.67 2.66 10.34 3.32 10 4 C5.05 3.67 0.1 3.34 -5 3 C-2 1 -2 1 0 0 Z " fill="#86A2B9" transform="translate(144,480)"/>
<path d="M0 0 C0.33 0.99 0.66 1.98 1 3 C-3.455 3.495 -3.455 3.495 -8 4 C-8.33 3.01 -8.66 2.02 -9 1 C-5.846632 0.29925156 -3.27275026 0 0 0 Z " fill="#7794B0" transform="translate(314,411)"/>
<path d="M0 0 C0.6875 1.75 0.6875 1.75 1 4 C-0.1875 6.25 -0.1875 6.25 -2 8 C-3.32 8 -4.64 8 -6 8 C-4.55746343 4.63408134 -2.66735273 2.48952921 0 0 Z " fill="#EEA343" transform="translate(284,114)"/>
<path d="M0 0 C0.66 0 1.32 0 2 0 C1.75 2.875 1.75 2.875 1 6 C-1.0625 7.375 -1.0625 7.375 -3 8 C-3 8.66 -3 9.32 -3 10 C-3.66 10 -4.32 10 -5 10 C-3.66749209 6.4124787 -2.169283 3.1635377 0 0 Z " fill="#7195A7" transform="translate(423,336)"/>
<path d="M0 0 C0.33 0.66 0.66 1.32 1 2 C4.465 1.505 4.465 1.505 8 1 C8.33 1.66 8.66 2.32 9 3 C5.7 3.66 2.4 4.32 -1 5 C-1 1 -1 1 0 0 Z " fill="#91ACB7" transform="translate(382,295)"/>
<path d="M0 0 C3.59932399 0.97279027 4.77296789 1.62701867 6.75 4.875 C7.71014083 7.27535207 8.51362811 9.47086616 9 12 C4.99027798 8.32442148 2.54664585 4.81033104 0 0 Z " fill="#ECA751" transform="translate(224,247)"/>
<path d="M0 0 C3.32993034 3.82941989 5.05324525 8.37522222 7 13 C6.01 13 5.02 13 4 13 C3.34 10.69 2.68 8.38 2 6 C1.34 6 0.68 6 0 6 C0 4.02 0 2.04 0 0 Z " fill="#E8AA51" transform="translate(234,231)"/>
<path d="M0 0 C1.32 0.33 2.64 0.66 4 1 C0.7 3.97 -2.6 6.94 -6 10 C-6.33 9.01 -6.66 8.02 -7 7 C-5.47005208 5.76302083 -3.94010417 4.52604167 -2.41015625 3.2890625 C-0.86733563 2.0333609 -0.86733563 2.0333609 0 0 Z " fill="#E5A85A" transform="translate(321,163)"/>
<path d="M0 0 C0.66 0.33 1.32 0.66 2 1 C1.24172908 2.17487036 0.46792245 3.33972592 -0.3125 4.5 C-0.74175781 5.1496875 -1.17101562 5.799375 -1.61328125 6.46875 C-2.07089844 6.9740625 -2.52851563 7.479375 -3 8 C-3.99 8 -4.98 8 -6 8 C-6.33 8.99 -6.66 9.98 -7 11 C-7.33 10.34 -7.66 9.68 -8 9 C-6.85459775 7.68712379 -5.70866567 6.37470979 -4.5625 5.0625 C-3.92441406 4.33160156 -3.28632813 3.60070312 -2.62890625 2.84765625 C-1.77458541 1.87860647 -0.91348825 0.91348825 0 0 Z " fill="#E29934" transform="translate(230,159)"/>
<path d="M0 0 C3.29078593 2.79716804 5.06305458 6.19528578 7 10 C6.67 10.66 6.34 11.32 6 12 C5.67 11.01 5.34 10.02 5 9 C4.01 8.67 3.02 8.34 2 8 C-0.1519437 4.77208445 -0.20086443 3.71599191 0 0 Z " fill="#EFAD57" transform="translate(241,245)"/>
<path d="M0 0 C7.75 0.75 7.75 0.75 10 3 C6.7 3.33 3.4 3.66 0 4 C-0.33 3.34 -0.66 2.68 -1 2 C-0.67 1.34 -0.34 0.68 0 0 Z " fill="#779AAE" transform="translate(178,498)"/>
<path d="M0 0 C0 3.19610552 -0.54671542 4.41717626 -2 7.1875 C-2.37125 7.90292969 -2.7425 8.61835938 -3.125 9.35546875 C-3.558125 10.16951172 -3.558125 10.16951172 -4 11 C-4.66 11 -5.32 11 -6 11 C-4.74194623 6.49197399 -3.09592835 3.5087188 0 0 Z " fill="#7794A5" transform="translate(95,455)"/>
<path d="M0 0 C0.33 1.32 0.66 2.64 1 4 C0.34 4 -0.32 4 -1 4 C-1 4.99 -1 5.98 -1 7 C-1.99 7 -2.98 7 -4 7 C-4 7.99 -4 8.98 -4 10 C-4.66 10 -5.32 10 -6 10 C-4.79157144 5.56909529 -3.48331435 3.01887244 0 0 Z " fill="#E9AB4B" transform="translate(280,180)"/>
<path d="M0 0 C-1.62339805 1.70884005 -3.29319053 3.37446717 -5 5 C-5.66 5 -6.32 5 -7 5 C-7 4.01 -7 3.02 -7 2 C-7.66 1.67 -8.32 1.34 -9 1 C-5.8035914 -0.06546953 -3.34252724 -0.07427838 0 0 Z " fill="#E1B058" transform="translate(380,126)"/>
<path d="M0 0 C0.66 0.33 1.32 0.66 2 1 C2 2.98 2 4.96 2 7 C0.68 7 -0.64 7 -2 7 C-2.33 5.68 -2.66 4.36 -3 3 C-2.34 3 -1.68 3 -1 3 C-0.67 2.01 -0.34 1.02 0 0 Z " fill="#567489" transform="translate(447,464)"/>
<path d="M0 0 C0.99 0 1.98 0 3 0 C3 0.99 3 1.98 3 3 C-1.26616316 4.13764351 -4.56486311 5 -9 5 C-9 4.34 -9 3.68 -9 3 C-6.36 3 -3.72 3 -1 3 C-0.67 2.01 -0.34 1.02 0 0 Z " fill="#86A7BA" transform="translate(317,433)"/>
<path d="M0 0 C-1.45255699 3.82946843 -3.42895561 5.12050295 -7 7 C-7 5.68 -7 4.36 -7 3 C-4.49515403 0.58152803 -3.53986194 0 0 0 Z " fill="#799FAF" transform="translate(436,352)"/>
<path d="M0 0 C0.99 0.33 1.98 0.66 3 1 C2 4 2 4 -1 6 C-3.6875 6.125 -3.6875 6.125 -6 6 C-5.34 5.01 -4.68 4.02 -4 3 C-2.68 3 -1.36 3 0 3 C0 2.01 0 1.02 0 0 Z " fill="#F6951D" transform="translate(364,130)"/>
<path d="M0 0 C0 0.66 0 1.32 0 2 C-0.66 2 -1.32 2 -2 2 C-2.4021875 3.1446875 -2.4021875 3.1446875 -2.8125 4.3125 C-3.94424112 6.87380884 -4.91223401 8.19692938 -7 10 C-7.3125 7.8125 -7.3125 7.8125 -7 5 C-2.77777778 0 -2.77777778 0 0 0 Z " fill="#EE9F36" transform="translate(321,101)"/>
<path d="M0 0 C0.66 0 1.32 0 2 0 C0.52307692 6.64615385 0.52307692 6.64615385 -2.125 8.4375 C-2.74375 8.623125 -3.3625 8.80875 -4 9 C-4 7.68 -4 6.36 -4 5 C-3.01 5 -2.02 5 -1 5 C-0.67 3.35 -0.34 1.7 0 0 Z " fill="#EC9F3B" transform="translate(323,270)"/>
<path d="M0 0 C2.95514876 2.75134539 5.1524809 5.39733775 7 9 C7 9.99 7 10.98 7 12 C6.34 12 5.68 12 5 12 C4.71125 11.195625 4.4225 10.39125 4.125 9.5625 C3.26737432 6.8673532 3.26737432 6.8673532 1 6 C0.375 2.9375 0.375 2.9375 0 0 Z " fill="#EFB75E" transform="translate(255,266)"/>
<path d="M0 0 C0 0.99 0 1.98 0 3 C-4.455 3.495 -4.455 3.495 -9 4 C-9 3.34 -9 2.68 -9 2 C-5.62902617 0.50178941 -3.79557881 0 0 0 Z " fill="#EC9C33" transform="translate(364,130)"/>
<path d="M0 0 C-3.20336822 2.83374881 -5.78087253 3.5205537 -10 4 C-10 3.01 -10 2.02 -10 1 C-6.61981469 -0.04005702 -3.5219721 -0.08004482 0 0 Z " fill="#6698AA" transform="translate(412,465)"/>
<path d="M0 0 C1.52519276 0.08937803 3.04681929 0.24537146 4.5625 0.4375 C5.38878906 0.53933594 6.21507812 0.64117187 7.06640625 0.74609375 C7.70449219 0.82988281 8.34257812 0.91367187 9 1 C9 1.33 9 1.66 9 2 C4.32798795 3.20568053 -0.21496292 3.09382426 -5 3 C-4.360625 2.690625 -3.72125 2.38125 -3.0625 2.0625 C-1.06389179 1.1654837 -1.06389179 1.1654837 0 0 Z " fill="#587992" transform="translate(288,415)"/>
<path d="M0 0 C-3.96 1.98 -7.92 3.96 -12 6 C-11 2 -11 2 -9.2578125 0.91796875 C-8.55398437 0.67691406 -7.85015625 0.43585938 -7.125 0.1875 C-6.42632812 -0.06644531 -5.72765625 -0.32039063 -5.0078125 -0.58203125 C-3 -1 -3 -1 0 0 Z " fill="#8EAAB9" transform="translate(179,307)"/>
<path d="M0 0 C0 0.99 0 1.98 0 3 C-0.99 3 -1.98 3 -3 3 C-3.66 4.32 -4.32 5.64 -5 7 C-6.32 6.67 -7.64 6.34 -9 6 C-7.8803014 4.99406757 -6.7540588 3.9954151 -5.625 3 C-4.68527344 2.1646875 -4.68527344 2.1646875 -3.7265625 1.3125 C-2 0 -2 0 0 0 Z " fill="#F1AE5B" transform="translate(259,136)"/>
<path d="M0 0 C0 0.66 0 1.32 0 2 C-6.625 5 -6.625 5 -10 5 C-10 4.34 -10 3.68 -10 3 C-8.70990357 2.49596232 -7.41786211 1.99690074 -6.125 1.5 C-5.04605469 1.08234375 -5.04605469 1.08234375 -3.9453125 0.65625 C-2 0 -2 0 0 0 Z " fill="#638490" transform="translate(125,441)"/>
<path d="M0 0 C3.37462715 0.54723683 5.08235 1.0549 8 3 C8 3.66 8 4.32 8 5 C6.35 5 4.7 5 3 5 C2.87625 4.360625 2.7525 3.72125 2.625 3.0625 C2.315625 2.0415625 2.315625 2.0415625 2 1 C1.34 0.67 0.68 0.34 0 0 Z " fill="#82A8B6" transform="translate(348,369)"/>
<path d="M0 0 C5.94 1.485 5.94 1.485 12 3 C12 3.33 12 3.66 12 4 C8.7 4 5.4 4 2 4 C1.34 2.68 0.68 1.36 0 0 Z " fill="#9AB3C1" transform="translate(169,317)"/>
<path d="M0 0 C0.66 0 1.32 0 2 0 C2 0.66 2 1.32 2 2 C2.99 2 3.98 2 5 2 C5.625 4.375 5.625 4.375 6 7 C5.34 7.66 4.68 8.32 4 9 C2.68 6.03 1.36 3.06 0 0 Z " fill="#F0B346" transform="translate(293,262)"/>
<path d="M0 0 C-2 2 -2 2 -4.0625 3 C-6.16865601 3.84589942 -6.16865601 3.84589942 -7 6 C-8.32 5.67 -9.64 5.34 -11 5 C-10.01 4.67 -9.02 4.34 -8 4 C-8 3.34 -8 2.68 -8 2 C-4.77208445 -0.1519437 -3.71599191 -0.20086443 0 0 Z " fill="#EDA041" transform="translate(319,150)"/>
<path d="M0 0 C7.75 0.875 7.75 0.875 10 2 C10 2.66 10 3.32 10 4 C8.51882199 3.71872579 7.04006751 3.42466268 5.5625 3.125 C4.73878906 2.96257812 3.91507813 2.80015625 3.06640625 2.6328125 C2.38449219 2.42398437 1.70257813 2.21515625 1 2 C0.67 1.34 0.34 0.68 0 0 Z " fill="#698597" transform="translate(160,500)"/>
<path d="M0 0 C-0.33 1.32 -0.66 2.64 -1 4 C-2.98 4.33 -4.96 4.66 -7 5 C-6 2 -6 2 -4.0625 0.8125 C-2 0 -2 0 0 0 Z " fill="#698EA9" transform="translate(389,471)"/>
<path d="M0 0 C1.36125 0.37125 1.36125 0.37125 2.75 0.75 C2.110625 1.059375 1.47125 1.36875 0.8125 1.6875 C-1.18610821 2.5845163 -1.18610821 2.5845163 -2.25 3.75 C-3.91617115 3.79063832 -5.58388095 3.792721 -7.25 3.75 C-4.05 -0.31153846 -4.05 -0.31153846 0 0 Z " fill="#7D99AF" transform="translate(298.25,437.25)"/>
<path d="M0 0 C2.64 0 5.28 0 8 0 C7.67 0.99 7.34 1.98 7 3 C5.02 3 3.04 3 1 3 C0.67 2.01 0.34 1.02 0 0 Z " fill="#4E7896" transform="translate(151,436)"/>
<path d="M0 0 C0.66 0.33 1.32 0.66 2 1 C2 2.65 2 4.3 2 6 C1.01 5.34 0.02 4.68 -1 4 C-1.99 4.495 -1.99 4.495 -3 5 C-5.125 4.0625 -5.125 4.0625 -7 3 C-4.69631264 1.93347808 -2.35981813 0.93578995 0 0 Z " fill="#5295A7" transform="translate(198,402)"/>
<path d="M0 0 C2.97 0.33 5.94 0.66 9 1 C7 3 7 3 3.375 3.125 C2.26125 3.08375 1.1475 3.0425 0 3 C0 2.01 0 1.02 0 0 Z " fill="#5A7A88" transform="translate(318,317)"/>
<path d="M0 0 C0.99 0.33 1.98 0.66 3 1 C0.36 2.98 -2.28 4.96 -5 7 C-4 3 -4 3 -2.125 1.1875 C-1.42375 0.795625 -0.7225 0.40375 0 0 Z " fill="#F7AE73" transform="translate(308,293)"/>
<path d="M0 0 C0.99 0 1.98 0 3 0 C3 0.66 3 1.32 3 2 C3.99 2.33 4.98 2.66 6 3 C6.33 4.65 6.66 6.3 7 8 C6.67 7.34 6.34 6.68 6 6 C5.0409375 5.566875 5.0409375 5.566875 4.0625 5.125 C1.57998766 3.77090236 1.03128603 2.57821507 0 0 Z " fill="#E19946" transform="translate(217,239)"/>
<path d="M0 0 C2.83374881 3.20336822 3.5205537 5.78087253 4 10 C3.34 10 2.68 10 2 10 C0.68373308 6.38026598 0 3.90432869 0 0 Z " fill="#F0A753" transform="translate(324,34)"/>
<path d="M0 0 C-3.44450737 2.29633824 -5.93812283 2.54016485 -10 3 C-10 2.34 -10 1.68 -10 1 C-6.78548731 -0.60725635 -3.56387464 -0.05748185 0 0 Z " fill="#587990" transform="translate(411,496)"/>
<path d="M0 0 C0.33 0.66 0.66 1.32 1 2 C1.99 2.33 2.98 2.66 4 3 C1.36 3.33 -1.28 3.66 -4 4 C-4 3.01 -4 2.02 -4 1 C-2.68 0.67 -1.36 0.34 0 0 Z " fill="#56788C" transform="translate(326,470)"/>
<path d="M0 0 C1.98 0 3.96 0 6 0 C6 0.99 6 1.98 6 3 C3.69 3 1.38 3 -1 3 C-0.67 2.01 -0.34 1.02 0 0 Z " fill="#7E9FB0" transform="translate(339,469)"/>
<path d="M0 0 C1.65 0.33 3.3 0.66 5 1 C4.67 1.99 4.34 2.98 4 4 C2.02 4 0.04 4 -2 4 C-1.34 3.67 -0.68 3.34 0 3 C0 2.01 0 1.02 0 0 Z " fill="#85A2B2" transform="translate(165,437)"/>
<path d="M0 0 C3.5625 0.25 3.5625 0.25 7 1 C7.33 1.66 7.66 2.32 8 3 C4.7 2.67 1.4 2.34 -2 2 C-1.34 1.34 -0.68 0.68 0 0 Z " fill="#7393A7" transform="translate(148,329)"/>
<path d="M0 0 C2.31 0 4.62 0 7 0 C6.67 0.99 6.34 1.98 6 3 C3.9375 3.6875 3.9375 3.6875 2 4 C1.34 2.68 0.68 1.36 0 0 Z " fill="#658091" transform="translate(366,311)"/>
<path d="M0 0 C4.8 3.44615385 4.8 3.44615385 5.8125 6.25 C5.874375 6.8275 5.93625 7.405 6 8 C5.34 8 4.68 8 4 8 C4 7.01 4 6.02 4 5 C2.68 4.67 1.36 4.34 0 4 C0 2.68 0 1.36 0 0 Z " fill="#F2B755" transform="translate(248,257)"/>
<path d="M0 0 C0.99 0.33 1.98 0.66 3 1 C1.02 3.31 -0.96 5.62 -3 8 C-3.33 7.01 -3.66 6.02 -4 5 C-3.34 4.01 -2.68 3.02 -2 2 C-1.34 2 -0.68 2 0 2 C0 1.34 0 0.68 0 0 Z " fill="#EAA857" transform="translate(304,121)"/>
<path d="M0 0 C0.99 0 1.98 0 3 0 C2.40072174 3.35595828 1.15377564 5.37801226 -1 8 C-1.93065133 5.39417629 -2.14917407 4.35801776 -1.0625 1.75 C-0.711875 1.1725 -0.36125 0.595 0 0 Z " fill="#E8982D" transform="translate(313,77)"/>
<path d="M0 0 C-4.625 4 -4.625 4 -8 4 C-5.97675095 -0.48005146 -4.79569304 -1.43870791 0 0 Z " fill="#597D93" transform="translate(102,454)"/>
<path d="M0 0 C0 0.66 0 1.32 0 2 C0.66 2.33 1.32 2.66 2 3 C-0.375 3.625 -0.375 3.625 -3 4 C-3.66 3.34 -4.32 2.68 -5 2 C-2 0 -2 0 0 0 Z " fill="#6F91A2" transform="translate(416,453)"/>
<path d="M0 0 C2.79593783 1.39796892 2.95173777 3.13474989 4 6 C4.33 6.66 4.66 7.32 5 8 C1.125 7.125 1.125 7.125 0 6 C-0.04080783 4.00041636 -0.04254356 1.99954746 0 0 Z " fill="#608093" transform="translate(129,317)"/>
<path d="M0 0 C0.33 0.66 0.66 1.32 1 2 C1.99 2.33 2.98 2.66 4 3 C3.34 3.66 2.68 4.32 2 5 C0.68 5 -0.64 5 -2 5 C-1.125 1.125 -1.125 1.125 0 0 Z " fill="#D7A266" transform="translate(287,306)"/>
<path d="M0 0 C1.32 0.66 2.64 1.32 4 2 C3.01 2.33 2.02 2.66 1 3 C1 3.66 1 4.32 1 5 C0.01 5 -0.98 5 -2 5 C-1.125 1.125 -1.125 1.125 0 0 Z " fill="#EC9624" transform="translate(294,300)"/>
<path d="M0 0 C0.33 0.66 0.66 1.32 1 2 C1.66 2 2.32 2 3 2 C2.67 4.64 2.34 7.28 2 10 C-0.4294516 6.3558226 -0.16179575 4.28758728 0 0 Z " fill="#F0972B" transform="translate(322,251)"/>
<path d="M0 0 C2.64 0.33 5.28 0.66 8 1 C8 1.66 8 2.32 8 3 C5.36 2.67 2.72 2.34 0 2 C0 1.34 0 0.68 0 0 Z " fill="#64899F" transform="translate(172,503)"/>
<path d="M0 0 C2.64 0.33 5.28 0.66 8 1 C8 1.33 8 1.66 8 2 C4.7 2.33 1.4 2.66 -2 3 C-1.34 2.67 -0.68 2.34 0 2 C0 1.34 0 0.68 0 0 Z " fill="#567E95" transform="translate(330,498)"/>
<path d="M0 0 C2.31 0.33 4.62 0.66 7 1 C7 1.66 7 2.32 7 3 C4.36 2.67 1.72 2.34 -1 2 C-0.67 1.34 -0.34 0.68 0 0 Z " fill="#84A9B9" transform="translate(103,475)"/>
<path d="M0 0 C0.66 0.33 1.32 0.66 2 1 C1.625 3.9375 1.625 3.9375 1 7 C0.01 7.495 0.01 7.495 -1 8 C-1.93065133 5.39417629 -2.14917407 4.35801776 -1.0625 1.75 C-0.711875 1.1725 -0.36125 0.595 0 0 Z " fill="#7091A8" transform="translate(426,448)"/>
<path d="M0 0 C0.66 0.33 1.32 0.66 2 1 C2 1.66 2 2.32 2 3 C1.34 3 0.68 3 0 3 C0 3.66 0 4.32 0 5 C-1.32 4.34 -2.64 3.68 -4 3 C-3 1 -3 1 0 0 Z " fill="#4F7B94" transform="translate(380,378)"/>
<path d="M0 0 C0.66 0.33 1.32 0.66 2 1 C1.34 2.32 0.68 3.64 0 5 C-2.475 4.01 -2.475 4.01 -5 3 C-4.360625 2.690625 -3.72125 2.38125 -3.0625 2.0625 C-1.06389179 1.1654837 -1.06389179 1.1654837 0 0 Z " fill="#597C92" transform="translate(403,362)"/>
<path d="M0 0 C0.66 0.33 1.32 0.66 2 1 C2 2.32 2 3.64 2 5 C0.0625 4.6875 0.0625 4.6875 -2 4 C-2.33 3.01 -2.66 2.02 -3 1 C-2.01 0.67 -1.02 0.34 0 0 Z " fill="#E1BD61" transform="translate(269,289)"/>
<path d="M0 0 C0.99 0.33 1.98 0.66 3 1 C3.33 2.98 3.66 4.96 4 7 C3.34 7 2.68 7 2 7 C1.34 4.69 0.68 2.38 0 0 Z " fill="#EBB666" transform="translate(271,227)"/>
<path d="M0 0 C0.66 0 1.32 0 2 0 C2.33 2.31 2.66 4.62 3 7 C2.01 6.67 1.02 6.34 0 6 C0 4.02 0 2.04 0 0 Z " fill="#EFA346" transform="translate(231,224)"/>
<path d="M0 0 C-3.06117568 2.62386487 -3.73173127 3 -8 3 C-8 2.34 -8 1.68 -8 1 C-4.93251126 -0.86240388 -3.40254489 -1.2151946 0 0 Z " fill="#F0A842" transform="translate(341,140)"/>
<path d="M0 0 C0.99 0.33 1.98 0.66 3 1 C2.34 3.64 1.68 6.28 1 9 C-0.61949011 6.42786866 -1.04408751 5.32330841 -0.625 2.25 C-0.41875 1.5075 -0.2125 0.765 0 0 Z " fill="#D69E57" transform="translate(317,26)"/>
</svg>
