<?xml version="1.0" encoding="UTF-8"?>
<svg version="1.1" xmlns="http://www.w3.org/2000/svg" width="640" height="640">
<path d="M0 0 C211.2 0 422.4 0 640 0 C640 211.2 640 422.4 640 640 C428.8 640 217.6 640 0 640 C0 428.8 0 217.6 0 0 Z " fill="#F6DE1D" transform="translate(0,0)"/>
<path d="M0 0 C8.19078137 7.35219031 18.85739231 17.47235213 21.27636719 28.53369141 C14.44986565 33.40198226 7.49837556 38.00822065 0.40136719 42.47119141 C-6.68857285 46.94459886 -13.70986402 51.46841837 -20.57910156 56.27587891 C-22.72363281 57.53369141 -22.72363281 57.53369141 -25.72363281 57.53369141 C-27.21667237 55.53997392 -28.53422234 53.57717035 -29.84863281 51.47119141 C-35.94728061 42.2871845 -42.350096 37.12448415 -53.18457031 34.19384766 C-62.7448957 32.41051985 -72.36191176 32.0494857 -80.72363281 37.53369141 C-86.27031859 41.40549559 -89.44879065 45.24558596 -91.41113281 51.84619141 C-91.51425781 52.73306641 -91.61738281 53.61994141 -91.72363281 54.53369141 C-91.7996875 55.15759766 -91.87574219 55.78150391 -91.95410156 56.42431641 C-92.4681637 64.14914199 -89.86463816 71.38076424 -85.20800781 77.53759766 C-74.01166913 88.40611562 -56.82027613 93.75668931 -42.6965332 99.7902832 C-33.52374402 103.713853 -24.54427738 107.86903152 -15.72363281 112.53369141 C-14.76585937 113.01708984 -13.80808594 113.50048828 -12.82128906 113.99853516 C9.19606166 125.40206975 28.49529428 142.6936908 36.34277344 166.81103516 C42.47811608 190.31502897 41.37960605 215.77051529 29.64160156 237.25708008 C25.75464122 243.85435416 20.72536527 249.20596182 15.27636719 254.53369141 C14.65503906 255.18724609 14.03371094 255.84080078 13.39355469 256.51416016 C-6.74864961 276.24990742 -39.37021212 280.06615911 -66.02563477 279.95776367 C-97.07669113 279.27133541 -128.64880665 267.93555203 -150.72363281 245.53369141 C-157.82684115 237.73506407 -166.32823382 227.71988838 -169.72363281 217.53369141 C-145.72363281 203.53369141 -145.72363281 203.53369141 -121.72363281 189.53369141 C-118.95829913 192.2347319 -116.56725019 194.98216679 -114.27587891 198.10131836 C-107.58768922 207.1773946 -100.82862043 213.7390519 -90.72363281 218.90869141 C-90.07120605 219.24296143 -89.4187793 219.57723145 -88.74658203 219.92163086 C-80.23856358 224.03578225 -72.09058486 224.86131808 -62.72363281 224.78369141 C-61.79035156 224.79142578 -60.85707031 224.79916016 -59.89550781 224.80712891 C-48.56828417 224.77548862 -37.6447165 222.32840265 -28.73144531 214.86572266 C-22.43161087 208.01739517 -21.14618992 200.79134198 -21.36816406 191.65869141 C-22.21273141 184.23392355 -26.48562014 178.12908311 -32.26269531 173.49853516 C-46.00391907 164.47107297 -61.22073297 158.16457245 -76.29394531 151.70947266 C-93.65611572 144.26080154 -110.71516381 136.50531309 -124.72363281 123.53369141 C-125.655625 122.69322266 -126.58761719 121.85275391 -127.54785156 120.98681641 C-138.27924018 110.85568282 -144.49235048 99.5898831 -148.72363281 85.53369141 C-149.04332031 84.57849609 -149.36300781 83.62330078 -149.69238281 82.63916016 C-155.64042593 62.06884436 -152.54770014 39.24789399 -142.49755859 20.62792969 C-138.48839763 13.671284 -133.49251437 8.07009564 -127.72363281 2.53369141 C-127.04558594 1.85951172 -126.36753906 1.18533203 -125.66894531 0.49072266 C-94.33642793 -28.95664327 -32.20254117 -27.39496633 0 0 Z " fill="#010100" transform="translate(550.7236328125,310.46630859375)"/>
<path d="M0 0 C20.13 0 40.26 0 61 0 C61.04521815 27.49542065 61.08203065 54.99081101 61.10362434 82.48625946 C61.11391898 95.25403682 61.12794455 108.02178936 61.15087891 120.78955078 C61.17086839 131.92322224 61.1837296 143.05687572 61.18817699 154.19056463 C61.19077497 160.08092825 61.19684335 165.97124045 61.21146011 171.86158752 C61.22513198 177.4166672 61.22920339 182.97167474 61.22621536 188.52676964 C61.22676126 190.55510031 61.23068104 192.58343363 61.23841095 194.61174965 C61.29158119 209.29571142 60.94925761 223.91056047 56.8125 238.125 C56.59891846 238.86943359 56.38533691 239.61386719 56.1652832 240.38085938 C50.33155468 259.72046559 38.28784974 275.34219263 20.58642578 285.2512207 C-1.12468764 296.69231078 -29.26044681 299.22210146 -53 294 C-54.17433594 293.75507812 -55.34867188 293.51015625 -56.55859375 293.2578125 C-81.58634712 287.37199329 -101.38805816 271.73934151 -115.0390625 250.25 C-119 243.68525896 -119 243.68525896 -119 240 C-117.03833008 238.48876953 -117.03833008 238.48876953 -114.26953125 236.8828125 C-112.73752075 235.98079102 -112.73752075 235.98079102 -111.17456055 235.06054688 C-109.51034058 234.10245117 -109.51034058 234.10245117 -107.8125 233.125 C-105.52235855 231.7856476 -103.23328354 230.44460545 -100.9453125 229.1015625 C-100.36470566 228.76227722 -99.78409882 228.42299194 -99.18589783 228.07342529 C-95.34208095 225.81894922 -91.56041775 223.48391104 -87.8046875 221.0859375 C-86.37999146 220.17884033 -86.37999146 220.17884033 -84.92651367 219.25341797 C-83.12909481 218.10277511 -81.33735059 216.94320924 -79.55200195 215.77392578 C-78.34096802 215.00411377 -78.34096802 215.00411377 -77.10546875 214.21875 C-76.40574951 213.76435547 -75.70603027 213.30996094 -74.98510742 212.84179688 C-73 212 -73 212 -70.87768555 212.17919922 C-67.66730023 213.5825688 -66.34051311 216.71608646 -64.625 219.625 C-63.83035989 220.90974651 -63.03220681 222.19232716 -62.23046875 223.47265625 C-61.84681152 224.08641113 -61.4631543 224.70016602 -61.06787109 225.33251953 C-55.92720719 233.35966504 -49.26744983 238.50745129 -40 241 C-28.88780396 242.22401867 -18.34782505 241.79613448 -9.1875 234.875 C-2.51182798 226.10125963 -0.85458583 217.85159201 -0.84178162 207.07827759 C-0.83684364 206.19110373 -0.83190566 205.30392987 -0.82681805 204.38987195 C-0.81148618 201.42349069 -0.80309412 198.457131 -0.79467773 195.49072266 C-0.78509582 193.36178397 -0.77508556 191.23284717 -0.76467896 189.10391235 C-0.73765777 183.32760447 -0.7166331 177.55128844 -0.69667697 171.77495241 C-0.67480025 165.73710936 -0.6474198 159.69929135 -0.62062073 153.66146851 C-0.57071666 142.22940778 -0.52576933 130.79733314 -0.48259836 119.36524522 C-0.43320647 106.3496177 -0.37829557 93.33401529 -0.32291877 80.31841207 C-0.20913381 53.54563033 -0.10301572 26.77282549 0 0 Z " fill="#020200" transform="translate(288,294)"/>
</svg>
