<?xml version="1.0" encoding="UTF-8"?>
<svg version="1.1" xmlns="http://www.w3.org/2000/svg" width="300" height="300">
<path d="M0 0 C0.81868561 -0.01036789 1.63737122 -0.02073578 2.48086548 -0.03141785 C5.17469076 -0.05841966 7.86688002 -0.048841 10.56079102 -0.03637695 C12.44117179 -0.0422888 14.3215488 -0.04953675 16.20191956 -0.05805969 C20.13855634 -0.06992849 24.07462734 -0.06325191 28.01123047 -0.04394531 C33.04653178 -0.02106867 38.08014445 -0.04783018 43.1152792 -0.08900738 C46.99737435 -0.11463112 50.87906798 -0.11199294 54.76121712 -0.10111427 C56.617102 -0.09963112 58.47301819 -0.10727669 60.328825 -0.12436485 C62.92857923 -0.14441723 65.52538 -0.12588073 68.125 -0.09765625 C68.88521957 -0.11137268 69.64543915 -0.12508911 70.42869568 -0.13922119 C75.70269038 -0.02526725 78.42903508 1.53401096 82.29719639 5.08410931 C84.73833174 7.98177634 84.75382199 10.79964574 84.76141834 14.41932392 C84.76587619 15.40391443 84.77033403 16.38850493 84.77492696 17.40293151 C84.77465042 19.02955578 84.77465042 19.02955578 84.77436829 20.68904114 C84.77804497 21.83893278 84.78172166 22.98882443 84.78550977 24.17356128 C84.79463746 27.3704498 84.79924647 30.56730816 84.80189908 33.76420748 C84.80580218 37.21011759 84.81538042 40.65601283 84.82411194 44.10191345 C84.84387473 52.42556431 84.85394169 60.74921638 84.86283973 69.07288483 C84.86722236 72.9916468 84.87258919 76.91040742 84.8778286 80.82916832 C84.89483963 93.85379792 84.90933465 106.87842668 84.91657734 119.90306568 C84.91848726 123.28303338 84.92040759 126.66300108 84.92236328 130.04296875 C84.92284702 130.88305175 84.92333076 131.72313475 84.92382916 132.58867481 C84.9321327 146.20297744 84.95747562 159.81719231 84.98994396 173.4314566 C85.02299857 187.40531567 85.04102459 201.3791301 85.04422158 215.35302848 C85.04638801 223.20037669 85.05515619 231.04759685 85.08068275 238.894907 C85.10236785 245.57673207 85.11045099 252.25839798 85.10071597 258.94025425 C85.09616502 262.34966647 85.09810309 265.75875016 85.11747742 269.16811752 C85.13508455 272.86425518 85.12814429 276.55955433 85.11494446 280.25569153 C85.13139833 281.87227755 85.13139833 281.87227755 85.1481846 283.52152187 C85.09755679 289.37682539 84.7783824 293.16141457 80.62719727 297.6628418 C75.9905544 301.86227216 70.22786693 301.0833089 64.32252502 301.05052185 C63.16684098 301.05590739 62.01115693 301.06129293 60.82045215 301.06684166 C57.61657717 301.07867326 54.41303539 301.07704965 51.20915735 301.06967485 C47.75235918 301.06494709 44.29561695 301.07744953 40.83883667 301.08769226 C34.06829585 301.1048933 27.29784777 301.10571759 20.52729077 301.10047936 C15.02449568 301.09643888 9.52172802 301.09787976 4.01893425 301.10322762 C3.23591681 301.10397604 2.45289936 301.10472446 1.64615412 301.10549556 C0.05548517 301.10702703 -1.53518378 301.10856538 -3.12585271 301.11011053 C-18.04471833 301.12384027 -32.96353151 301.11839454 -47.88239593 301.10692532 C-61.53214742 301.09699224 -75.18176338 301.10993402 -88.83149397 301.13385951 C-102.84610914 301.15823955 -116.86066117 301.16786109 -130.87529713 301.16120678 C-138.74383902 301.15771214 -146.61227666 301.15996272 -154.48080254 301.17745781 C-161.17906588 301.19216612 -167.87715156 301.19283329 -174.57541137 301.1753869 C-177.99292542 301.1668631 -181.4101219 301.1647605 -184.82761955 301.18003845 C-188.53243069 301.19317453 -192.23637357 301.18176493 -195.94114685 301.16404724 C-197.02139757 301.17365225 -198.10164829 301.18325725 -199.21463388 301.19315332 C-205.24806759 301.13362178 -208.77636847 300.69139062 -213.37280273 296.6628418 C-216.14051937 293.11116149 -215.67547894 288.81666328 -215.67919922 284.5012207 C-215.68752274 283.68122086 -215.69584625 282.86122101 -215.704422 282.01637268 C-215.72850487 279.30733483 -215.7372918 276.59853782 -215.74389648 273.8894043 C-215.75286382 272.00377328 -215.76198569 270.11814299 -215.77125549 268.23251343 C-215.78774317 264.27990999 -215.79544526 260.32739123 -215.79833984 256.37475586 C-215.80372471 251.31491375 -215.84140991 246.25586958 -215.88708401 241.19625282 C-215.91685489 237.30141303 -215.9240634 233.40676543 -215.92506599 229.51182175 C-215.92926791 227.64671548 -215.94170109 225.78160862 -215.96258354 223.91661453 C-215.98950025 221.30489987 -215.98467249 218.69503541 -215.97216797 216.08325195 C-215.98700226 215.31629501 -216.00183655 214.54933807 -216.01712036 213.75914001 C-215.96495102 209.92446482 -215.46952588 207.27270602 -213.14784241 204.26156616 C-208.24567852 199.67086684 -204.08812441 199.36573578 -197.57250977 199.38818359 C-196.41785217 199.3805172 -196.41785217 199.3805172 -195.23986816 199.37269592 C-192.7033707 199.35883287 -190.16714601 199.35975435 -187.63061523 199.36206055 C-185.86091003 199.3581715 -184.09120576 199.3538364 -182.32150269 199.34907532 C-178.61445082 199.34161995 -174.90749419 199.34189921 -171.20043945 199.34716797 C-166.4603996 199.35295842 -161.72075103 199.33603862 -156.98077583 199.3128233 C-153.32609799 199.29805823 -149.67151375 199.29721808 -146.01681137 199.30033302 C-144.26978659 199.2998211 -142.52275639 199.29460759 -140.77576065 199.2845211 C-138.32754699 199.27212149 -135.88008725 199.27896929 -133.43188477 199.29052734 C-132.71684784 199.28288361 -132.00181091 199.27523987 -131.2651062 199.2673645 C-126.18667909 199.32009602 -122.805012 200.35581079 -118.37280273 202.6628418 C-114.49109441 206.85100077 -113.26200314 209.34170728 -113.19702148 214.9675293 C-113.16125 216.55500977 -113.16125 216.55500977 -113.12475586 218.17456055 C-113.0819405 220.40874385 -113.0506068 222.64317799 -113.03100586 224.87768555 C-113.00329102 225.93858398 -112.97557617 226.99948242 -112.94702148 228.0925293 C-112.93243896 229.06432129 -112.91785645 230.03611328 -112.90283203 231.03735352 C-112.22751078 234.38254224 -111.0115545 235.56034379 -108.37280273 237.6628418 C-104.78965511 238.85722434 -101.51415256 238.82606221 -97.78369141 238.83984375 C-96.62706245 238.84970055 -96.62706245 238.84970055 -95.44706726 238.85975647 C-92.89496766 238.87946894 -90.34292684 238.89114718 -87.79077148 238.90112305 C-86.91840662 238.90519857 -86.04604176 238.9092741 -85.14724159 238.91347313 C-80.53029238 238.93432465 -75.91337282 238.9486306 -71.29638672 238.95800781 C-66.53147011 238.9690732 -61.76702036 239.00347705 -57.00226879 239.04317951 C-53.33477417 239.06934143 -49.6673909 239.07769924 -45.99981117 239.08128929 C-44.2435624 239.08615599 -42.48731862 239.09777238 -40.73116112 239.11632729 C-38.27043147 239.14071136 -35.81091148 239.13975552 -33.35009766 239.1328125 C-32.62832336 239.14562256 -31.90654907 239.15843262 -31.16290283 239.17163086 C-26.12157514 239.11992666 -23.25321861 237.83451118 -19.37280273 234.6628418 C-17.72433051 231.36589734 -18.23021688 227.69687064 -18.23477173 224.07269287 C-18.23195045 223.17275234 -18.22912917 222.27281182 -18.2262224 221.34560037 C-18.21784899 218.3116905 -18.2165358 215.27781699 -18.21508789 212.24389648 C-18.21042167 210.07602332 -18.20527842 207.90815114 -18.19969177 205.74028015 C-18.18839489 201.0623458 -18.17996839 196.38441788 -18.17357254 191.7064743 C-18.16291197 184.31155509 -18.14267229 176.91668195 -18.12045288 169.52178955 C-18.0584634 148.49021249 -18.00450536 127.45864358 -17.97143555 106.42700195 C-17.95310245 94.8187286 -17.92418236 83.21053208 -17.88343084 71.60231519 C-17.86233771 65.4563207 -17.8469003 59.31042316 -17.84462357 53.16439056 C-17.84247937 47.38271269 -17.82663309 41.60123659 -17.80023384 35.81962013 C-17.79303053 33.69679946 -17.79094485 31.57395437 -17.79433632 29.45112419 C-17.79822543 26.55415158 -17.78379419 23.65782515 -17.76480103 20.76092529 C-17.77033072 19.91986701 -17.77586042 19.07880872 -17.78155768 18.21226382 C-17.7082834 11.74226724 -16.23986626 7.64860113 -11.70860291 2.82926941 C-7.70519298 0.2292642 -4.62379857 -0.05186528 0 0 Z " fill="#29348D" transform="translate(215.372802734375,-0.662841796875)"/>
<path d="M0 0 C0.71466039 -0.00694553 1.42932078 -0.01389106 2.16563755 -0.02104706 C4.55484152 -0.03930988 6.94305169 -0.02905543 9.33229065 -0.01878357 C11.04741661 -0.02584246 12.76253634 -0.03458735 14.47764587 -0.04489136 C19.1326649 -0.06739894 23.78734415 -0.0644424 28.44239688 -0.05556989 C32.32915909 -0.05046073 36.2158574 -0.057752 40.10261303 -0.06504196 C49.27216521 -0.08204542 58.44155099 -0.07847074 67.61109924 -0.06175232 C77.06964276 -0.04482994 86.52772481 -0.0606661 95.98621792 -0.0929752 C104.108673 -0.11966903 112.23098442 -0.12694768 120.35347897 -0.11846012 C125.20395178 -0.11353036 130.05414691 -0.11574917 134.90458488 -0.13624763 C139.46595432 -0.15460151 144.02665988 -0.14864983 148.58799362 -0.12404823 C150.26092129 -0.11903939 151.9338995 -0.12253207 153.60678673 -0.13519669 C155.89324245 -0.15113546 158.17751418 -0.13617243 160.46386719 -0.11352539 C162.38159518 -0.11264593 162.38159518 -0.11264593 164.33806515 -0.1117487 C168.7991261 0.69651647 170.70827442 2.23191829 173.79542542 5.5146637 C175.89945566 9.93964337 176.04826148 13.93771804 176.05612183 18.7947998 C176.05994737 19.5055255 176.06377292 20.2162512 176.06771439 20.94851404 C176.07799223 23.31821512 176.07406226 25.68767153 176.07008362 28.05738831 C176.07443297 29.76118188 176.07961686 31.46497349 176.08557129 33.16876221 C176.09894807 37.78858638 176.09954146 42.40832868 176.09700799 47.02816844 C176.09593745 50.88753115 176.10082372 54.74687735 176.10561341 58.60623652 C176.11670388 67.71203668 176.11714849 76.81779559 176.11109924 85.92359924 C176.105058 95.31216298 176.11737534 104.70057691 176.13866931 114.08911508 C176.15629075 122.15553045 176.16228584 130.22189815 176.15903157 138.28833205 C176.15721955 143.10354758 176.15984689 147.91865622 176.17374611 152.73385429 C176.18632875 157.26225487 176.18437622 161.79042202 176.17133522 166.31881905 C176.1689709 167.97843124 176.17169895 169.63805988 176.17995834 171.2976532 C176.19044 173.56788642 176.18231449 175.83733836 176.16964722 178.10754395 C176.16981496 179.37643432 176.1699827 180.64532469 176.17015553 181.95266628 C175.58841591 187.48239275 173.94978942 191.26760341 170.11442566 195.41094971 C166.18872412 197.89921504 163.19868895 198.22676396 158.69142151 198.17408752 C157.89431511 198.1845599 157.09720871 198.19503227 156.27594757 198.20582199 C153.62319618 198.23466133 150.97174479 198.2282082 148.31886292 198.22169495 C146.42579066 198.23504663 144.53273254 198.25055342 142.63969421 198.26806641 C137.54094573 198.30887191 132.44256723 198.31888076 127.34367371 198.32235718 C122.04690856 198.33038019 116.75030336 198.36407789 111.45362854 198.39454651 C102.80160991 198.44067482 94.14969874 198.46847599 85.49757385 198.48390198 C75.45125521 198.50214838 65.40560205 198.55671724 55.35954285 198.62896729 C48.32302716 198.67921861 41.28646114 198.71225467 34.24983215 198.74180603 C30.95579225 198.75583559 27.66185565 198.77543637 24.36787415 198.79948425 C20.52099109 198.82666443 16.67434972 198.83878096 12.8273735 198.8390522 C11.43265268 198.8415038 10.03792957 198.84904669 8.64326859 198.86219597 C6.74940024 198.87921851 4.85538041 198.87566201 2.96144104 198.87110901 C1.90815613 198.87475464 0.85487122 198.87840027 -0.23033142 198.88215637 C-4.38870382 198.3683546 -7.74504298 196.84592293 -10.84910583 194.0146637 C-14.76707953 188.98288477 -15.33037991 185.8488299 -15.34501648 179.55732727 C-15.3479876 178.84508129 -15.35095872 178.13283532 -15.35401988 177.39900613 C-15.36270925 175.00623172 -15.36421533 172.61350733 -15.3657074 170.22071838 C-15.37033544 168.50751641 -15.37536008 166.79431546 -15.38075256 165.08111572 C-15.39388079 160.42188144 -15.40032247 155.76266157 -15.40476322 151.10341167 C-15.40769356 148.19252262 -15.41179832 145.2816375 -15.4162674 142.37075043 C-15.42994409 133.2634005 -15.43960963 124.15605958 -15.44346929 115.04870009 C-15.44794913 104.53554929 -15.46549292 94.02252855 -15.49446988 83.5094173 C-15.51608919 75.38362192 -15.52617372 67.25786314 -15.5275104 59.13203931 C-15.52855835 54.27876363 -15.53446384 49.4256102 -15.55233002 44.57236481 C-15.56881474 40.00544154 -15.57096425 35.43873235 -15.56219101 30.87178993 C-15.56142082 29.19766224 -15.56576095 27.52352303 -15.57564926 25.84942436 C-15.58838016 23.55934061 -15.58248626 21.27001374 -15.57206726 18.97993469 C-15.5742671 17.05969294 -15.5742671 17.05969294 -15.57651138 15.10065842 C-15.02720261 9.80454799 -13.61164513 6.02747106 -9.9673605 2.10933018 C-6.43838083 0.07242042 -4.06777337 0.00893345 0 0 Z M32.79542542 55.5146637 C31.59282526 59.12246415 31.62426557 62.43837111 31.60255432 66.1955719 C31.59437683 66.97641144 31.58619934 67.75725098 31.57777405 68.56175232 C31.55295774 71.14630878 31.53641427 73.73081047 31.52198792 76.31544495 C31.51666424 77.19884237 31.51134056 78.0822398 31.50585556 78.99240685 C31.47914113 83.66770433 31.45976024 88.34297527 31.44532776 93.01832581 C31.43198394 96.88575366 31.40412112 100.75265446 31.36329651 104.61988831 C31.31397858 109.29182634 31.28920796 113.96328601 31.28210068 118.63547325 C31.27538921 120.41407175 31.26016977 122.19265962 31.23620987 123.97110939 C31.20454984 126.46316163 31.20452203 128.95337092 31.21192932 131.4455719 C31.19552399 132.17669693 31.17911865 132.90782196 31.16221619 133.66110229 C31.20827068 137.45608154 31.76218911 139.95088279 34.08189392 142.89398193 C38.78329614 147.43451485 42.06931565 147.81709015 48.48219299 147.83692932 C49.2518187 147.84685913 50.0214444 147.85678894 50.81439209 147.86701965 C53.35628357 147.89618916 55.89792543 147.90985414 58.43995667 147.9209137 C60.21109013 147.93242292 61.98222355 147.94393831 63.75335693 147.95545959 C67.46636615 147.97645871 71.17928902 147.98815754 74.89234924 147.99513245 C79.64061573 148.00609678 84.38773363 148.05414573 89.13564014 148.11107635 C92.79461964 148.14840217 96.45332448 148.15874407 100.11247826 148.1618042 C101.86235011 148.1678423 103.61221799 148.18384938 105.36190224 148.21017456 C116.00966777 148.7824076 116.00966777 148.7824076 125.36061096 144.59864807 C128.88776578 140.13108368 128.95270899 137.35211986 128.97242737 131.83961487 C128.97899857 131.04756149 128.98556976 130.25550812 128.99234009 129.43945312 C129.0120883 126.81217865 129.02373901 124.18496138 129.03370667 121.55763245 C129.03778219 120.66103724 129.04185772 119.76444202 129.04605675 118.84067726 C129.06692393 114.09520828 129.08122287 109.34976827 129.09059143 104.60426331 C129.1016576 99.70134199 129.13605791 94.79887431 129.17576313 89.8961134 C129.20190197 86.12743279 129.21028083 82.35886071 129.21387291 78.59009743 C129.21874591 76.78278349 129.2303802 74.97547463 129.2489109 73.16824913 C129.27324482 70.63776533 129.27234818 68.10846097 129.26539612 65.57789612 C129.27820618 64.83225403 129.29101624 64.08661194 129.30421448 63.31837463 C129.2696522 59.86432745 128.9017211 57.69562449 127.14105225 54.69821167 C122.20878591 50.10675662 117.996694 49.13871936 111.35646057 49.1264801 C110.63691696 49.12122314 109.91737335 49.11596619 109.17602539 49.11054993 C106.81195464 49.09741314 104.4485648 49.10606699 102.08448792 49.1162262 C100.43070853 49.11420319 98.77693003 49.11128987 97.12315369 49.10752869 C93.66161076 49.10311352 90.20030058 49.10950858 86.73878479 49.12355042 C82.31832078 49.1406151 77.89840438 49.13081343 73.47796059 49.11283302 C70.06341997 49.10195033 66.64900739 49.10546247 63.23446274 49.1132164 C61.60549733 49.11520743 59.97652001 49.11279799 58.34756851 49.10577774 C44.2958284 48.55381552 44.2958284 48.55381552 32.79542542 55.5146637 Z " fill="#29338D" transform="translate(18.204574584960938,-0.5146636962890625)"/>
<path d="M0 0 C6.46341463 1.46341463 6.46341463 1.46341463 8.875 3.875 C11.16569526 8.20186882 11.12907152 12.18380493 11.14044189 17.03962708 C11.14341302 17.74864392 11.14638414 18.45766077 11.1494453 19.18816298 C11.15811701 21.5640119 11.15963924 23.93981034 11.16113281 26.31567383 C11.16576205 28.01917122 11.17078685 29.72266757 11.17617798 31.42616272 C11.18929332 36.05434704 11.19574518 40.68251687 11.20018864 45.31071687 C11.20312059 48.20268273 11.20722562 51.09464464 11.21169281 53.98660851 C11.22536509 63.03628992 11.23503322 72.08596229 11.2388947 81.13565332 C11.24337576 91.57974382 11.26092702 102.02370347 11.2898953 112.46775419 C11.31151435 120.54261474 11.32159909 128.61743849 11.32293582 136.69232768 C11.32398363 141.51428966 11.32988647 146.33612858 11.34775543 151.15806007 C11.36424009 155.69462832 11.3663897 160.23098106 11.35761642 164.76756859 C11.35684628 166.43040926 11.36118583 168.09326155 11.37107468 169.756073 C11.38380667 172.0307782 11.37791115 174.30472152 11.36749268 176.579422 C11.36895924 177.85091001 11.3704258 179.12239801 11.3719368 180.43241596 C10.79584284 185.95825692 9.15458733 189.74386918 5.33784485 193.89628601 C1.32261145 196.4269317 -1.80210836 196.71113055 -6.40551758 196.65942383 C-7.23269602 196.6699047 -8.05987446 196.68038557 -8.91211891 196.69118404 C-11.65663523 196.71999981 -14.3998896 196.71360602 -17.14453125 196.70703125 C-19.0903526 196.72023892 -21.03616036 196.7356034 -22.98194885 196.75299072 C-28.18509699 196.79332057 -33.38789266 196.80324454 -38.59117889 196.80708694 C-43.94906969 196.81609026 -49.30676821 196.85286868 -54.66455078 196.88647461 C-66.17010156 196.95323298 -77.67551835 196.97957316 -89.18123627 196.99551392 C-93.46083944 197.00232494 -97.74042702 197.01382911 -102.02001953 197.02539062 C-117.68017411 197.06573364 -133.33990208 197.0664343 -149 197 C-149 196.67 -149 196.34 -149 196 C-159.395 195.505 -159.395 195.505 -170 195 C-170 194.67 -170 194.34 -170 194 C-169.15793031 193.99668985 -168.31586061 193.99337971 -167.44827366 193.98996925 C-146.9408984 193.90868176 -126.43359653 193.81657045 -105.92632389 193.71247292 C-96.00908507 193.66239164 -86.09185432 193.61594823 -76.17456055 193.578125 C-67.52874047 193.54514171 -58.88298392 193.50527556 -50.23723406 193.45720994 C-45.66112488 193.43200792 -41.08505752 193.41020814 -36.50889778 193.39665604 C-32.19725982 193.38377842 -27.88576571 193.36166305 -23.57420731 193.33261681 C-21.99608483 193.32358544 -20.41793921 193.31786123 -18.83979225 193.31578636 C-7.23767503 193.44960528 -7.23767503 193.44960528 4 191 C7.23007737 186.98674737 7.37486857 183.68190832 7.3742218 178.63011169 C7.37819621 177.89770596 7.38217061 177.16530023 7.38626546 176.41070038 C7.3958739 173.96167119 7.3840795 171.51322178 7.37231445 169.06420898 C7.37474288 167.30643498 7.3784627 165.54866236 7.38337708 163.79089355 C7.39278203 159.02033827 7.3833643 154.24998829 7.37004495 149.47944903 C7.35872975 144.48850139 7.36283797 139.49756384 7.36479187 134.50660706 C7.36567474 126.12619674 7.3545952 117.74586734 7.33618164 109.36547852 C7.31500724 99.67300115 7.31150566 89.98064225 7.3177436 80.28814644 C7.32343553 70.96721355 7.31779405 61.64632244 7.30657005 52.32539558 C7.30192251 48.35697724 7.30105088 44.38858443 7.3031559 40.42016411 C7.30503768 35.74900069 7.29694339 31.07795808 7.2810955 26.4068222 C7.27684834 24.69112968 7.276005 22.97542491 7.27878571 21.25972939 C7.28200198 18.92065465 7.2729399 16.58194215 7.26069641 14.24290466 C7.25864354 12.93307837 7.25659067 11.62325209 7.25447559 10.27373409 C7.01689638 7.21736564 6.77840844 5.47012001 5 3 C2.44480079 2.18828772 2.44480079 2.18828772 0 2 C0 1.34 0 0.68 0 0 Z " fill="#2D2A6F" transform="translate(183,1)"/>
<path d="M0 0 C1.15421951 -0.00744736 1.15421951 -0.00744736 2.33175659 -0.01504517 C4.87905776 -0.02965696 7.42629661 -0.03646789 9.97363281 -0.04199219 C11.74619549 -0.04774538 13.51875815 -0.05350309 15.2913208 -0.05926514 C19.01029754 -0.06977297 22.72925269 -0.07561675 26.44824219 -0.07910156 C31.20400733 -0.08457939 35.95948518 -0.10859304 40.71516037 -0.13707352 C44.37840598 -0.15573831 48.041583 -0.16090759 51.70487213 -0.16243744 C53.45748715 -0.1654569 55.21010117 -0.17346149 56.96266937 -0.18662262 C59.4206446 -0.20376026 61.87792606 -0.20178406 64.3359375 -0.1953125 C65.41320602 -0.20913467 65.41320602 -0.20913467 66.51223755 -0.22323608 C71.60455933 -0.18143316 74.98443493 0.84597609 79.42675781 3.16113281 C83.30846613 7.34929179 84.53755741 9.83999829 84.60253906 15.46582031 C84.63831055 17.05330078 84.63831055 17.05330078 84.67480469 18.67285156 C84.71762005 20.90703487 84.74895374 23.14146901 84.76855469 25.37597656 C84.79626953 26.436875 84.82398437 27.49777344 84.85253906 28.59082031 C84.86712158 29.5626123 84.8817041 30.5344043 84.89672852 31.53564453 C85.57204976 34.88083325 86.78800604 36.05863481 89.42675781 38.16113281 C93.01414431 39.35692831 96.2821466 39.30872125 100.01586914 39.30639648 C101.17249809 39.3114344 101.17249809 39.3114344 102.35249329 39.3165741 C104.90460822 39.32608178 107.45665751 39.32802725 110.00878906 39.32910156 C111.78374763 39.33231474 113.55870593 39.33567886 115.33366394 39.33918762 C119.05684015 39.34517876 122.77999314 39.34702758 126.50317383 39.34643555 C131.26794139 39.34633403 136.03255957 39.35997519 140.79729176 39.37720776 C144.46478454 39.38834215 148.13224142 39.3903543 151.79974937 39.38982582 C153.55597129 39.39100419 155.31219418 39.39541793 157.06839943 39.40315819 C159.52885931 39.41298523 161.98899753 39.41006917 164.44946289 39.40405273 C165.53212433 39.41248199 165.53212433 39.41248199 166.63665771 39.42108154 C171.74256535 39.38944897 175.86964799 38.43968772 180.42675781 36.16113281 C177.88138394 41.61550539 177.88138394 41.61550539 174.79266357 42.77407837 C171.39170744 43.33046367 168.00911128 43.33421401 164.57226562 43.35400391 C163.3909758 43.36627014 163.3909758 43.36627014 162.18582153 43.37878418 C159.58384956 43.40356245 156.98193188 43.420135 154.37988281 43.43457031 C153.04335789 43.44255583 153.04335789 43.44255583 151.67983246 43.45070267 C146.96332155 43.47740173 142.24683681 43.49678674 137.53027344 43.51123047 C133.63485209 43.52456594 129.73995503 43.55241582 125.84472656 43.59326172 C121.13272402 43.64266582 116.4211967 43.66736081 111.70894623 43.67445755 C109.91804564 43.68115523 108.12715505 43.69633858 106.33640289 43.72034836 C88.89559276 43.94084414 88.89559276 43.94084414 82.42675781 38.16113281 C81.12817823 35.56397365 81.28355902 33.61370653 81.25097656 30.70800781 C81.21520508 29.06638672 81.21520508 29.06638672 81.17871094 27.39160156 C81.13603493 25.08709732 81.1046266 22.78235452 81.08496094 20.47753906 C80.9237192 11.99391809 80.9237192 11.99391809 76.42675781 5.16113281 C72.67936783 3.73162807 68.66338593 4.00609141 64.70825195 4 C63.93541367 3.9950351 63.16257538 3.99007019 62.36631775 3.98495483 C59.81484074 3.97037352 57.26342585 3.96353883 54.71191406 3.95800781 C52.93598937 3.95225414 51.16006468 3.94649643 49.38414001 3.94073486 C45.66274731 3.93023712 41.94137613 3.92438607 38.2199707 3.92089844 C33.4539491 3.91540868 28.68821246 3.89136529 23.92228031 3.86292648 C20.25482857 3.84429694 16.58744554 3.83909439 12.91995049 3.83756256 C11.16289139 3.83453748 9.40583347 3.82651381 7.64882088 3.81337738 C5.19054598 3.79630604 2.73296846 3.7981993 0.2746582 3.8046875 C-0.44914032 3.79547272 -1.17293884 3.78625793 -1.91867065 3.77676392 C-6.30823796 3.8130221 -9.10741129 4.4232263 -12.57324219 7.16113281 C-14.39954013 10.2279408 -14.39954013 10.2279408 -15.57324219 13.16113281 C-15.90324219 13.16113281 -16.23324219 13.16113281 -16.57324219 13.16113281 C-16.94824219 9.97363281 -16.94824219 9.97363281 -16.57324219 6.16113281 C-12.08002036 0.52677528 -6.73071789 0.01035969 0 0 Z " fill="#313074" transform="translate(17.5732421875,198.8388671875)"/>
<path d="M0 0 C0.76527512 -0.00365067 1.53055023 -0.00730133 2.3190155 -0.01106262 C4.82130878 -0.01909803 7.3229403 -0.00562225 9.82519531 0.0090332 C11.57537841 0.00955244 13.3255621 0.00903228 15.07574463 0.00752258 C18.73043608 0.00761198 22.38490543 0.01797828 26.03955078 0.03613281 C30.72257096 0.05888623 35.40526898 0.05934842 40.08832932 0.05261517 C43.69656232 0.04927466 47.3047219 0.0559057 50.91294098 0.0657444 C52.64010484 0.06959023 54.36727687 0.07074717 56.09444427 0.06915855 C58.50452783 0.06878768 60.91419741 0.08141201 63.32421875 0.09765625 C64.03597763 0.09517883 64.74773651 0.09270142 65.48106384 0.09014893 C69.20747394 0.13023194 71.66319048 0.57954393 74.90332031 2.37231445 C76.22332031 2.37231445 77.54332031 2.37231445 78.90332031 2.37231445 C78.90332031 3.36231445 78.90332031 4.35231445 78.90332031 5.37231445 C74.34344486 5.62564087 74.34344486 5.62564087 72.18218994 4.38166809 C68.96739859 2.95777736 66.20092196 3.11010067 62.69140625 3.09765625 C61.61252892 3.08998985 61.61252892 3.08998985 60.51185608 3.08216858 C58.13705082 3.06828407 55.76253632 3.06922908 53.38769531 3.0715332 C51.73105767 3.06764438 50.07442101 3.06330932 48.41778564 3.05854797 C44.94434378 3.05108729 41.47100354 3.051375 37.99755859 3.05664062 C33.56136946 3.06242153 29.1255997 3.04553713 24.68947983 3.02229595 C21.26637364 3.00750939 17.84336715 3.00669382 14.42023468 3.00980568 C12.78567935 3.00929449 11.15111813 3.00409498 9.51659393 2.99399376 C-2.21049417 2.65741239 -2.21049417 2.65741239 -13.09667969 6.37231445 C-16.34407853 10.48412839 -16.52670235 14.26082908 -16.48486328 19.31201172 C-16.49012024 20.0963559 -16.4953772 20.88070007 -16.50079346 21.68881226 C-16.51395956 24.27231973 -16.50526846 26.85520735 -16.49511719 29.4387207 C-16.4971387 31.23803322 -16.50005078 33.03734494 -16.5038147 34.83665466 C-16.50823328 38.60342222 -16.50182127 42.36997607 -16.48779297 46.13671875 C-16.47068902 50.96451325 -16.4805528 55.79180785 -16.49851036 60.61958408 C-16.50935031 64.33334623 -16.50590111 68.04698982 -16.49812698 71.76075554 C-16.4961262 73.54095456 -16.49857999 75.32116435 -16.50556564 77.10135078 C-16.51318501 79.58852801 -16.50157016 82.07489486 -16.48486328 84.56201172 C-16.49397232 85.66477196 -16.49397232 85.66477196 -16.50326538 86.78981018 C-16.45044278 91.03473474 -15.86724849 93.18192343 -13.09667969 96.37231445 C-13.09667969 97.36231445 -13.09667969 98.35231445 -13.09667969 99.37231445 C-16.98486872 97.89748413 -18.32657534 96.0987105 -20.09667969 92.37231445 C-20.37634215 89.62169013 -20.49732669 87.10304277 -20.46899414 84.35668945 C-20.47264481 83.564198 -20.47629547 82.77170654 -20.48005676 81.9552002 C-20.48814131 79.34401809 -20.47456978 76.73346066 -20.45996094 74.12231445 C-20.45944208 72.30297852 -20.45996078 70.48364202 -20.46147156 68.66430664 C-20.46138193 64.85465099 -20.45097139 61.04520736 -20.43286133 57.2355957 C-20.41017457 52.35641586 -20.40963109 47.47754571 -20.41637897 42.59832764 C-20.41972312 38.84250138 -20.41308044 35.08674551 -20.40324974 31.33093262 C-20.39940516 29.53202686 -20.39824645 27.73311326 -20.39983559 25.9342041 C-20.40020714 23.41863126 -20.38756093 20.90345293 -20.37133789 18.38793945 C-20.37381531 17.6470105 -20.37629272 16.90608154 -20.37884521 16.1427002 C-20.33747532 12.11591304 -19.87981131 8.99909417 -18.09667969 5.37231445 C-17.43667969 5.37231445 -16.77667969 5.37231445 -16.09667969 5.37231445 C-16.09667969 4.71231445 -16.09667969 4.05231445 -16.09667969 3.37231445 C-10.58434018 1.04250964 -6.01811356 -0.06537355 0 0 Z " fill="#201F68" transform="translate(67.0966796875,46.627685546875)"/>
<path d="M0 0 C1.15421951 -0.00744736 1.15421951 -0.00744736 2.33175659 -0.01504517 C4.87905776 -0.02965696 7.42629661 -0.03646789 9.97363281 -0.04199219 C11.74619549 -0.04774538 13.51875815 -0.05350309 15.2913208 -0.05926514 C19.01029754 -0.06977297 22.72925269 -0.07561675 26.44824219 -0.07910156 C31.20400733 -0.08457939 35.95948518 -0.10859304 40.71516037 -0.13707352 C44.37840598 -0.15573831 48.041583 -0.16090759 51.70487213 -0.16243744 C53.45748715 -0.1654569 55.21010117 -0.17346149 56.96266937 -0.18662262 C59.4206446 -0.20376026 61.87792606 -0.20178406 64.3359375 -0.1953125 C65.41320602 -0.20913467 65.41320602 -0.20913467 66.51223755 -0.22323608 C71.58566611 -0.18158826 75.00461676 0.8425616 79.42675781 3.16113281 C79.92175781 4.15113281 79.92175781 4.15113281 80.42675781 5.16113281 C79.27531784 4.99945618 78.12387787 4.83777954 76.93754578 4.67120361 C72.70794304 4.14502111 68.5133255 4.00669227 64.25415039 4 C63.480728 3.9950351 62.7073056 3.99007019 61.91044617 3.98495483 C59.38071777 3.97048202 56.85105185 3.96355989 54.32128906 3.95800781 C53.45226141 3.95518044 52.58323376 3.95235306 51.68787193 3.94944 C47.09798255 3.93451563 42.50812411 3.92524087 37.91821289 3.92089844 C33.18369442 3.91539283 28.44946049 3.8913019 23.71503162 3.86292648 C20.06474469 3.84430514 16.41452681 3.83909499 12.7641964 3.83756256 C11.01830155 3.83453941 9.27240781 3.82652227 7.52655983 3.81337738 C5.08787793 3.79631108 2.64989912 3.79819717 0.21118164 3.8046875 C-0.86508987 3.79086533 -0.86508987 3.79086533 -1.96310425 3.77676392 C-6.33694633 3.81320464 -9.11874843 4.43727295 -12.57324219 7.16113281 C-14.39954013 10.2279408 -14.39954013 10.2279408 -15.57324219 13.16113281 C-15.90324219 13.16113281 -16.23324219 13.16113281 -16.57324219 13.16113281 C-16.94824219 9.97363281 -16.94824219 9.97363281 -16.57324219 6.16113281 C-12.08002036 0.52677528 -6.73071789 0.01035969 0 0 Z " fill="#1B1D65" transform="translate(17.5732421875,198.8388671875)"/>
<path d="M0 0 C-1.62551467 1.78806614 -2.81694042 2.92233836 -5.0625 3.875 C-7.85552892 5.49675873 -8.07358147 6.9048127 -9 10 C-9.28567296 12.99153184 -9.27246402 15.96776191 -9.25828552 18.97109985 C-9.26379908 20.3280306 -9.26379908 20.3280306 -9.26942402 21.71237409 C-9.27940542 24.74401637 -9.27525296 27.77547528 -9.27124023 30.80712891 C-9.27562707 32.98031306 -9.28092907 35.15349553 -9.28707886 37.32667542 C-9.29858115 42.00621189 -9.30403843 46.68570307 -9.30496025 51.36525345 C-9.30689893 58.75960675 -9.32493978 66.1538661 -9.34571838 73.54818726 C-9.39492962 91.91151223 -9.42597634 110.27486698 -9.44702148 128.63824463 C-9.46352348 142.91380896 -9.48627107 157.18929279 -9.53004223 171.4648031 C-9.55187654 178.82084639 -9.55987112 186.17673697 -9.55764949 193.53281045 C-9.55931124 198.10106074 -9.5733285 202.66921051 -9.59086227 207.23742485 C-9.59648135 209.36151209 -9.59692916 211.48562001 -9.59192467 213.60970879 C-9.58582483 216.50099376 -9.59793928 219.39163839 -9.61473083 222.28286743 C-9.60851902 223.13061788 -9.6023072 223.97836833 -9.59590715 224.85180819 C-9.65717386 230.60897631 -9.65717386 230.60897631 -11.52369839 232.73791349 C-12.01087792 233.15440204 -12.49805745 233.57089059 -13 234 C-12.83826325 233.35809628 -12.67652651 232.71619257 -12.50988865 232.05483723 C-11.84257255 228.056823 -11.84652931 224.16917329 -11.84178162 220.12260437 C-11.83684364 219.22811783 -11.83190566 218.33363129 -11.82681805 217.4120391 C-11.81146048 214.41491268 -11.80308712 211.41780766 -11.79467773 208.4206543 C-11.78509785 206.27215894 -11.7750877 204.12366546 -11.76467896 201.97517395 C-11.73763586 196.14095738 -11.71662303 190.30673273 -11.69667697 184.47248816 C-11.67481378 178.37591563 -11.64742671 172.279368 -11.62062073 166.18281555 C-11.57069837 154.63739035 -11.52575782 143.09195132 -11.48259836 131.54649907 C-11.43322211 118.40272314 -11.37830541 105.25897219 -11.32291877 92.11522043 C-11.20910573 65.07683693 -11.10226518 38.03842946 -11 11 C-11.66 10.67 -12.32 10.34 -13 10 C-9.93249196 3.25148232 -7.91481214 -0.71952838 0 0 Z " fill="#0F1163" transform="translate(211,1)"/>
<path d="M0 0 C6.42890625 1.45560142 6.42890625 1.45560142 8.70792103 3.62808609 C10.50090357 6.91952595 10.36871348 9.45885582 10.36076355 13.20062256 C10.36332682 13.92682903 10.3658901 14.65303549 10.36853105 15.40124822 C10.37347326 17.83510736 10.35696929 20.26834643 10.34057617 22.70214844 C10.33972999 24.44655849 10.34020486 26.1909696 10.34190369 27.93537903 C10.34276542 32.67268777 10.32511082 37.40976924 10.30418181 42.14702511 C10.28544471 47.09713022 10.28366691 52.04724038 10.28010559 56.99737549 C10.2707764 66.37189914 10.24615078 75.74631801 10.21605712 85.12079549 C10.18254032 95.79297999 10.16603394 106.46516946 10.15097082 117.13739347 C10.119602 139.09165417 10.0668245 161.04582049 10 183 C9.67 183 9.34 183 9 183 C8.99503478 181.67725051 8.99503478 181.67725051 8.98996925 180.32777882 C8.90877737 158.87880095 8.81669741 137.42989399 8.71247292 115.98101521 C8.66233395 105.60853363 8.61589115 95.23606001 8.578125 84.86352539 C8.54520178 75.8236774 8.50536869 66.7838909 8.45720994 57.74411076 C8.43194828 52.95685952 8.41016597 48.16964905 8.39665604 43.38234901 C8.38383273 38.87702261 8.3617753 34.37183607 8.33261681 29.86658669 C8.32354316 28.21260591 8.31785129 26.55860261 8.31578636 24.90459824 C8.31246231 22.64659241 8.29698127 20.38898279 8.2784729 18.13105774 C8.27294214 16.86727956 8.26741138 15.60350138 8.26171303 14.30142689 C8.00579634 11.07311905 7.35688987 8.91063155 6 6 C5.67 5.01 5.34 4.02 5 3 C3.35 2.67 1.7 2.34 0 2 C0 1.34 0 0.68 0 0 Z " fill="#03004D" transform="translate(183,1)"/>
<path d="M0 0 C0.66 0 1.32 0 2 0 C4.06926887 4.25498953 4.31055971 8.14195471 4.3347168 12.7878418 C4.34636871 13.55589142 4.35802063 14.32394104 4.37002563 15.11526489 C4.40588987 17.64322768 4.42783945 20.17109523 4.44921875 22.69921875 C4.4704779 24.45848941 4.49244541 26.21775164 4.51509094 27.977005 C4.56042856 31.65789027 4.59924125 35.33876659 4.63305664 39.01977539 C4.67669567 43.74461848 4.73342631 48.46919019 4.7946043 53.19383526 C4.84071128 56.82336811 4.88153395 60.4529444 4.92057228 64.08255959 C4.93965188 65.82535036 4.96001358 67.56812757 4.98166466 69.31088829 C5.01074061 71.74068832 5.03309557 74.17045526 5.0534668 76.6003418 C5.06327072 77.32400436 5.07307465 78.04766693 5.08317566 78.79325867 C5.11445791 83.77108419 5.11445791 83.77108419 4 86 C3.34 86 2.68 86 2 86 C1.98969254 84.9815802 1.97938507 83.9631604 1.96876526 82.91387939 C1.87104431 73.32013973 1.7683114 63.72646511 1.66066074 54.13283157 C1.60547681 49.20055614 1.55206401 44.26827474 1.50268555 39.3359375 C1.45497524 34.57671715 1.40262995 29.81756836 1.34705925 25.05843353 C1.32666592 23.2419691 1.30794787 21.42548506 1.29092598 19.6089859 C1.26681508 17.06640028 1.23676966 14.5239493 1.20532227 11.98144531 C1.1995668 11.22906586 1.19381134 10.4766864 1.18788147 9.70150757 C1.14049702 6.33501786 1.04489366 3.21973999 0 0 Z " fill="#1C1C6F" transform="translate(146,53)"/>
<path d="M0 0 C0 3 0 3 -1.25 4.625 C-5.23465741 7.75580225 -10.13634443 7.1366779 -14.98144531 7.11352539 C-15.7818222 7.11367142 -16.5821991 7.11381744 -17.40682983 7.1139679 C-20.04728931 7.1132723 -22.68767788 7.1054964 -25.328125 7.09765625 C-27.16086793 7.09579082 -28.99361137 7.09436751 -30.82635498 7.09336853 C-35.64649842 7.08955322 -40.46661165 7.07973133 -45.28674316 7.06866455 C-50.20678295 7.05842925 -55.12682763 7.05386637 -60.046875 7.04882812 C-69.69792993 7.03810819 -79.34896245 7.02104359 -89 7 C-89 6.67 -89 6.34 -89 6 C-88.417379 5.98969254 -87.834758 5.97938507 -87.23448181 5.96876526 C-70.48912768 5.67130614 -53.74435151 5.34944957 -37 5 C-35.59122589 4.97099609 -35.59122589 4.97099609 -34.1539917 4.94140625 C-28.8937753 4.83190752 -23.63444844 4.70417625 -18.375 4.5625 C-17.11679443 4.53551025 -15.85858887 4.50852051 -14.56225586 4.48071289 C-12.87241577 4.4303186 -12.87241577 4.4303186 -11.1484375 4.37890625 C-10.19114746 4.3538501 -9.23385742 4.32879395 -8.24755859 4.30297852 C-5.8000943 4.20429586 -5.8000943 4.20429586 -4 2 C-2.68252676 1.30251417 -1.35085807 0.63040043 0 0 Z " fill="#0D1373" transform="translate(197,235)"/>
<path d="M0 0 C0.495 0.99 0.495 0.99 1 2 C-0.1875 4.5625 -0.1875 4.5625 -2 7 C-6.1249725 8.42265527 -10.40447689 8.1322642 -14.71582031 8.11352539 C-15.59422577 8.11367142 -16.47263123 8.11381744 -17.37765503 8.1139679 C-20.2778369 8.11327185 -23.17795436 8.10549386 -26.078125 8.09765625 C-28.09022995 8.09579098 -30.10233535 8.09436759 -32.11444092 8.09336853 C-37.40805314 8.08955198 -42.70163789 8.07972902 -47.99523926 8.06866455 C-53.39786406 8.05843192 -58.8004933 8.05386694 -64.203125 8.04882812 C-74.8020954 8.038106 -85.40104541 8.0210399 -96 8 C-96 7.67 -96 7.34 -96 7 C-94.96762711 6.99191315 -93.93525421 6.98382629 -92.87159729 6.97549438 C-83.11748995 6.89783305 -73.36351866 6.81004405 -63.60958958 6.71247292 C-58.59562989 6.66263884 -53.58168997 6.61630808 -48.56762695 6.578125 C-43.72404002 6.54110887 -38.88062378 6.49470554 -34.03718376 6.44193649 C-32.19416247 6.42347899 -30.35110471 6.40833953 -28.50802803 6.39665604 C-25.91606487 6.37964471 -23.32448531 6.35057565 -20.73266602 6.31884766 C-19.97956146 6.31668747 -19.22645691 6.31452728 -18.45053101 6.31230164 C-8.88760407 6.25660786 -8.88760407 6.25660786 -0.9375 1.875 C-0.4734375 0.946875 -0.4734375 0.946875 0 0 Z " fill="#090855" transform="translate(190,188)"/>
<path d="M0 0 C0.495 1.485 0.495 1.485 1 3 C-3.56158895 3.25342161 -3.56158895 3.25342161 -5.71893311 2.00637817 C-8.95006837 0.58084172 -11.72269263 0.76096154 -15.24707031 0.77294922 C-15.96941864 0.77265717 -16.69176697 0.77236511 -17.43600464 0.77206421 C-19.81683483 0.77345438 -22.19734967 0.78900066 -24.578125 0.8046875 C-26.23150461 0.80841875 -27.88488643 0.81126519 -29.53826904 0.81326294 C-33.88499074 0.82089062 -38.23157829 0.84053167 -42.57824707 0.8626709 C-47.01568792 0.88314796 -51.4531505 0.89226864 -55.890625 0.90234375 C-64.59381149 0.92377839 -73.29688904 0.95790388 -82 1 C-82.33 0.34 -82.66 -0.32 -83 -1 C-73.50722432 -1.17758477 -64.01433538 -1.3434936 -54.52110386 -1.49477577 C-50.1123351 -1.56539401 -45.70370732 -1.63993087 -41.29516602 -1.72363281 C-37.03535045 -1.80436332 -32.77547639 -1.87452642 -28.51536369 -1.93757248 C-26.89553424 -1.9633619 -25.27575924 -1.99286582 -23.6560688 -2.02626419 C-6.956118 -2.36582825 -6.956118 -2.36582825 0 0 Z " fill="#312E66" transform="translate(145,49)"/>
<path d="M0 0 C-1.62551467 1.78806614 -2.81694042 2.92233836 -5.0625 3.875 C-7.88613253 5.51452857 -8.07268464 6.84797852 -9 10 C-9.33014728 13.44160065 -9.37241756 16.8763541 -9.4140625 20.33203125 C-9.43342865 21.32377853 -9.4527948 22.31552582 -9.4727478 23.33732605 C-9.53238453 26.4956307 -9.57886555 29.6539721 -9.625 32.8125 C-9.6631944 34.95769792 -9.70224698 37.10288075 -9.7421875 39.24804688 C-9.83807292 44.49856362 -9.92316678 49.74917176 -10 55 C-10.33 55 -10.66 55 -11 55 C-11 40.48 -11 25.96 -11 11 C-11.66 10.67 -12.32 10.34 -13 10 C-9.93249196 3.25148232 -7.91481214 -0.71952838 0 0 Z " fill="#10115E" transform="translate(211,1)"/>
<path d="M0 0 C6.46885168 1.46464566 6.46885168 1.46464566 8.70918274 3.72271729 C10.32398743 6.57158438 10.36225514 8.42022625 10.34057617 11.68652344 C10.34034958 12.82740417 10.34012299 13.96828491 10.33988953 15.14373779 C10.32440567 16.36989807 10.30892181 17.59605835 10.29296875 18.859375 C10.28872391 20.11888977 10.28447906 21.37840454 10.28010559 22.67608643 C10.26616121 26.01688538 10.23922925 29.35706584 10.20599365 32.69769287 C10.17524839 36.10960558 10.16159079 39.5215823 10.14648438 42.93359375 C10.11339814 49.62256649 10.06318524 56.31124754 10 63 C9.67 63 9.34 63 9 63 C8.99191315 62.3596431 8.98382629 61.71928619 8.97549438 61.05952454 C8.88940878 54.39210211 8.78990307 47.72497562 8.68261719 41.05786133 C8.64434422 38.56995617 8.60948843 36.08199599 8.578125 33.59399414 C8.53243858 30.01688988 8.47444892 26.44016383 8.4140625 22.86328125 C8.40251129 21.75165115 8.39096008 20.64002106 8.37905884 19.4947052 C8.35918915 18.45400375 8.33931946 17.41330231 8.31884766 16.34106445 C8.30552399 15.4283931 8.29220032 14.51572174 8.2784729 13.57539368 C7.9718598 10.73975169 7.151047 8.59857375 6 6 C5.67 5.01 5.34 4.02 5 3 C3.35 2.67 1.7 2.34 0 2 C0 1.34 0 0.68 0 0 Z " fill="#05014C" transform="translate(183,1)"/>
<path d="M0 0 C1.98 0.99 1.98 0.99 4 2 C4 2.99 4 3.98 4 5 C4.99 5.33 5.98 5.66 7 6 C7 6.66 7 7.32 7 8 C14.26 8 21.52 8 29 8 C28.67 8.66 28.34 9.32 28 10 C24.95778935 10.08132642 21.9177762 10.14065374 18.875 10.1875 C17.59109375 10.22520508 17.59109375 10.22520508 16.28125 10.26367188 C11.08528276 10.32362534 7.47694731 9.95198713 3 7 C0 2.9 0 2.9 0 0 Z " fill="#302883" transform="translate(6,188)"/>
<path d="M0 0 C0.5878125 0.7115625 0.5878125 0.7115625 1.1875 1.4375 C0.03701172 1.27902588 -1.11347656 1.12055176 -2.29882812 0.95727539 C-6.54743697 0.42771581 -10.75373056 0.2228679 -15.03125 0.12109375 C-15.77459595 0.10031265 -16.51794189 0.07953156 -17.28381348 0.05812073 C-19.62662748 -0.00655128 -21.96954024 -0.06587092 -24.3125 -0.125 C-25.91407216 -0.16826384 -27.51563482 -0.21188044 -29.1171875 -0.25585938 C-33.01552733 -0.36214636 -36.9139651 -0.46363794 -40.8125 -0.5625 C-40.8125 -0.8925 -40.8125 -1.2225 -40.8125 -1.5625 C-36.06215355 -1.73064373 -31.3116322 -1.89114533 -26.56079102 -2.04467773 C-24.94581212 -2.09793303 -23.33089976 -2.15324863 -21.71606445 -2.21069336 C-19.39028262 -2.29306629 -17.06435948 -2.36794224 -14.73828125 -2.44140625 C-13.66142815 -2.48195885 -13.66142815 -2.48195885 -12.56282043 -2.52333069 C-3.24629771 -2.7985325 -3.24629771 -2.7985325 0 0 Z " fill="#222584" transform="translate(96.8125,202.5625)"/>
<path d="M0 0 C0 3 0 3 -1.0168457 4.66918945 C-4.06573725 6.71517096 -7.18796519 6.36829113 -10.73046875 6.29296875 C-11.48088943 6.28872391 -12.23131012 6.28447906 -13.00447083 6.28010559 C-15.39918026 6.2633245 -17.79304534 6.2256749 -20.1875 6.1875 C-21.8118368 6.17245235 -23.4361868 6.15876409 -25.06054688 6.14648438 C-29.04068948 6.11342305 -33.02020163 6.06164594 -37 6 C-37 5.67 -37 5.34 -37 5 C-36.0713916 4.98018066 -35.1427832 4.96036133 -34.18603516 4.93994141 C-30.7454948 4.86191387 -27.30540109 4.77522538 -23.86523438 4.68261719 C-22.37541111 4.64430002 -20.88549446 4.60945192 -19.39550781 4.578125 C-17.25551952 4.53253271 -15.11617564 4.47453126 -12.9765625 4.4140625 C-11.68830566 4.3826416 -10.40004883 4.3512207 -9.07275391 4.31884766 C-5.89518495 4.31541732 -5.89518495 4.31541732 -4 2 C-2.68252676 1.30251417 -1.35085807 0.63040043 0 0 Z " fill="#0E0F5F" transform="translate(197,235)"/>
<path d="M0 0 C0.70125 0.268125 1.4025 0.53625 2.125 0.8125 C1.25875 1.43125 1.25875 1.43125 0.375 2.0625 C-3.28247849 4.90720549 -6.18522274 8.04681183 -8.875 11.8125 C-9.58274468 5.79667021 -9.58274468 5.79667021 -7.71484375 3.19921875 C-5.12091994 0.84412169 -3.53627813 -0.23062683 0 0 Z " fill="#1D1E66" transform="translate(9.875,200.1875)"/>
<path d="M0 0 C-0.99 0.33 -1.98 0.66 -3 1 C-3 1.66 -3 2.32 -3 3 C-3.54269531 3.19335938 -4.08539063 3.38671875 -4.64453125 3.5859375 C-5.71767578 3.97652344 -5.71767578 3.97652344 -6.8125 4.375 C-7.52019531 4.63023438 -8.22789063 4.88546875 -8.95703125 5.1484375 C-11.24773359 6.0265769 -11.24773359 6.0265769 -14 8 C-14 7.34 -14 6.68 -14 6 C-14.66 5.67 -15.32 5.34 -16 5 C-15.34 5 -14.68 5 -14 5 C-14 4.34 -14 3.68 -14 3 C-9.07015675 0.96006486 -5.42039575 -0.40652968 0 0 Z " fill="#1E1E66" transform="translate(65,47)"/>
<path d="M0 0 C-1.62551467 1.78806614 -2.81694042 2.92233836 -5.0625 3.875 C-7.71177751 5.41329016 -8.10035344 7.15111923 -9 10 C-9.99 10 -10.98 10 -12 10 C-11.70197895 6.52308771 -10.9882377 4.98487704 -8.8125 2.1875 C-5.54121494 -0.35683282 -4.03884885 -0.46963359 0 0 Z " fill="#18185D" transform="translate(211,1)"/>
<path d="M0 0 C8.91 0 17.82 0 27 0 C26.01 0.99 25.02 1.98 24 3 C23.01 2.67 22.02 2.34 21 2 C19.37432921 1.85284801 17.74413143 1.75278133 16.11328125 1.68359375 C15.17548828 1.64169922 14.23769531 1.59980469 13.27148438 1.55664062 C12.29501953 1.51732422 11.31855469 1.47800781 10.3125 1.4375 C9.32443359 1.39431641 8.33636719 1.35113281 7.31835938 1.30664062 C4.87904454 1.20058346 2.43962887 1.09852286 0 1 C0 0.67 0 0.34 0 0 Z " fill="#15106D" transform="translate(13,195)"/>
<path d="M0 0 C0.33 0 0.66 0 1 0 C0.7618484 4.12796115 0.60339108 6.34632633 -2.25 9.4375 C-5.1811251 11.10291199 -6.6946094 11.37775893 -10 11 C-9 9 -9 9 -6.125 7.75 C-2.40479896 5.66668742 -1.55576936 3.88942339 0 0 Z " fill="#0F0F4F" transform="translate(298,288)"/>
<path d="M0 0 C0.66 0.99 1.32 1.98 2 3 C0.35 3.66 -1.3 4.32 -3 5 C-3 5.66 -3 6.32 -3 7 C-4.65 7.66 -6.3 8.32 -8 9 C-8.66 8.34 -9.32 7.68 -10 7 C-9.0925 6.401875 -8.185 5.80375 -7.25 5.1875 C-4.77098519 3.51893234 -2.36682089 1.82063145 0 0 Z " fill="#292765" transform="translate(147,140)"/>
<path d="M0 0 C3.40680413 0.30970947 5.56041967 0.68766661 8.375 2.6875 C10.43883512 5.62449613 10.31944345 7.48612204 10 11 C9.34 10.67 8.68 10.34 8 10 C8 8.68 8 7.36 8 6 C7.34 6 6.68 6 6 6 C5.34 5.01 4.68 4.02 4 3 C1.94996045 1.80767387 1.94996045 1.80767387 0 1 C0 0.67 0 0.34 0 0 Z " fill="#121152" transform="translate(289,1)"/>
<path d="M0 0 C-1.98 0.66 -3.96 1.32 -6 2 C-6 2.99 -6 3.98 -6 5 C-6.66 5 -7.32 5 -8 5 C-8.33 6.65 -8.66 8.3 -9 10 C-9.97687451 6.96083486 -10.105817 5.01586454 -9 2 C-5.96271914 -1.03728086 -4.06215635 -1.35405212 0 0 Z " fill="#1D1B5B" transform="translate(15,2)"/>
<path d="M0 0 C6.41625207 1.45273632 6.41625207 1.45273632 9 3.875 C10 6 10 6 9.6875 8.25 C9.460625 8.8275 9.23375 9.405 9 10 C9 9.01 9 8.02 9 7 C7.68 6.34 6.36 5.68 5 5 C5 4.34 5 3.68 5 3 C3.35 2.67 1.7 2.34 0 2 C0 1.34 0 0.68 0 0 Z " fill="#201E57" transform="translate(183,1)"/>
<path d="M0 0 C2 3 2 3 2.375 5.0625 C2.82121178 7.18499732 2.82121178 7.18499732 4.9375 8.125 C5.9584375 8.558125 5.9584375 8.558125 7 9 C7.66 9.66 8.32 10.32 9 11 C8.01 11.495 8.01 11.495 7 12 C1.125 8.25 1.125 8.25 0 6 C-0.039992 4.00039988 -0.04346799 1.99952758 0 0 Z " fill="#110F4D" transform="translate(1,288)"/>
<path d="M0 0 C0.33 0 0.66 0 1 0 C1.33 2.97 1.66 5.94 2 9 C2.99 9.33 3.98 9.66 5 10 C4.67 11.32 4.34 12.64 4 14 C3.01 13.67 2.02 13.34 1 13 C-0.32229189 10.35541621 -0.09677194 8.32238699 -0.0625 5.375 C-0.05347656 4.37210938 -0.04445313 3.36921875 -0.03515625 2.3359375 C-0.02355469 1.56507813 -0.01195313 0.79421875 0 0 Z " fill="#232270" transform="translate(99,224)"/>
<path d="M0 0 C1.98 0.99 1.98 0.99 4 2 C4 2.99 4 3.98 4 5 C4.99 5.33 5.98 5.66 7 6 C7.33 6.99 7.66 7.98 8 9 C4.68470727 8.01437243 3.25050621 7.34552581 1.1875 4.5 C0 2 0 2 0 0 Z " fill="#292A67" transform="translate(6,188)"/>
<path d="M0 0 C0.33 0 0.66 0 1 0 C1.24875561 2.26877104 1.47339246 4.54019735 1.6875 6.8125 C1.81511719 8.07707031 1.94273437 9.34164062 2.07421875 10.64453125 C2 14 2 14 -1 17 C-0.67 11.39 -0.34 5.78 0 0 Z " fill="#26246D" transform="translate(191,175)"/>
<path d="M0 0 C0.99 0.99 1.98 1.98 3 3 C-1.62 2.34 -6.24 1.68 -11 1 C-11 0.67 -11 0.34 -11 0 C-7.01611946 -0.83383546 -3.91159585 -1.26862568 0 0 Z " fill="#2D2B70" transform="translate(95,201)"/>
<path d="M0 0 C1 2 1 2 0.1875 4.625 C-2 7 -2 7 -4.4296875 7.32421875 C-6.96975586 7.31342526 -9.46934379 7.21365765 -12 7 C-12 6.67 -12 6.34 -12 6 C-11.07767578 5.85304687 -11.07767578 5.85304687 -10.13671875 5.703125 C-5.00590695 4.86708954 -5.00590695 4.86708954 -0.9375 1.875 C-0.628125 1.25625 -0.31875 0.6375 0 0 Z " fill="#16175C" transform="translate(190,188)"/>
<path d="M0 0 C1.48206495 0.254496 2.96068615 0.52911762 4.4375 0.8125 C5.67306641 1.03873047 5.67306641 1.03873047 6.93359375 1.26953125 C7.95646484 1.63111328 7.95646484 1.63111328 9 2 C9.33 2.99 9.66 3.98 10 5 C6.42195344 5.19878036 4.00791911 5.04108797 1 3 C0.67 2.01 0.34 1.02 0 0 Z " fill="#211F67" transform="translate(136,47)"/>
<path d="M0 0 C0.66 0.33 1.32 0.66 2 1 C1.67 1.99 1.34 2.98 1 4 C-0.98 4 -2.96 4 -5 4 C-3 1 -3 1 0 0 Z " fill="#243083" transform="translate(14,296)"/>
<path d="M0 0 C0.66 0.66 1.32 1.32 2 2 C0.35 3.65 -1.3 5.3 -3 7 C-3.625 5.125 -3.625 5.125 -4 3 C-2 1 -2 1 0 0 Z " fill="#292F81" transform="translate(189,186)"/>
<path d="M0 0 C0.33 0 0.66 0 1 0 C1 1.98 1 3.96 1 6 C-0.32 6.33 -1.64 6.66 -3 7 C-2.25 2.25 -2.25 2.25 0 0 Z " fill="#272966" transform="translate(202,4)"/>
<path d="M0 0 C1.485 0.99 1.485 0.99 3 2 C3 2.66 3 3.32 3 4 C3.66 4 4.32 4 5 4 C5 4.66 5 5.32 5 6 C2.525 5.01 2.525 5.01 0 4 C0 2.68 0 1.36 0 0 Z " fill="#1A1A5D" transform="translate(104,235)"/>
</svg>
