<?xml version="1.0" encoding="utf-8"?>
<!-- Generator: Adobe Illustrator 16.0.0, SVG Export Plug-In . SVG Version: 6.00 Build 0)  -->
<!DOCTYPE svg PUBLIC "-//W3C//DTD SVG 1.1//EN" "http://www.w3.org/Graphics/SVG/1.1/DTD/svg11.dtd">
<svg version="1.1" id="Layer_1" xmlns="http://www.w3.org/2000/svg" xmlns:xlink="http://www.w3.org/1999/xlink" x="0px" y="0px"
	 width="378px" height="378px" viewBox="-61 -44.5 378 378" enable-background="new -61 -44.5 378 378" xml:space="preserve">
<rect x="17.5" y="38.999" fill="#B2CDE0" width="198.667" height="205.33"/>
<g>
	<path fill="#4D4D4D" d="M9.305,171.299l-26.592-30.764c-0.513-0.742-0.768-1.577-0.768-2.505c0-0.927,0.255-1.67,0.768-2.228
		l25.92-29.928c0.192-0.278,0.416-0.23,0.672,0.139l4.704,8.491c0.192,0.557,0.224,0.929,0.096,1.114l-19.2,22.55l19.872,23.386
		c0.192,0.278,0.192,0.65,0,1.113l-4.8,8.491C9.72,171.531,9.497,171.576,9.305,171.299z"/>
	<path fill="#005A9C" d="M24.473,188.002c-0.256,0-0.352-0.23-0.288-0.695l10.944-49.695L24.377,91.676
		c-0.064-0.37,0.031-0.557,0.288-0.557h10.752c0.319,0,0.511,0.187,0.576,0.557l6.432,33.129l6.528-33.129
		c0.063-0.37,0.255-0.557,0.576-0.557h10.657c0.254,0,0.35,0.187,0.287,0.557l-10.752,45.796l10.848,49.834
		c0.129,0.465,0.031,0.695-0.287,0.695H49.529c-0.256,0-0.448-0.23-0.576-0.695l-6.528-35.914l-6.624,35.914
		c-0.064,0.465-0.256,0.695-0.576,0.695H24.473z"/>
	<path fill="#005A9C" d="M66.713,188.002c-0.321,0-0.48-0.23-0.48-0.695l0.192-95.63c0-0.37,0.127-0.557,0.384-0.557H85.24
		c5.888,0,10.544,2.599,13.969,7.795c3.423,5.198,5.136,12.25,5.136,21.158c0,6.59-0.897,12.297-2.688,17.122
		c-1.792,4.827-4.128,8.539-7.008,11.136c-2.88,2.6-6.017,3.898-9.408,3.898h-7.296v35.078c0,0.465-0.16,0.695-0.479,0.695H66.713z
		 M77.944,135.385h7.296c2.048,0,3.824-1.414,5.328-4.246c1.503-2.83,2.256-6.519,2.256-11.066c0-3.619-0.672-6.588-2.016-8.909
		c-1.344-2.318-3.201-3.48-5.568-3.48l-7.296,0.139V135.385z"/>
	<path fill="#005A9C" d="M129.265,188.002l-2.236-9.975h-0.253c-1.66,4.288-3.375,7.241-5.146,8.859
		c-1.772,1.618-4.008,2.428-6.708,2.428c-3.46,0-6.181-2.012-8.163-6.037c-1.983-4.024-2.975-9.624-2.975-16.8
		c0-7.7,1.356-13.421,4.071-17.161c2.714-3.74,6.771-5.808,12.171-6.202l6.244-0.394v-5.25c0-6.825-1.898-10.237-5.695-10.237
		c-2.813,0-6.048,1.706-9.703,5.119l-3.882-12.075c4.669-4.594,9.745-6.891,15.229-6.891c4.979,0,8.769,2.221,11.37,6.661
		c2.601,4.441,3.902,10.729,3.902,18.867v49.087H129.265z M119.52,175.665c2.053,0,3.691-1.433,4.914-4.298
		c1.224-2.865,1.836-6.684,1.836-11.452v-6.169l-3.46,0.263c-2.56,0.22-4.437,1.356-5.632,3.413s-1.793,5.118-1.793,9.188
		C115.385,172.646,116.763,175.665,119.52,175.665z"/>
	<path fill="#005A9C" d="M162.888,174.068c1.575,0,3.276-0.633,5.104-1.902v14.137c-1.828,2.039-4.57,3.059-8.227,3.059
		c-4.078,0-7.102-1.959-9.07-5.879c-1.969-3.919-2.953-9.798-2.953-17.638v-39.218h-4.556v-8.088l5.863-6.525l2.869-16.041h7.172
		v16.313h8.521v14.341h-8.521v39.831C159.091,171.531,160.356,174.068,162.888,174.068z"/>
	<path fill="#005A9C" d="M197.988,188.002v-43.575c0-10.718-1.73-16.078-5.189-16.078c-2.588,0-4.402,2.111-5.442,6.333
		c-1.041,4.223-1.561,10.293-1.561,18.21v35.109h-11.222V85.89h11.222v22.706c0,2.932-0.169,8.16-0.507,15.685h0.591
		c2.25-7.175,5.709-10.763,10.378-10.763c4.304,0,7.552,2.264,9.746,6.792c2.193,4.528,3.29,11.189,3.29,19.983v47.709H197.988z"/>
	<path fill="#4D4D4D" d="M219.117,164.002c-0.321,0-0.449-0.127-0.385-0.383l11.904-52.762c0.063-0.204,0.224-0.307,0.48-0.307
		h9.983c0.319,0,0.447,0.103,0.384,0.307l-12.096,52.762c-0.064,0.256-0.225,0.383-0.479,0.383H219.117z"/>
	<path fill="#4D4D4D" d="M253.772,171.299c-0.191,0.277-0.417,0.232-0.672-0.14l-4.8-8.491c-0.191-0.463-0.191-0.835,0-1.113
		l19.872-23.386l-19.2-22.55c-0.129-0.185-0.096-0.557,0.097-1.114l4.703-8.491c0.256-0.37,0.48-0.417,0.673-0.139l25.92,29.928
		c0.511,0.557,0.768,1.301,0.768,2.228c0,0.929-0.257,1.764-0.768,2.505L253.772,171.299z"/>
</g>
</svg>
